<svg width="22" height="15" viewBox="0 0 22 15" fill="none" xmlns="http://www.w3.org/2000/svg">
<path d="M11.0021 11.5754C12.1352 11.5754 13.0976 11.1788 13.8892 10.3857C14.6809 9.59248 15.0767 8.62934 15.0767 7.49624C15.0767 6.36315 14.6802 5.40078 13.887 4.60911C13.0938 3.81744 12.1307 3.42161 10.9976 3.42161C9.86448 3.42161 8.9021 3.81819 8.11044 4.61136C7.31877 5.40454 6.92294 6.36769 6.92294 7.50079C6.92294 8.63387 7.31952 9.59624 8.11269 10.3879C8.90587 11.1796 9.86901 11.5754 11.0021 11.5754ZM10.9998 10.1985C10.2498 10.1985 9.61234 9.93601 9.08734 9.41101C8.56234 8.88601 8.29984 8.24851 8.29984 7.49851C8.29984 6.74851 8.56234 6.11101 9.08734 5.58601C9.61234 5.06101 10.2498 4.79851 10.9998 4.79851C11.7498 4.79851 12.3873 5.06101 12.9123 5.58601C13.4373 6.11101 13.6998 6.74851 13.6998 7.49851C13.6998 8.24851 13.4373 8.88601 12.9123 9.41101C12.3873 9.93601 11.7498 10.1985 10.9998 10.1985ZM10.9998 14.4985C8.89472 14.4985 6.96941 13.9369 5.22391 12.8139C3.47839 11.6908 2.08513 10.2132 1.04411 8.38119C0.960778 8.2376 0.899878 8.09289 0.861411 7.94706C0.822944 7.80121 0.803711 7.65153 0.803711 7.49801C0.803711 7.34449 0.822944 7.19499 0.861411 7.04949C0.899878 6.90397 0.960778 6.75942 1.04411 6.61584C2.08513 4.78379 3.47839 3.30623 5.22391 2.18316C6.96941 1.06008 8.89472 0.498535 10.9998 0.498535C13.105 0.498535 15.0303 1.06008 16.7758 2.18316C18.5213 3.30623 19.9145 4.78379 20.9556 6.61584C21.0389 6.75942 21.0998 6.90413 21.1383 7.04996C21.1767 7.19581 21.196 7.34549 21.196 7.49901C21.196 7.65253 21.1767 7.80204 21.1383 7.94754C21.0998 8.09305 21.0389 8.2376 20.9556 8.38119C19.9145 10.2132 18.5213 11.6908 16.7758 12.8139C15.0303 13.9369 13.105 14.4985 10.9998 14.4985ZM10.9998 12.9985C12.8832 12.9985 14.6123 12.5027 16.1873 11.511C17.7623 10.5193 18.9665 9.18184 19.7998 7.49851C18.9665 5.81518 17.7623 4.47768 16.1873 3.48601C14.6123 2.49434 12.8832 1.99851 10.9998 1.99851C9.1165 1.99851 7.38734 2.49434 5.81234 3.48601C4.23734 4.47768 3.03317 5.81518 2.19984 7.49851C3.03317 9.18184 4.23734 10.5193 5.81234 11.511C7.38734 12.5027 9.1165 12.9985 10.9998 12.9985Z" fill="#9FA6B2"/>
</svg>
