<svg width="18" height="18" viewBox="0 0 18 18" fill="none" xmlns="http://www.w3.org/2000/svg">
<path d="M6.62766 3.50682C7.6832 1.61328 8.21097 0.666504 9.00002 0.666504C9.78907 0.666504 10.3168 1.61327 11.3724 3.50682L11.6455 3.9967C11.9454 4.53478 12.0954 4.80383 12.3292 4.98134C12.5631 5.15886 12.8543 5.22475 13.4368 5.35654L13.9671 5.47653C16.0168 5.9403 17.0417 6.17219 17.2855 6.95628C17.5293 7.74037 16.8306 8.5574 15.4333 10.1914L15.0718 10.6142C14.6747 11.0785 14.4761 11.3107 14.3868 11.5979C14.2975 11.8852 14.3275 12.1949 14.3875 12.8145L14.4422 13.3785C14.6535 15.5587 14.7591 16.6488 14.1207 17.1334C13.4824 17.618 12.5228 17.1761 10.6036 16.2925L10.1071 16.0639C9.56175 15.8128 9.28907 15.6872 9.00002 15.6872C8.71098 15.6872 8.43829 15.8128 7.89293 16.0639L7.39642 16.2925C5.47725 17.1761 4.51767 17.6179 3.87931 17.1334C3.24095 16.6488 3.34659 15.5587 3.55785 13.3785L3.61251 12.8145C3.67254 12.1949 3.70256 11.8852 3.61324 11.5979C3.52392 11.3107 3.32538 11.0785 2.92829 10.6142L2.56677 10.1914C1.16939 8.5574 0.470707 7.74037 0.714538 6.95628C0.958368 6.17219 1.98323 5.9403 4.03297 5.47653L4.56326 5.35654C5.14573 5.22476 5.43696 5.15886 5.67081 4.98134C5.90465 4.80383 6.05462 4.53478 6.35458 3.9967L6.62766 3.50682Z" fill="#FFC23D"/>
</svg>
