<svg width="44" height="44" viewBox="0 0 44 44" fill="none" xmlns="http://www.w3.org/2000/svg">
<circle cx="22" cy="22" r="10" transform="rotate(45 22 22)" fill="white"/>
<path d="M16.6878 23.5494C16.6157 23.2786 16.7092 23.1598 17.05 23.3546C17.2815 23.5177 17.5362 23.6451 17.8056 23.7325C20.0743 24.3637 21.5426 23.4364 22.2242 22.741C23.2602 21.6832 25.3692 21.1709 26.6876 22.065C26.9261 22.2331 27.1126 22.4649 27.2259 22.7339C27.3392 23.0029 27.3747 23.2983 27.3283 23.5864C26.9388 26.2183 24.7636 27.7884 21.9516 27.7436C20.7371 27.7139 19.5657 27.288 18.6155 26.5309C17.6653 25.7738 16.9884 24.7268 16.6878 23.5494Z" fill="#3C54D0"/>
<path d="M27.3244 21.1531C27.3964 21.4239 27.3029 21.5427 26.9622 21.3479C26.7295 21.1812 26.4727 21.0511 26.2007 20.9622C23.932 20.331 22.4637 21.2583 21.7821 21.9537C20.748 23.0115 18.6429 23.5239 17.3245 22.6297C17.086 22.4616 16.8995 22.2298 16.7863 21.9608C16.673 21.6918 16.6375 21.3964 16.6838 21.1083C17.0733 18.4765 19.2505 16.9063 22.0606 16.9511C23.2761 16.981 24.4485 17.4078 25.3989 18.1665C26.3493 18.9252 27.0255 19.974 27.3244 21.1531Z" fill="#F93347"/>
<path d="M32.5994 32.5994C34.6972 30.5017 36.126 27.8291 36.7052 24.9198C37.2843 22.0105 36.9878 18.9951 35.8532 16.2548C34.7185 13.5146 32.7967 11.1726 30.3306 9.52512C27.8646 7.8776 24.9652 6.99851 21.9989 6.99902C19.0327 6.99952 16.133 7.8796 13.6664 9.52796C11.1998 11.1763 9.27712 13.5189 8.14153 16.2595C7.00595 19.0002 6.70843 22.0157 7.28662 24.9248C7.8648 27.8339 9.29271 30.506 11.3898 32.6031L11.6762 32.8895L11.7161 32.9294L21.1321 42.3454C21.3604 42.5737 21.67 42.7019 21.9929 42.7018C22.3157 42.7018 22.6254 42.5734 22.8537 42.3451L32.2757 32.9231C32.2892 32.911 32.3021 32.8981 32.3142 32.8846C32.4093 32.7868 32.5057 32.6931 32.5994 32.5994ZM16.4313 27.8369C15.3297 26.7359 14.5795 25.3327 14.2757 23.8049C13.9719 22.2772 14.128 20.6935 14.7244 19.2541C15.3208 17.8148 16.3306 16.5846 17.6261 15.7191C18.9216 14.8536 20.4446 14.3916 22.0024 14.3918C23.5602 14.3919 25.0828 14.854 26.3775 15.7198C27.6723 16.5855 28.6811 17.8159 29.2763 19.2553C29.8715 20.6947 30.0263 22.2784 29.7212 23.8061C29.4161 25.3338 28.6647 26.7369 27.5622 27.8378C26.0846 29.3118 24.0824 30.1392 21.9956 30.1383C19.9088 30.1373 17.908 29.3081 16.4327 27.8328L16.4313 27.8369Z" fill="#F93347"/>
<mask id="mask0_654_12717" style="mask-type:luminance" maskUnits="userSpaceOnUse" x="7" y="7" width="31" height="31">
<path d="M32.6103 11.3972C30.5132 9.30011 27.8412 7.87219 24.9321 7.29401C22.023 6.71583 19.0074 7.01334 16.2668 8.14893C13.5262 9.28452 11.1836 11.2072 9.53522 13.6738C7.88686 16.1404 7.00678 19.0401 7.00627 22.0063C7.00577 24.9725 7.88486 27.872 9.53238 30.338C11.1799 32.8041 13.5218 34.7259 16.2621 35.8606C19.0023 36.9952 22.0177 37.2917 24.9271 36.7125C27.8364 36.1334 30.5089 34.7045 32.6067 32.6068C35.4197 29.7937 37.0005 25.9788 37.0012 22.0012C37.0018 18.0237 35.4224 14.2093 32.6103 11.3972ZM16.4414 27.8415C15.339 26.7407 14.5881 25.3376 14.2836 23.8096C13.9791 22.2816 14.1348 20.6975 14.731 19.2578C15.3271 17.818 16.337 16.5873 17.6326 15.7214C18.9283 14.8556 20.4516 14.3935 22.0097 14.3936C23.5678 14.3937 25.0907 14.8561 26.3857 15.7221C27.6806 16.5882 28.6894 17.819 29.2844 19.2589C29.8793 20.6987 30.0337 22.2829 29.728 23.8108C29.4222 25.3387 28.6701 26.7418 27.5668 27.8423C26.0891 29.3164 24.087 30.1438 22.0002 30.1428C19.9134 30.1419 17.9126 29.3127 16.4373 27.8374L16.4414 27.8415Z" fill="white"/>
</mask>
<g mask="url(#mask0_654_12717)">
<g opacity="0.2">
<path d="M33.8758 31.1205C35.4684 29.0441 36.4909 26.5877 36.8419 23.9947C37.1929 21.4018 36.8601 18.7624 35.8767 16.3382C35.6848 15.8647 35.4688 15.4014 35.2296 14.95C35.0286 14.5699 34.8097 14.1967 34.5756 13.8359C34.3415 13.4751 34.1088 13.1488 33.8596 12.8252C33.6104 12.5016 33.3198 12.1587 33.0293 11.8406L22.9227 21.9472L33.0672 32.0916C33.3482 31.7775 33.6177 31.4538 33.8758 31.1205ZM31.252 15.4327L32.8472 13.8376C33.0978 14.1709 33.3332 14.5138 33.5508 14.8691C33.7793 15.2382 33.9889 15.6188 34.1786 16.0093C34.3181 16.2921 34.4471 16.5799 34.5654 16.8728C35.1529 18.3241 35.4835 19.8665 35.5425 21.4313L34.5096 21.4342C34.4502 20.0032 34.1439 18.5933 33.6041 17.2668C33.5394 17.1057 33.4705 16.9459 33.4003 16.7876C33.218 16.3906 33.0149 16.0036 32.7918 15.628L30.8812 17.5386L30.0137 16.6711L31.2534 15.4314L31.252 15.4327ZM31.5685 25.2015L26.5259 20.1589L29.2065 17.4783L30.074 18.3458L28.2915 20.1283L31.9351 23.7718C32.0288 23.2433 32.0805 22.7081 32.0896 22.1715C32.091 22.1095 32.0924 22.0475 32.091 21.9855C32.0922 21.5795 32.0684 21.1739 32.0196 20.7708C31.9921 20.5229 31.9577 20.2819 31.9027 20.0285L30.9247 21.0065L30.053 20.1349L32.4925 17.6953L32.5063 17.7091C33.6011 20.4176 33.6129 23.4436 32.5393 26.1613L31.5685 25.2015ZM32.1215 29.3662L24.72 21.9647L25.6416 21.0432L32.8475 28.2491C33.0668 27.8691 33.2659 27.4779 33.444 27.077C33.4991 26.953 33.5528 26.8277 33.6025 26.701C34.1282 25.4149 34.4347 24.0499 34.5094 22.6627L35.5423 22.657C35.41 25.3505 34.4741 27.9428 32.8554 30.1001L32.1215 29.3662Z" fill="white"/>
<path d="M11.3693 32.5826C9.27198 30.4856 7.84383 27.8134 7.2655 24.9042C6.68716 21.9949 6.98461 18.9792 8.12023 16.2385C9.25585 13.4977 11.1786 11.155 13.6454 9.50656C16.1122 7.85816 19.0121 6.97813 21.9785 6.97778C24.1913 6.9773 26.3767 7.46651 28.3779 8.41032C30.379 9.35414 32.1464 10.7292 33.5532 12.4368C34.96 14.1444 35.9714 16.1424 36.5148 18.2873C37.0582 20.4322 37.1202 22.6709 36.6964 24.8429C36.2725 27.015 35.3732 29.0665 34.0631 30.8503C32.753 32.6341 31.0645 34.106 29.1187 35.1604C27.1729 36.2149 25.0179 36.8258 22.8085 36.9493C20.599 37.0728 18.3898 36.7058 16.3392 35.8747C14.4774 35.1238 12.7869 34.004 11.3693 32.5826ZM31.5756 12.3763C29.3611 10.1637 26.4495 8.78493 23.3342 8.47361C20.2188 8.1623 17.0913 8.93758 14.4814 10.6681C11.8716 12.3986 9.93994 14.978 9.01375 17.9692C8.08757 20.9603 8.22382 24.1793 9.39941 27.0808C10.7773 30.381 13.4022 33.0035 16.7037 34.3784C20.0051 35.7532 23.7162 35.7692 27.0304 34.4229C30.3445 33.0766 32.9937 30.4768 34.4023 27.1886C35.8108 23.9005 35.8647 20.1897 34.5524 16.8629C33.8717 15.1824 32.8593 13.6565 31.5756 12.3763Z" fill="white"/>
<path d="M11.8607 10.8851L22.001 21.0254L32.1076 10.9189C31.7881 10.627 31.4618 10.3502 31.123 10.0886C30.7842 9.82694 30.4551 9.59424 30.1067 9.36706C29.7583 9.13987 29.3769 8.91269 28.9926 8.71306C28.5419 8.47398 28.079 8.25846 27.6059 8.06736C25.1824 7.08213 22.543 6.74881 19.9502 7.10058C17.3575 7.45235 14.9019 8.47695 12.8277 10.0724C12.493 10.33 12.172 10.6014 11.8607 10.8851ZM27.6311 13.5805L27.2826 13.929L26.4137 13.0601L28.3215 11.1523C27.946 10.9292 27.5589 10.726 27.162 10.5437C27.005 10.4721 26.8452 10.4033 26.6827 10.34C25.3551 9.80133 23.9443 9.49593 22.5126 9.43721L22.5169 8.40566C24.0811 8.46416 25.6231 8.79431 27.074 9.38135C27.3678 9.50066 27.6556 9.62961 27.9375 9.76821C28.3279 9.95813 28.7085 10.1677 29.0777 10.396C29.433 10.6136 29.7773 10.8504 30.1106 11.101L27.6311 13.5805ZM17.7814 11.4144C20.4991 10.3407 23.5251 10.3526 26.2336 11.4474L26.2459 11.4598L23.8119 13.8938L22.9417 13.0235L23.9197 12.0455C23.6745 11.9987 23.428 11.9588 23.1774 11.9285C22.7743 11.8798 22.3686 11.856 21.9626 11.8571L21.7767 11.8585C21.24 11.8693 20.7049 11.9219 20.1763 12.0158L23.8171 15.6566L25.601 13.8728L26.4699 14.7417L23.7893 17.4223L17.7814 11.4144ZM13.8439 11.0886C16.0026 9.47558 18.5931 8.54294 21.2842 8.41L21.2896 9.44293C19.8982 9.51756 18.5291 9.82457 17.2389 10.3512C17.1136 10.4022 16.9883 10.4559 16.8643 10.5111C16.4634 10.6895 16.0717 10.8882 15.6908 11.1062L22.8981 18.3135L21.9834 19.2281L13.8439 11.0886Z" fill="white"/>
<path d="M32.1 33.0585L21.9556 22.9141L11.849 33.0206C12.1666 33.3126 12.4948 33.5893 12.8336 33.8509C13.1627 34.1057 13.5001 34.3466 13.8485 34.5711C14.1969 34.7955 14.5797 35.0268 14.9626 35.2251C15.4135 35.4651 15.8769 35.6811 16.3507 35.8721C18.7751 36.856 21.4149 37.1883 24.0078 36.836C26.6008 36.4838 29.0567 35.4593 31.1317 33.8644C31.4622 33.6081 31.7832 33.3395 32.1 33.0585ZM16.342 30.3645L16.6905 30.016L17.558 30.8836L15.6447 32.7969C16.0202 33.02 16.4073 33.2231 16.8043 33.4054C16.9613 33.477 17.121 33.5458 17.2835 33.6092C18.61 34.149 20.0199 34.4553 21.4509 34.5147L21.448 35.5476C19.8832 35.4886 18.3407 35.158 16.8894 34.5706C16.5966 34.4503 16.3088 34.3214 16.026 34.1837C15.6354 33.994 15.2548 33.7845 14.8857 33.5559C14.5304 33.3383 14.1875 33.1029 13.8543 32.8523L16.3338 30.3728L16.342 30.3645ZM26.1862 32.5362C23.4689 33.6116 20.4422 33.5998 17.7341 32.5032L17.7203 32.4894L20.146 30.0637L21.0108 30.9284L20.0328 31.9064C20.2793 31.9546 20.5258 31.9945 20.7751 32.0234C21.1781 32.0721 21.5838 32.0959 21.9898 32.0948C22.0518 32.0961 22.1138 32.0948 22.1757 32.0934C22.7129 32.0838 23.2485 32.0317 23.7775 31.9375L20.1298 28.2898L18.3473 30.0722L17.4798 29.2047L20.1673 26.5172L26.1752 32.5251L26.1862 32.5362ZM30.1113 32.844C27.9534 34.4608 25.361 35.3946 22.6682 35.5254L22.6766 34.4952C24.0611 34.422 25.4237 34.1178 26.708 33.5952C26.8347 33.5456 26.9601 33.4918 27.084 33.4367C27.4849 33.2586 27.8762 33.0595 28.2562 32.8402L21.0503 25.6343L21.9759 24.7086L30.1113 32.844Z" fill="white"/>
<path d="M10.0836 12.8163C8.49002 14.8919 7.46643 17.3477 7.11425 19.9404C6.76207 22.5331 7.09353 25.1726 8.07578 27.5972C8.26604 28.0707 8.48158 28.5336 8.72147 28.984C8.92157 29.3677 9.13957 29.7391 9.37548 30.0981C9.60128 30.4478 9.84225 30.7852 10.097 31.1143C10.3517 31.4435 10.634 31.7808 10.9273 32.0989L21.0339 21.9924L10.8936 11.8521C10.6084 12.1647 10.3384 12.4843 10.0836 12.8163ZM12.7045 28.5068L11.1136 30.0978C10.863 29.7645 10.6261 29.4202 10.4086 29.0649C10.1802 28.6957 9.97068 28.3151 9.78076 27.9247C9.64124 27.6419 9.51229 27.3541 9.3939 27.0612C8.80686 25.6103 8.47671 24.0683 8.41821 22.5041L9.44976 22.4998C9.50967 23.9307 9.816 25.3405 10.3553 26.6672C10.42 26.8283 10.4888 26.988 10.559 27.1464C10.7413 27.5434 10.9445 27.9304 11.1676 28.306L13.074 26.3995L13.9429 27.2684L12.7032 28.5081L12.7045 28.5068ZM12.3867 18.7366L17.4307 23.7806L14.7501 26.4612L13.8812 25.5923L15.6637 23.8099L12.0215 20.1677C11.9249 20.6983 11.87 21.2357 11.8573 21.7749L11.8559 21.9609C11.8547 22.3669 11.8786 22.7725 11.9273 23.1756C11.9548 23.4235 11.9975 23.6728 12.0443 23.9179L13.0223 22.9399L13.8939 23.8115L11.4558 26.2497L11.4434 26.2373C10.3468 23.5292 10.335 20.5025 11.4104 17.7851L12.3867 18.7366ZM11.8379 14.5706L19.2393 21.972L18.315 22.8963L11.1078 15.689C10.8897 16.0699 10.6911 16.4616 10.5126 16.8625C10.4575 16.9865 10.4037 17.1118 10.3528 17.2372C9.8317 18.5242 9.52891 19.889 9.45686 21.2754L8.42255 21.2797C8.55374 18.5864 9.48596 15.9933 11.0998 13.8325L11.8379 14.5706Z" fill="white"/>
</g>
</g>
</svg>
