
<svg version="1.1" id="Layer_1" xmlns="http://www.w3.org/2000/svg" xmlns:xlink="http://www.w3.org/1999/xlink" x="0px" y="0px"
	 width="50%" viewBox="0 0 1057 1121" enable-background="new 0 0 1057 1121" xml:space="preserve">

<path fill="#F9016A" opacity="1.000000" stroke="none" 
	d="
M715.098389,589.099304 
	C712.881409,591.652161 710.664429,594.205017 707.956055,596.967651 
	C707.233276,597.325745 707.094971,597.535522 707.049744,597.806641 
	C700.913818,602.515564 694.777954,607.224487 687.876160,611.959595 
	C682.013611,612.756531 680.881714,610.003784 680.949402,605.563049 
	C681.118591,594.463318 679.354736,583.755676 675.710266,573.127563 
	C668.184387,551.180359 657.662292,530.732910 646.108276,510.756531 
	C643.504150,506.254089 640.056763,502.239410 636.969604,497.679688 
	C636.293701,496.573334 635.645630,495.787445 634.973145,494.679993 
	C634.297485,493.574707 633.646301,492.790985 632.856750,491.693909 
	C626.148987,483.917694 619.579590,476.454773 613.005615,468.995300 
	C613.001099,468.998749 613.007629,468.989441 612.972412,468.646606 
	C610.285828,465.551910 607.634583,462.800079 604.685425,459.892212 
	C599.115417,455.195435 594.120178,450.270203 588.494812,446.220032 
	C582.660339,442.019348 576.215637,438.666168 569.972595,434.602295 
	C558.213806,426.439209 545.610718,420.615051 531.759155,416.993958 
	C531.521484,416.975464 531.044800,416.969940 530.819458,416.691223 
	C526.727661,415.283356 522.861145,414.154175 518.634338,413.003052 
	C517.552673,412.956543 516.831238,412.931976 515.918213,412.674103 
	C515.156677,412.277832 514.586670,412.114868 513.741699,411.681641 
	C499.515747,409.942810 485.589172,408.124084 471.603790,407.152466 
	C464.549530,406.662415 457.344940,407.336578 450.288757,408.167358 
	C443.787994,408.932800 437.394897,410.612396 430.549377,411.920105 
	C425.431763,412.976593 420.719147,414.002289 416.010834,414.661194 
	C416.671997,413.201782 417.103973,411.847107 418.022247,411.059296 
	C423.809387,406.094238 426.785095,400.099091 426.066956,392.276550 
	C425.672577,387.980530 426.088989,383.616058 425.972961,379.286957 
	C425.844635,374.498627 425.232208,369.582520 431.392670,367.775055 
	C431.554352,367.727661 431.570129,367.183075 431.728180,366.593384 
	C431.241150,366.138794 430.723633,365.512573 430.077881,365.076141 
	C426.000610,362.320953 426.080627,361.753662 430.395294,359.263794 
	C431.423431,358.670502 432.000366,357.295349 432.784851,356.279785 
	C431.378510,356.171356 429.888306,355.708344 428.580688,356.017517 
	C423.647705,357.183807 418.774017,358.601227 413.878143,359.924561 
	C415.329956,358.961212 416.656342,357.574524 418.253418,357.101288 
	C431.184662,353.269623 443.991577,348.764221 457.161926,346.035156 
	C537.064575,329.478333 607.401733,349.895721 668.292358,403.096741 
	C698.655457,429.625427 720.811707,462.474670 732.964050,501.098511 
	C742.523926,531.482788 736.358521,559.964111 717.274780,585.989441 
	C716.104370,587.128296 715.601379,588.113770 715.098389,589.099304 
z"/>
<path fill="#021DBC" opacity="1.000000" stroke="none" 
	d="
M457.013672,809.978271 
	C433.536285,797.522644 413.312531,780.923035 395.546326,761.292236 
	C376.739563,740.511719 362.438660,716.927429 351.503510,691.106079 
	C329.741302,639.718567 356.014160,580.360229 408.945923,562.234802 
	C407.663055,563.811340 405.788544,565.163879 403.919006,566.523254 
	C402.670105,567.431335 401.428284,568.349182 400.183289,569.262695 
	C401.308899,570.221497 402.434479,571.180237 403.775177,572.322205 
	C403.093994,574.389587 402.038361,576.530029 401.719299,578.775085 
	C400.972595,584.029053 399.740417,589.421509 400.285217,594.591370 
	C400.800568,599.482056 403.093353,604.259460 405.027649,608.910645 
	C408.640747,617.598572 412.421539,626.223755 416.393951,634.753296 
	C419.948029,642.384583 423.786987,649.886230 427.624573,657.381409 
	C430.995728,663.965576 434.539246,670.461365 437.840424,677.322266 
	C436.797119,679.015442 435.334991,680.305420 435.142731,681.762878 
	C434.237732,688.624023 433.800201,695.545593 432.969849,702.418274 
	C431.943237,710.915771 430.773987,719.398132 429.519104,727.865234 
	C428.096893,737.461487 426.522491,747.035278 424.993591,756.615601 
	C423.891602,763.520691 423.770721,770.754272 417.986938,776.407471 
	C420.406464,777.619812 422.446075,778.641785 424.549835,779.695923 
	C423.955750,783.380188 423.955719,786.749695 429.024628,787.082275 
	C429.595093,787.119751 430.563629,787.577698 430.622559,787.954163 
	C431.550842,793.881409 437.271149,794.896179 440.969666,797.821472 
	C444.233276,800.402893 448.291443,801.979675 452.107422,804.219482 
	C452.414642,804.713806 452.675507,804.902771 453.139404,805.294312 
	C454.184143,806.056885 455.088104,806.530884 456.118256,807.297119 
	C456.500854,808.385681 456.757263,809.182007 457.013672,809.978271 
z"/>
<path fill="#F50392" opacity="1.000000" stroke="none" 
	d="
M413.491821,359.936646 
	C418.774017,358.601227 423.647705,357.183807 428.580688,356.017517 
	C429.888306,355.708344 431.378510,356.171356 432.784851,356.279785 
	C432.000366,357.295349 431.423431,358.670502 430.395294,359.263794 
	C426.080627,361.753662 426.000610,362.320953 430.077881,365.076141 
	C430.723633,365.512573 431.241150,366.138794 431.728180,366.593384 
	C431.570129,367.183075 431.554352,367.727661 431.392670,367.775055 
	C425.232208,369.582520 425.844635,374.498627 425.972961,379.286957 
	C426.088989,383.616058 425.672577,387.980530 426.066956,392.276550 
	C426.785095,400.099091 423.809387,406.094238 418.022247,411.059296 
	C417.103973,411.847107 416.671997,413.201782 415.638245,414.722717 
	C403.619263,419.785889 391.818359,424.067078 380.398529,429.196594 
	C374.181427,431.989136 368.611176,436.221802 362.551453,439.825745 
	C362.353729,439.846588 361.971924,439.957703 361.637390,439.986267 
	C359.884125,441.016968 358.465363,442.019135 357.023193,443.010651 
	C356.999786,443.000000 357.016937,443.048492 356.687042,443.057129 
	C355.232788,444.037781 354.108429,445.009766 352.992004,445.990875 
	C353.000000,446.000000 352.982605,445.979980 352.663330,446.000122 
	C351.585419,446.681763 350.826813,447.343201 350.035614,448.002747 
	C350.003021,448.000854 349.999146,448.066040 349.666870,448.075623 
	C347.878601,449.358185 346.422577,450.631226 344.955933,451.919678 
	C344.945282,451.935089 344.917816,451.960571 344.690247,452.041138 
	C344.175720,452.310852 344.006317,452.575378 343.944824,452.934082 
	C343.935150,452.952972 343.898102,452.932220 343.585693,452.955139 
	C342.506226,453.623688 341.739166,454.269287 340.963196,454.930084 
	C340.954315,454.945312 340.925507,454.965637 340.699524,455.044800 
	C340.180511,455.302460 340.009186,455.561462 339.944092,455.914581 
	C339.928650,455.928162 339.901123,455.958679 339.671906,456.037659 
	C339.163208,456.303528 338.967499,456.555542 338.567841,456.921204 
	C337.856964,457.338379 337.433777,457.706940 336.781738,458.145142 
	C336.263153,458.397827 336.095886,458.659302 335.818756,459.098389 
	C335.381683,459.458527 335.176849,459.719360 334.741089,460.059631 
	C334.210144,460.317413 334.030670,460.578552 333.961365,460.936676 
	C333.951050,460.950867 333.921631,460.969971 333.696289,461.049591 
	C333.182037,461.311584 333.012695,461.571808 332.950989,461.924438 
	C332.939087,461.939087 332.909149,461.962067 332.682434,462.041626 
	C332.169861,462.309387 332.001251,462.572723 331.938416,462.928406 
	C331.926941,462.945679 331.889679,462.927490 331.563416,462.963837 
	C329.857819,464.342194 328.478455,465.684235 326.801086,467.156555 
	C325.341064,468.555695 324.179108,469.824554 322.704865,471.199432 
	C320.582153,473.499451 318.771698,475.693420 316.933777,477.903198 
	C316.906250,477.918945 316.899902,477.982025 316.679779,478.058594 
	C316.184753,478.321869 316.026337,478.580078 315.955017,478.918091 
	C315.925659,478.926422 315.909424,478.985260 315.688965,479.064056 
	C315.191711,479.330811 315.034698,479.591064 314.967163,479.931549 
	C314.936859,479.939514 314.925293,480.001160 314.707397,480.088379 
	C314.225983,480.377258 314.073181,480.642670 314.003845,480.974365 
	C313.976501,480.976807 313.972412,481.031494 313.749329,481.111450 
	C313.242554,481.380066 313.086273,481.644165 312.823425,482.111084 
	C312.392395,482.528778 312.195343,482.819031 311.779816,483.168457 
	C311.280304,483.400116 311.133118,483.651123 310.922119,484.259338 
	C309.622498,485.993469 308.540009,487.464233 307.415741,488.902283 
	C284.609650,518.073669 271.418518,550.984924 268.694031,588.110352 
	C268.496185,588.294983 268.379303,588.438660 268.411560,588.491943 
	C268.521637,588.673523 268.684204,588.823242 268.825134,589.319153 
	C268.808746,590.098083 268.793945,590.543091 268.513184,591.091431 
	C267.318176,589.889648 266.389160,588.584473 265.460144,587.279236 
	C265.351990,585.720154 265.243835,584.161133 265.355408,582.019653 
	C265.494263,580.767639 265.413361,580.098022 265.332458,579.428345 
	C265.342163,577.075317 265.351868,574.722351 265.641327,571.616577 
	C266.160736,566.586853 266.400391,562.309937 266.640045,558.032959 
	C266.653290,557.473328 266.666565,556.913635 266.834351,555.683960 
	C267.069305,553.802368 267.149719,552.590820 267.230103,551.379272 
	C267.328705,550.432495 267.427277,549.485657 267.989716,547.979065 
	C268.495392,545.905823 268.537140,544.392334 268.578888,542.878906 
	C268.635468,542.341003 268.692047,541.803040 269.046692,540.605347 
	C270.306366,534.748596 271.267975,529.551697 272.229584,524.354736 
	C272.360657,523.757996 272.491730,523.161255 273.064026,521.999634 
	C274.160614,519.213928 274.780762,516.982056 275.477753,514.774353 
	C277.861511,507.223999 280.272217,499.682129 282.672638,492.137024 
	C289.288727,479.374084 295.115509,466.115173 302.737610,453.984375 
	C310.732422,441.260406 319.636932,428.900055 329.583282,417.653809 
	C349.872101,394.713470 374.467346,377.150665 402.144958,364.003357 
	C405.649658,362.338531 409.444855,361.285248 413.491821,359.936646 
z"/>
<path fill="#1A37D0" opacity="1.000000" stroke="none" 
	d="
M481.631836,563.881042 
	C488.344360,567.955505 495.537781,571.421082 501.653412,576.251343 
	C510.209381,583.008972 517.441833,591.205688 521.760742,601.582642 
	C518.880859,598.713562 516.031494,595.753052 514.055115,592.293701 
	C511.411194,587.665894 505.862091,584.704590 500.023010,585.906311 
	C500.388336,586.816528 500.484589,588.035828 501.120148,588.475708 
	C504.451355,590.780884 503.490601,593.731750 502.917847,596.887939 
	C501.774719,603.186951 500.940460,609.542358 499.998810,615.877502 
	C499.512939,619.146301 499.686615,622.666260 498.501404,625.651550 
	C493.346954,638.634277 495.112244,652.484375 492.985596,665.825500 
	C491.847137,672.967346 490.937500,680.175476 489.250885,687.191711 
	C487.615662,693.994202 483.556915,700.287170 485.913452,707.792542 
	C486.373108,709.256653 485.762024,711.068970 485.594788,712.715637 
	C485.077362,717.810669 484.535828,722.903137 483.701630,727.852539 
	C480.004791,724.608215 476.624329,721.492065 473.209839,718.413696 
	C471.170624,716.575317 469.078064,714.796082 466.812195,712.720093 
	C459.077545,702.965759 451.540253,693.481689 444.001465,683.590088 
	C443.158356,679.412170 442.728333,675.742737 445.243927,672.287170 
	C445.837830,671.471375 445.754547,670.093140 445.807892,668.965332 
	C446.039185,664.077454 445.803986,659.130554 446.475830,654.307861 
	C448.089874,642.721069 450.216370,631.206726 451.954926,619.635986 
	C454.157867,604.974548 456.178619,590.285706 458.284271,575.609680 
	C458.798492,572.025452 459.357513,568.447693 459.859741,564.861877 
	C460.464722,560.542175 462.559937,559.426208 466.838196,560.724304 
	C471.646057,562.183105 476.690369,562.862549 481.631836,563.881042 
z"/>
<path fill="#FA4A61" opacity="1.000000" stroke="none" 
	d="
M430.954376,411.889343 
	C437.394897,410.612396 443.787994,408.932800 450.288757,408.167358 
	C457.344940,407.336578 464.549530,406.662415 471.603790,407.152466 
	C485.589172,408.124084 499.515747,409.942810 513.907593,411.944946 
	C514.935669,412.621429 515.522766,412.764404 516.109863,412.907410 
	C516.831238,412.931976 517.552673,412.956543 518.707520,413.366333 
	C523.108887,414.824341 527.076843,415.897156 531.044800,416.969971 
	C531.044800,416.969940 531.521484,416.975464 531.819092,417.349548 
	C534.298523,418.971436 536.480286,420.219177 539.034302,421.679810 
	C537.946533,422.617950 537.063110,423.379822 535.937439,424.350586 
	C538.081482,425.783295 539.948792,427.031067 541.816040,428.278839 
	C539.177246,431.399994 537.547424,433.443878 537.106018,435.718384 
	C535.679321,443.070862 534.791077,450.525848 533.498718,457.906921 
	C532.483459,463.705658 531.138367,469.445862 530.016846,475.227020 
	C529.483704,477.975250 529.110168,480.755371 528.699036,483.526215 
	C527.904541,488.881256 526.067139,494.366730 526.683289,499.558258 
	C527.202209,503.930908 528.676758,507.400238 523.890320,508.826874 
	C527.316589,515.464783 530.616638,521.808472 533.837646,528.192078 
	C534.097046,528.706238 533.812317,529.494934 533.780396,530.156067 
	C526.212646,520.952332 519.333557,511.055878 510.925293,502.697662 
	C496.112854,487.973511 477.916046,478.397644 458.204803,471.300812 
	C457.504791,469.963593 456.778900,469.070953 456.053040,468.178284 
	C455.355804,468.817474 454.658600,469.456696 453.961365,470.095947 
	C452.254303,469.731720 450.547180,469.367523 448.747620,468.653809 
	C449.713470,467.554352 451.569153,466.919525 451.696808,466.035217 
	C452.373749,461.345795 452.280609,456.535492 453.088318,451.876984 
	C454.319397,444.776459 456.195587,437.790131 457.556000,430.708893 
	C458.483704,425.880005 459.052124,420.978241 459.635834,416.091705 
	C459.715149,415.427643 458.984650,414.639862 458.565704,413.947784 
	C456.017029,409.737427 450.595428,408.976990 444.285461,410.694763 
	C440.047455,411.848572 435.412018,411.542358 430.954376,411.889343 
z"/>
<path fill="#FA3C63" opacity="1.000000" stroke="none" 
	d="
M533.797974,530.151001 
	C533.812317,529.494934 534.097046,528.706238 533.837646,528.192078 
	C530.616638,521.808472 527.316589,515.464783 523.890320,508.826874 
	C528.676758,507.400238 527.202209,503.930908 526.683289,499.558258 
	C526.067139,494.366730 527.904541,488.881256 528.699036,483.526215 
	C529.110168,480.755371 529.483704,477.975250 530.016846,475.227020 
	C531.138367,469.445862 532.483459,463.705658 533.498718,457.906921 
	C534.791077,450.525848 535.679321,443.070862 537.106018,435.718384 
	C537.547424,433.443878 539.177246,431.399994 541.816040,428.278839 
	C539.948792,427.031067 538.081482,425.783295 535.937439,424.350586 
	C537.063110,423.379822 537.946533,422.617950 539.034302,421.679810 
	C536.480286,420.219177 534.298523,418.971436 532.056763,417.368042 
	C545.610718,420.615051 558.213806,426.439209 570.008911,434.955048 
	C572.092468,437.306580 574.323730,438.753845 575.971619,440.696045 
	C577.136780,442.069427 577.029053,444.950989 578.330078,445.700836 
	C582.277161,447.975616 581.230835,450.610260 579.922058,453.695251 
	C579.364197,455.009979 578.621033,456.887268 579.140320,457.911560 
	C582.072021,463.694305 578.842346,469.039276 578.184753,474.498108 
	C577.685486,478.643127 575.723877,482.597870 575.069275,486.740997 
	C573.294128,497.977081 571.872986,509.269043 570.302368,520.537598 
	C568.532532,533.236145 567.057434,545.987915 564.793579,558.597961 
	C564.105652,562.429810 566.274109,568.104187 560.013977,569.927673 
	C559.786560,569.993896 559.945129,572.639709 560.491211,573.821106 
	C561.364807,575.711060 563.887817,577.548767 563.663818,579.115540 
	C562.572083,586.752991 568.890320,590.088867 572.261169,595.067566 
	C574.607971,598.533691 577.471497,601.650146 580.048706,604.968628 
	C579.993286,605.014404 579.888245,605.112610 579.888245,605.112610 
	C569.643616,598.264343 562.718811,588.491516 557.064026,577.916382 
	C552.454651,569.296448 548.889587,560.118103 544.830994,550.539673 
	C544.549255,549.610413 544.298096,549.328735 544.046936,549.046997 
	C544.046936,549.046997 543.955872,548.999573 543.963623,548.668213 
	C543.657715,547.895203 543.343933,547.453552 543.030212,547.011902 
	C543.030212,547.011902 542.793945,546.773193 542.792603,546.317017 
	C542.530701,545.594971 542.270203,545.329102 542.009766,545.063171 
	C542.009766,545.063171 541.942505,545.032410 541.947998,544.701843 
	C541.616943,543.932739 541.280396,543.494202 540.943848,543.055664 
	C540.943848,543.055664 540.992126,543.017883 540.967041,542.718018 
	C540.590942,541.967163 540.239929,541.516296 539.888916,541.065369 
	C539.888916,541.065369 539.987000,540.992249 539.958618,540.723389 
	C539.579590,539.994141 539.229065,539.533691 538.878540,539.073242 
	C538.878540,539.073242 538.981384,538.988098 538.971069,538.648376 
	C537.256348,535.592224 535.551941,532.875854 533.847473,530.159424 
	C533.847473,530.159424 533.815491,530.145935 533.797974,530.151001 
z"/>
<path fill="#102CC8" opacity="1.000000" stroke="none" 
	d="
M481.401398,563.573242 
	C476.690369,562.862549 471.646057,562.183105 466.838196,560.724304 
	C462.559937,559.426208 460.464722,560.542175 459.859741,564.861877 
	C459.357513,568.447693 458.798492,572.025452 458.284271,575.609680 
	C456.178619,590.285706 454.157867,604.974548 451.954926,619.635986 
	C450.216370,631.206726 448.089874,642.721069 446.475830,654.307861 
	C445.803986,659.130554 446.039185,664.077454 445.807892,668.965332 
	C445.754547,670.093140 445.837830,671.471375 445.243927,672.287170 
	C442.728333,675.742737 443.158356,679.412170 443.700806,683.441406 
	C441.603333,681.465576 439.804993,679.230896 438.006653,676.996216 
	C434.539246,670.461365 430.995728,663.965576 427.624573,657.381409 
	C423.786987,649.886230 419.948029,642.384583 416.393951,634.753296 
	C412.421539,626.223755 408.640747,617.598572 405.027649,608.910645 
	C403.093353,604.259460 400.800568,599.482056 400.285217,594.591370 
	C399.740417,589.421509 400.972595,584.029053 401.719299,578.775085 
	C402.038361,576.530029 403.093994,574.389587 403.775177,572.322205 
	C402.434479,571.180237 401.308899,570.221497 400.183289,569.262695 
	C401.428284,568.349182 402.670105,567.431335 403.919006,566.523254 
	C405.788544,565.163879 407.663055,563.811340 409.322662,562.239441 
	C433.289429,553.204346 457.319550,553.052673 481.401398,563.573242 
z"/>
<path fill="#FA2366" opacity="1.000000" stroke="none" 
	d="
M613.010193,468.991852 
	C619.579590,476.454773 626.148987,483.917694 632.862671,492.047058 
	C633.670471,493.476196 634.334045,494.238892 634.997559,495.001556 
	C635.645630,495.787445 636.293701,496.573334 636.719666,497.884888 
	C638.072815,502.842255 639.800110,507.228058 641.156982,511.725616 
	C641.802612,513.865417 642.390625,516.373657 641.892639,518.448059 
	C639.470764,528.535889 636.053467,538.421326 634.211670,548.599792 
	C632.840210,556.178894 633.375854,564.097839 632.972107,571.860779 
	C632.870544,573.813782 632.499451,575.763733 632.121521,577.689453 
	C630.798889,584.427063 628.218323,591.190857 628.426392,597.872742 
	C628.605347,603.616882 625.732788,608.062744 624.916077,613.260132 
	C624.246155,617.523071 625.797729,622.269653 630.127502,622.958435 
	C638.329651,624.263367 646.471680,624.971497 654.683350,622.391724 
	C658.050049,621.334167 661.838257,621.618164 665.434692,621.291931 
	C648.697144,626.852356 631.772278,627.300110 614.109070,622.761841 
	C612.726929,622.252625 611.914673,622.133362 611.102417,622.014038 
	C611.102417,622.014038 611.002014,622.063110 610.779175,621.752563 
	C609.925293,621.352966 609.294250,621.263916 608.663269,621.174805 
	C608.663269,621.174805 608.290405,621.224731 607.943665,620.847534 
	C606.751404,620.321838 605.905945,620.173340 605.060425,620.024780 
	C604.476501,619.888916 603.892639,619.753113 602.948486,619.064331 
	C601.234497,618.073242 599.880798,617.635132 598.527100,617.197021 
	C598.527100,617.197021 598.210999,617.233582 597.922363,616.868652 
	C597.246460,616.399658 596.859192,616.295471 596.471924,616.191284 
	C596.471924,616.191284 596.185181,616.254700 595.993408,615.873779 
	C595.528320,614.994080 595.254883,614.495422 595.034668,613.605042 
	C595.162354,611.293640 595.294922,609.374084 595.297607,607.454346 
	C595.301575,604.636902 594.434326,601.547729 595.305481,599.051392 
	C598.222473,590.692627 596.676147,581.835938 599.501038,573.224854 
	C602.734497,563.367981 602.692261,552.426941 603.986633,541.946350 
	C605.059692,533.257996 604.767334,524.176453 607.277222,515.938538 
	C611.981445,500.498932 611.841919,484.720093 613.010193,468.991852 
z"/>
<path fill="#223FD8" opacity="1.000000" stroke="none" 
	d="
M484.003662,727.996643 
	C484.535828,722.903137 485.077362,717.810669 485.594788,712.715637 
	C485.762024,711.068970 486.373108,709.256653 485.913452,707.792542 
	C483.556915,700.287170 487.615662,693.994202 489.250885,687.191711 
	C490.937500,680.175476 491.847137,672.967346 492.985596,665.825500 
	C495.112244,652.484375 493.346954,638.634277 498.501404,625.651550 
	C499.686615,622.666260 499.512939,619.146301 499.998810,615.877502 
	C500.940460,609.542358 501.774719,603.186951 502.917847,596.887939 
	C503.490601,593.731750 504.451355,590.780884 501.120148,588.475708 
	C500.484589,588.035828 500.388336,586.816528 500.023010,585.906311 
	C505.862091,584.704590 511.411194,587.665894 514.055115,592.293701 
	C516.031494,595.753052 518.880859,598.713562 521.687622,601.950195 
	C525.059082,607.689514 528.084290,613.374817 531.073853,619.842346 
	C530.110229,624.625183 528.947571,628.588196 528.298889,632.633606 
	C526.420715,644.345459 524.775024,656.094482 522.987549,667.821167 
	C521.770508,675.805237 520.483093,683.778625 519.200256,691.752502 
	C518.153992,698.256104 516.978455,704.740173 516.022217,711.256714 
	C514.848511,719.255066 513.862488,727.280701 512.757080,735.289307 
	C512.217712,739.196960 511.591705,743.092529 510.653381,746.961304 
	C508.530487,745.956360 506.759125,744.983643 504.675964,743.872925 
	C497.577332,738.488770 490.790497,733.242737 484.003662,727.996643 
z"/>
<path fill="#F91768" opacity="1.000000" stroke="none" 
	d="
M665.714050,621.310730 
	C661.838257,621.618164 658.050049,621.334167 654.683350,622.391724 
	C646.471680,624.971497 638.329651,624.263367 630.127502,622.958435 
	C625.797729,622.269653 624.246155,617.523071 624.916077,613.260132 
	C625.732788,608.062744 628.605347,603.616882 628.426392,597.872742 
	C628.218323,591.190857 630.798889,584.427063 632.121521,577.689453 
	C632.499451,575.763733 632.870544,573.813782 632.972107,571.860779 
	C633.375854,564.097839 632.840210,556.178894 634.211670,548.599792 
	C636.053467,538.421326 639.470764,528.535889 641.892639,518.448059 
	C642.390625,516.373657 641.802612,513.865417 641.156982,511.725616 
	C639.800110,507.228058 638.072815,502.842255 636.747559,498.205383 
	C640.056763,502.239410 643.504150,506.254089 646.108276,510.756531 
	C657.662292,530.732910 668.184387,551.180359 675.710266,573.127563 
	C679.354736,583.755676 681.118591,594.463318 680.949402,605.563049 
	C680.881714,610.003784 682.013611,612.756531 687.527222,612.012329 
	C684.654358,613.738586 681.364502,615.438354 677.365356,617.117493 
	C676.094299,617.447205 675.532593,617.797607 674.970947,618.147949 
	C674.039185,618.531555 673.107483,618.915222 671.497925,619.209656 
	C669.555481,619.721191 668.290771,620.321899 667.026123,620.922668 
	C666.681885,621.058289 666.337646,621.193909 665.714050,621.310730 
z"/>
<path fill="#FB655E" opacity="1.000000" stroke="none" 
	d="
M430.549377,411.920105 
	C435.412018,411.542358 440.047455,411.848572 444.285461,410.694763 
	C450.595428,408.976990 456.017029,409.737427 458.565704,413.947784 
	C458.984650,414.639862 459.715149,415.427643 459.635834,416.091705 
	C459.052124,420.978241 458.483704,425.880005 457.556000,430.708893 
	C456.195587,437.790131 454.319397,444.776459 453.088318,451.876984 
	C452.280609,456.535492 452.373749,461.345795 451.696808,466.035217 
	C451.569153,466.919525 449.713470,467.554352 448.394745,468.524994 
	C439.374695,467.509552 430.615021,466.273438 421.103821,464.686859 
	C412.380096,464.223206 404.376740,463.633484 396.445953,464.152771 
	C390.468628,464.544128 384.603210,466.468170 378.647461,467.468781 
	C376.815735,467.776520 374.398254,467.910431 373.093231,466.962067 
	C372.100983,466.240997 372.206329,463.675873 372.244781,461.940552 
	C372.321472,458.482452 373.759521,454.635498 372.667419,451.675110 
	C371.256836,447.851349 371.094818,445.342285 375.303467,443.100037 
	C373.296936,441.888855 371.855743,441.018921 370.337372,440.102417 
	C372.105927,438.822784 373.662506,437.696564 375.219055,436.570343 
	C374.962830,436.081299 374.706604,435.592224 374.450378,435.103180 
	C372.934570,435.629425 371.391785,436.089874 369.909027,436.696899 
	C367.501740,437.682434 365.133728,438.763916 362.749146,439.804901 
	C368.611176,436.221802 374.181427,431.989136 380.398529,429.196594 
	C391.818359,424.067078 403.619263,419.785889 415.633911,415.089539 
	C420.719147,414.002289 425.431763,412.976593 430.549377,411.920105 
z"/>
<path fill="#2947DC" opacity="1.000000" stroke="none" 
	d="
M511.004883,746.993591 
	C511.591705,743.092529 512.217712,739.196960 512.757080,735.289307 
	C513.862488,727.280701 514.848511,719.255066 516.022217,711.256714 
	C516.978455,704.740173 518.153992,698.256104 519.200256,691.752502 
	C520.483093,683.778625 521.770508,675.805237 522.987549,667.821167 
	C524.775024,656.094482 526.420715,644.345459 528.298889,632.633606 
	C528.947571,628.588196 530.110229,624.625183 531.074219,620.206665 
	C534.372620,626.281067 537.301880,632.968933 540.973694,639.220703 
	C546.754944,649.064148 553.035645,658.614258 558.658813,668.709656 
	C557.670349,670.833191 556.853943,672.501404 556.636169,674.244324 
	C555.927551,679.916687 555.949097,685.727295 554.744141,691.279480 
	C552.920288,699.683105 550.276672,707.907593 548.054504,716.227722 
	C547.806213,717.157593 547.648376,718.453247 548.098022,719.174255 
	C552.088379,725.573853 547.149414,731.646301 547.556091,737.877991 
	C548.107727,746.332031 540.933533,753.717957 544.180176,762.535461 
	C544.222595,762.650696 544.067688,762.838623 543.629883,762.956299 
	C532.504944,757.611145 521.754883,752.302368 511.004883,746.993591 
z"/>
<path fill="#5776F8" opacity="1.000000" stroke="none" 
	d="
M714.829346,708.547424 
	C735.766785,700.557251 754.753479,689.401489 770.180847,672.972717 
	C804.010803,636.946777 816.710571,594.405457 808.626709,545.655579 
	C808.490906,544.836853 808.319397,544.022949 808.214172,543.200500 
	C808.132019,542.558655 808.127075,541.906921 808.302124,541.281921 
	C822.562805,599.337402 816.249878,655.134277 789.385010,708.510010 
	C790.116577,704.982117 790.281799,702.068665 786.943848,699.589050 
	C785.003174,698.147400 783.922607,695.849792 786.929016,693.908142 
	C787.392273,693.609009 787.816345,692.829590 787.805176,692.281433 
	C787.711548,687.677124 787.511963,683.075012 787.343445,678.446472 
	C779.096558,682.883179 775.419739,692.280518 768.907349,699.040588 
	C764.668152,703.440918 760.887207,708.289978 756.565552,712.601807 
	C751.568420,717.587646 746.203064,722.204407 740.686218,727.122864 
	C739.276917,727.983643 738.176941,728.699890 737.081360,729.422791 
	C729.721130,734.278625 722.362000,739.135864 714.857056,743.667603 
	C713.872925,741.207886 712.243835,739.032715 712.350647,736.946472 
	C712.619568,731.691833 713.685303,726.479065 714.402954,721.245667 
	C714.720825,718.927185 714.166016,715.925537 715.425720,714.423645 
	C717.655029,711.765686 716.365906,710.354431 714.829346,708.547424 
z"/>
<path fill="#3250E2" opacity="1.000000" stroke="none" 
	d="
M544.004883,762.992676 
	C544.067688,762.838623 544.222595,762.650696 544.180176,762.535461 
	C540.933533,753.717957 548.107727,746.332031 547.556091,737.877991 
	C547.149414,731.646301 552.088379,725.573853 548.098022,719.174255 
	C547.648376,718.453247 547.806213,717.157593 548.054504,716.227722 
	C550.276672,707.907593 552.920288,699.683105 554.744141,691.279480 
	C555.949097,685.727295 555.927551,679.916687 556.636169,674.244324 
	C556.853943,672.501404 557.670349,670.833191 558.565430,669.063965 
	C574.459473,683.590576 590.874390,696.936401 610.520996,705.646606 
	C605.333557,704.717651 600.394592,703.455688 595.173767,702.121765 
	C595.504211,704.887085 596.163574,706.899292 595.901978,708.783630 
	C594.157349,721.352783 592.139587,733.883789 590.364929,746.449036 
	C589.117737,755.279846 588.114563,764.145203 586.570068,773.000000 
	C584.196411,772.750916 582.232056,772.611145 580.317749,772.223816 
	C570.208923,770.178406 560.112793,768.070618 549.801941,765.722168 
	C547.729431,764.637512 545.867126,763.815063 544.004883,762.992676 
z"/>
<path fill="#1A37D0" opacity="1.000000" stroke="none" 
	d="
M543.629944,762.956299 
	C545.867126,763.815063 547.729431,764.637512 549.747009,766.131714 
	C548.601562,775.558105 547.379089,784.325562 545.952515,793.059692 
	C545.521362,795.699646 544.378967,798.216125 543.818726,800.843872 
	C542.796509,805.639282 541.742676,810.447021 541.121643,815.303284 
	C540.569031,819.624695 540.671204,824.026001 540.310608,828.377625 
	C540.142212,830.410217 539.563599,832.408813 539.264038,833.945312 
	C542.770142,835.471069 545.554810,837.247375 548.572998,837.845703 
	C551.935547,838.512329 555.541809,837.852905 558.979980,838.275391 
	C560.720947,838.489258 562.325256,839.814636 563.991394,840.637451 
	C562.506653,840.598389 561.021973,840.559387 558.992188,840.286133 
	C558.251282,840.007080 558.056580,840.011780 557.863037,840.066223 
	C538.537109,839.555481 519.908081,835.286499 501.227539,829.005249 
	C493.779602,823.437805 492.057892,816.945190 493.768921,808.442627 
	C496.103119,796.843506 497.111786,784.984436 499.092834,773.305359 
	C500.757812,763.489685 503.000732,753.772034 504.987793,744.010986 
	C506.759125,744.983643 508.530487,745.956360 510.653351,746.961304 
	C521.754883,752.302368 532.504944,757.611145 543.629944,762.956299 
z"/>
<path fill="#102CC8" opacity="1.000000" stroke="none" 
	d="
M504.675964,743.872925 
	C503.000732,753.772034 500.757812,763.489685 499.092834,773.305359 
	C497.111786,784.984436 496.103119,796.843506 493.768921,808.442627 
	C492.057892,816.945190 493.779602,823.437805 500.976349,828.742737 
	C489.194427,824.336731 477.353516,819.576050 465.234772,814.352051 
	C464.648468,813.862183 464.340057,813.835571 464.031616,813.809021 
	C464.031616,813.809021 463.547211,813.842346 463.547211,813.842346 
	C463.547211,813.842346 463.124084,813.604187 462.890686,813.105591 
	C462.084900,812.422546 461.512543,812.238098 460.940186,812.053711 
	C460.940186,812.053711 461.006927,812.015930 460.921753,811.652039 
	C459.691071,810.890564 458.545563,810.492981 457.400085,810.095398 
	C457.400085,810.095398 457.163879,810.178467 457.088776,810.078369 
	C456.757263,809.182007 456.500854,808.385681 456.068481,806.951660 
	C454.927887,805.877930 453.963257,805.441833 452.998627,805.005737 
	C452.675507,804.902771 452.414642,804.713806 452.175476,803.858398 
	C453.626678,802.541199 455.118439,801.804565 456.599792,801.073120 
	C456.060699,799.595337 455.041077,798.186707 455.155518,796.877136 
	C455.686920,790.796082 456.335602,784.710754 457.306152,778.685608 
	C459.421112,765.556580 461.935455,752.490417 463.940369,739.345764 
	C465.273163,730.607849 466.007355,721.778625 467.009491,712.990234 
	C469.078064,714.796082 471.170624,716.575317 473.209839,718.413696 
	C476.624329,721.492065 480.004791,724.608215 483.701630,727.852539 
	C490.790497,733.242737 497.577332,738.488770 504.675964,743.872925 
z"/>
<path fill="#223FD8" opacity="1.000000" stroke="none" 
	d="
M564.446777,840.756104 
	C562.325256,839.814636 560.720947,838.489258 558.979980,838.275391 
	C555.541809,837.852905 551.935547,838.512329 548.572998,837.845703 
	C545.554810,837.247375 542.770142,835.471069 539.264038,833.945312 
	C539.563599,832.408813 540.142212,830.410217 540.310608,828.377625 
	C540.671204,824.026001 540.569031,819.624695 541.121643,815.303284 
	C541.742676,810.447021 542.796509,805.639282 543.818726,800.843872 
	C544.378967,798.216125 545.521362,795.699646 545.952515,793.059692 
	C547.379089,784.325562 548.601562,775.558105 549.957275,766.393921 
	C560.112793,768.070618 570.208923,770.178406 580.317749,772.223816 
	C582.232056,772.611145 584.196411,772.750916 586.864258,773.126160 
	C588.391479,773.503174 589.192078,773.758911 589.943115,774.418518 
	C588.928223,781.264282 587.942017,787.703125 587.015076,794.150513 
	C586.827393,795.455994 587.212952,796.936035 586.741394,798.094177 
	C582.599976,808.264648 583.046387,819.100708 581.982300,829.715637 
	C581.334351,836.178833 582.997437,837.865356 589.705811,838.029541 
	C595.119202,838.162109 600.526733,838.528809 605.936890,838.791626 
	C592.258667,839.486023 578.580444,840.180420 564.446777,840.756104 
z"/>
<path fill="#F98061" opacity="1.000000" stroke="none" 
	d="
M362.551453,439.825745 
	C365.133728,438.763916 367.501740,437.682434 369.909027,436.696899 
	C371.391785,436.089874 372.934570,435.629425 374.450378,435.103180 
	C374.706604,435.592224 374.962830,436.081299 375.219055,436.570343 
	C373.662506,437.696564 372.105927,438.822784 370.337372,440.102417 
	C371.855743,441.018921 373.296936,441.888855 375.303467,443.100037 
	C371.094818,445.342285 371.256836,447.851349 372.667419,451.675110 
	C373.759521,454.635498 372.321472,458.482452 372.244781,461.940552 
	C372.206329,463.675873 372.100983,466.240997 373.093231,466.962067 
	C374.398254,467.910431 376.815735,467.776520 378.647461,467.468781 
	C384.603210,466.468170 390.468628,464.544128 396.445953,464.152771 
	C404.376740,463.633484 412.380096,464.223206 420.659851,464.609314 
	C403.741669,464.603973 386.709076,466.091705 370.340088,471.760620 
	C316.434814,490.429260 283.781921,527.906555 272.114288,583.661377 
	C270.859802,589.655945 270.503113,595.838440 269.381470,601.973267 
	C268.948364,598.337891 268.863770,594.662964 268.779175,590.988037 
	C268.793945,590.543091 268.808746,590.098083 268.873169,589.080933 
	C268.922821,588.508667 268.843353,588.027893 268.843353,588.027893 
	C271.418518,550.984924 284.609650,518.073669 307.415741,488.902283 
	C308.540009,487.464233 309.622498,485.993469 311.113586,484.166168 
	C311.741333,483.619141 311.906525,483.390778 311.998291,483.109283 
	C312.195343,482.819031 312.392395,482.528778 313.030029,482.011414 
	C313.729401,481.594391 313.896698,481.343475 313.972412,481.031494 
	C313.972412,481.031494 313.976501,480.976807 314.215454,480.878418 
	C314.721710,480.587189 314.878693,480.327545 314.925293,480.001160 
	C314.925293,480.001160 314.936859,479.939514 315.185364,479.850098 
	C315.708984,479.573730 315.867493,479.315247 315.909424,478.985260 
	C315.909424,478.985260 315.925659,478.926422 316.175446,478.841766 
	C316.704010,478.572601 316.862244,478.314240 316.899902,477.982025 
	C316.899902,477.982025 316.906250,477.918945 317.284882,477.907867 
	C319.448059,475.628998 321.232605,473.361206 323.017151,471.093414 
	C324.179108,469.824554 325.341064,468.555695 327.157043,467.145966 
	C329.170563,465.645874 330.530151,464.286713 331.889709,462.927490 
	C331.889679,462.927490 331.926941,462.945679 332.167664,462.851837 
	C332.698944,462.570496 332.865875,462.305206 332.909149,461.962067 
	C332.909149,461.962067 332.939087,461.939087 333.178345,461.848267 
	C333.704803,461.571289 333.872803,461.308807 333.921631,460.969971 
	C333.921631,460.969971 333.951050,460.950867 334.189972,460.856110 
	C334.714233,460.573517 334.895294,460.313110 334.972015,459.980164 
	C335.176849,459.719360 335.381683,459.458527 336.027405,459.001465 
	C336.728882,458.621338 336.909637,458.378113 337.010620,458.075531 
	C337.433777,457.706940 337.856964,457.338379 338.814484,456.866119 
	C339.532928,456.494537 339.717041,456.226593 339.901123,455.958679 
	C339.901123,455.958679 339.928650,455.928162 340.172058,455.839661 
	C340.703339,455.565826 340.873352,455.303986 340.925507,454.965637 
	C340.925507,454.965637 340.954315,454.945312 341.320862,454.953217 
	C342.424286,454.284821 343.161194,453.608521 343.898102,452.932220 
	C343.898102,452.932220 343.935150,452.952972 344.174255,452.855896 
	C344.703491,452.569855 344.871643,452.303772 344.917816,451.960571 
	C344.917816,451.960571 344.945282,451.935089 345.321381,451.948456 
	C347.131378,450.663239 348.565247,449.364624 349.999146,448.066040 
	C349.999146,448.066040 350.003021,448.000854 350.382690,447.999847 
	C351.502472,447.325897 352.242523,446.652924 352.982605,445.979980 
	C352.982605,445.979980 353.000000,446.000000 353.356079,445.996277 
	C354.813782,445.011200 355.915344,444.029846 357.016907,443.048462 
	C357.016937,443.048492 356.999786,443.000000 357.400909,443.008209 
	C359.191986,441.996857 360.581970,440.977295 361.971924,439.957703 
	C361.971924,439.957703 362.353729,439.846588 362.551453,439.825745 
z"/>
<path fill="#2947DC" opacity="1.000000" stroke="none" 
	d="
M606.353760,838.844971 
	C600.526733,838.528809 595.119202,838.162109 589.705811,838.029541 
	C582.997437,837.865356 581.334351,836.178833 581.982300,829.715637 
	C583.046387,819.100708 582.599976,808.264648 586.741394,798.094177 
	C587.212952,796.936035 586.827393,795.455994 587.015076,794.150513 
	C587.942017,787.703125 588.928223,781.264282 590.412598,774.410583 
	C595.391663,773.999817 599.855286,774.113525 604.311096,773.976685 
	C611.866882,773.744629 619.417847,773.354431 627.374451,773.025574 
	C628.851501,773.019531 629.924988,773.018616 630.951904,773.404419 
	C630.215454,777.839172 629.466248,781.878113 628.846313,785.936829 
	C626.702515,799.973572 624.509644,814.004089 622.557312,828.067810 
	C622.099670,831.364441 623.607605,833.345703 627.546692,832.787109 
	C629.398071,832.524536 631.390869,833.259460 633.319580,833.542358 
	C624.469971,835.327637 615.620300,837.112976 606.353760,838.844971 
z"/>
<path fill="#3B59E9" opacity="1.000000" stroke="none" 
	d="
M626.970825,773.030640 
	C619.417847,773.354431 611.866882,773.744629 604.311096,773.976685 
	C599.855286,774.113525 595.391663,773.999817 590.462158,774.006714 
	C589.192078,773.758911 588.391479,773.503174 587.296631,773.121277 
	C588.114563,764.145203 589.117737,755.279846 590.364929,746.449036 
	C592.139587,733.883789 594.157349,721.352783 595.901978,708.783630 
	C596.163574,706.899292 595.504211,704.887085 595.173767,702.121765 
	C600.394592,703.455688 605.333557,704.717651 610.680237,705.959106 
	C611.087891,705.938538 611.561707,705.997314 611.915833,706.264282 
	C612.495972,706.761292 612.768555,706.898743 613.087830,706.943665 
	C613.087830,706.943665 613.558960,706.983704 614.031433,707.292725 
	C615.193054,707.703308 615.882141,707.804810 616.571289,707.906372 
	C623.449707,709.911316 630.328125,711.916260 637.531372,714.341064 
	C634.336304,715.972229 633.513306,718.534363 633.943115,721.984192 
	C634.164062,723.757507 634.196716,725.742432 633.629028,727.396484 
	C628.547302,742.203125 629.813354,757.915161 626.970825,773.030640 
z"/>
<path fill="#3250E2" opacity="1.000000" stroke="none" 
	d="
M633.624207,833.531982 
	C631.390869,833.259460 629.398071,832.524536 627.546692,832.787109 
	C623.607605,833.345703 622.099670,831.364441 622.557312,828.067810 
	C624.509644,814.004089 626.702515,799.973572 628.846313,785.936829 
	C629.466248,781.878113 630.215454,777.839172 631.221436,773.114258 
	C632.678833,772.291992 633.816711,772.106140 634.962097,772.007507 
	C647.013550,770.968872 658.895874,769.196350 670.253601,764.016785 
	C670.502319,764.009583 671.000000,764.000000 671.244751,764.007385 
	C671.489502,764.014771 671.978943,764.029602 671.941284,764.394043 
	C670.934204,770.586792 669.899597,776.405212 669.016968,782.246643 
	C668.354126,786.633545 667.974487,791.063354 667.307129,795.449402 
	C666.641663,799.822937 665.721008,804.157104 665.014465,808.525085 
	C664.527405,811.536194 664.214294,814.575378 663.968811,816.476074 
	C664.439270,819.313904 664.745850,821.163330 665.052429,823.012817 
	C655.612793,826.300293 646.173157,829.587769 636.244141,832.708069 
	C635.502563,832.679688 635.250427,832.818481 634.998291,832.957275 
	C634.641785,833.145386 634.285339,833.333496 633.624207,833.531982 
z"/>
<path fill="#4564F0" opacity="1.000000" stroke="none" 
	d="
M670.004883,764.023987 
	C658.895874,769.196350 647.013550,770.968872 634.962097,772.007507 
	C633.816711,772.106140 632.678833,772.291992 631.267944,772.727478 
	C629.924988,773.018616 628.851501,773.019531 627.374451,773.025513 
	C629.813354,757.915161 628.547302,742.203125 633.629028,727.396484 
	C634.196716,725.742432 634.164062,723.757507 633.943115,721.984192 
	C633.513306,718.534363 634.336304,715.972229 637.937378,714.390625 
	C660.240112,717.462524 682.345520,717.558044 704.576416,712.083130 
	C704.669434,712.859680 704.519653,713.536621 704.179382,713.652100 
	C696.396301,716.293884 687.982605,716.190491 680.405457,720.530823 
	C677.209839,722.361328 675.516174,723.807983 675.068970,726.935974 
	C673.303223,739.287537 671.680542,751.659546 670.004883,764.023987 
z"/>
<path fill="#4D6CF5" opacity="1.000000" stroke="none" 
	d="
M740.997620,726.981445 
	C746.203064,722.204407 751.568420,717.587646 756.565552,712.601807 
	C760.887207,708.289978 764.668152,703.440918 768.907349,699.040588 
	C775.419739,692.280518 779.096558,682.883179 787.343445,678.446472 
	C787.511963,683.075012 787.711548,687.677124 787.805176,692.281433 
	C787.816345,692.829590 787.392273,693.609009 786.929016,693.908142 
	C783.922607,695.849792 785.003174,698.147400 786.943848,699.589050 
	C790.281799,702.068665 790.116577,704.982117 789.104187,708.706299 
	C789.149048,709.102112 789.122131,709.088135 788.788818,709.203979 
	C787.997742,710.561707 787.539917,711.803650 787.082031,713.045593 
	C787.082092,713.045593 787.001892,713.010742 786.773376,713.177490 
	C786.387573,713.901489 786.230225,714.458740 786.072937,715.015991 
	C786.072937,715.015991 786.040466,715.030151 785.786621,715.186584 
	C785.363892,715.881836 785.194946,716.420715 785.026062,716.959534 
	C785.026062,716.959534 785.039368,717.016541 784.777161,717.164124 
	C784.334595,717.807434 784.154297,718.303223 783.973999,718.798950 
	C783.973999,718.798950 784.024414,718.957336 783.611084,719.041077 
	C782.825134,720.099487 782.452576,721.074219 782.080017,722.048889 
	C782.080017,722.048889 782.000000,722.005676 781.778625,722.165405 
	C781.381226,722.857971 781.205200,723.390808 781.029175,723.923645 
	C781.029114,723.923645 781.048584,724.019775 780.713318,724.166382 
	C779.944763,725.217957 779.511536,726.122864 779.078247,727.027771 
	C779.078247,727.027771 779.033691,727.029175 778.807373,727.156372 
	C778.456726,727.592651 778.332397,727.901733 778.208069,728.210876 
	C778.208069,728.210876 778.105591,728.062622 777.865967,728.224609 
	C777.456360,728.994751 777.286438,729.602905 777.116455,730.211060 
	C767.313721,742.746765 757.510925,755.282471 747.183228,767.682739 
	C742.545166,766.715881 743.417236,769.857544 743.080750,772.035950 
	C743.080750,772.035950 743.046387,772.046021 742.637695,772.037415 
	C741.152710,772.019226 740.076355,772.009644 739.000000,771.605469 
	C738.507812,769.488342 738.030640,767.761292 737.518555,766.044739 
	C737.102173,764.649353 735.838196,762.544495 736.332458,761.993042 
	C740.063354,757.830017 739.198730,753.021667 739.279663,748.107117 
	C739.395813,741.057739 740.382568,734.022583 740.997620,726.981445 
z"/>
<path fill="#3B59E9" opacity="1.000000" stroke="none" 
	d="
M665.415649,823.017822 
	C664.745850,821.163330 664.439270,819.313904 663.968811,816.476074 
	C664.214294,814.575378 664.527405,811.536194 665.014465,808.525085 
	C665.721008,804.157104 666.641663,799.822937 667.307129,795.449402 
	C667.974487,791.063354 668.354126,786.633545 669.016968,782.246643 
	C669.899597,776.405212 670.934204,770.586792 672.241760,764.364380 
	C673.053345,763.648987 673.526733,763.327698 674.386841,762.996582 
	C677.110840,762.194458 679.516541,761.560059 681.773193,760.581787 
	C690.540649,756.781372 699.260681,752.871582 707.998230,749.443726 
	C706.963745,760.845215 705.846252,771.798828 704.977966,782.772217 
	C704.835693,784.569824 705.791260,786.454346 706.290955,788.510742 
	C705.483032,788.510742 704.435181,788.510742 703.833191,788.510742 
	C702.742737,791.656128 701.654846,794.356995 700.906494,797.148926 
	C700.566101,798.418945 700.897705,799.869080 700.924561,801.237549 
	C702.074036,800.944397 703.226562,800.662598 704.372253,800.355286 
	C705.936401,799.935547 707.495300,799.496277 709.056458,799.065430 
	C703.055908,803.078003 697.292725,807.523987 690.986389,810.978455 
	C684.963196,814.277710 678.340271,816.468506 672.053223,819.306519 
	C669.851257,820.300537 667.864136,821.770264 665.415649,823.017822 
z"/>
<path fill="#4564F0" opacity="1.000000" stroke="none" 
	d="
M709.041138,799.052856 
	C707.495300,799.496277 705.936401,799.935547 704.372253,800.355286 
	C703.226562,800.662598 702.074036,800.944397 700.924561,801.237549 
	C700.897705,799.869080 700.566101,798.418945 700.906494,797.148926 
	C701.654846,794.356995 702.742737,791.656128 703.833191,788.510742 
	C704.435181,788.510742 705.483032,788.510742 706.290955,788.510742 
	C705.791260,786.454346 704.835693,784.569824 704.977966,782.772217 
	C705.846252,771.798828 706.963745,760.845215 708.191650,749.171875 
	C710.590820,746.969971 712.796631,745.481323 715.002441,743.992676 
	C722.362000,739.135864 729.721130,734.278625 737.081360,729.422791 
	C738.176941,728.699890 739.276917,727.983643 740.686218,727.122803 
	C740.382568,734.022583 739.395813,741.057739 739.279663,748.107117 
	C739.198730,753.021667 740.063354,757.830017 736.332458,761.993042 
	C735.838196,762.544495 737.102173,764.649353 737.518555,766.044739 
	C738.030640,767.761292 738.507812,769.488342 738.644897,771.570740 
	C737.231201,772.122437 736.172791,772.314270 735.114319,772.506042 
	C735.361816,773.227417 735.609253,773.948853 735.856750,774.670227 
	C736.904480,773.780151 737.952271,772.890076 739.000000,772.000000 
	C740.076355,772.009644 741.152710,772.019226 742.631592,772.054199 
	C732.937927,780.317200 722.841736,788.554810 712.058289,796.908813 
	C710.596619,797.704590 709.822205,798.383911 709.047729,799.063110 
	C709.047729,799.063110 709.025879,799.040344 709.041138,799.052856 
z"/>
<path fill="#4D6CF5" opacity="1.000000" stroke="none" 
	d="
M714.857056,743.667603 
	C712.796631,745.481323 710.590820,746.969971 708.191650,748.730591 
	C699.260681,752.871582 690.540649,756.781372 681.773193,760.581787 
	C679.516541,761.560059 677.110840,762.194458 674.219238,762.758301 
	C672.776672,763.019958 671.888306,763.510010 671.000000,764.000000 
	C671.000000,764.000000 670.502319,764.009583 670.253601,764.016785 
	C671.680542,751.659546 673.303223,739.287537 675.068970,726.935974 
	C675.516174,723.807983 677.209839,722.361328 680.405457,720.530823 
	C687.982605,716.190491 696.396301,716.293884 704.179382,713.652100 
	C704.519653,713.536621 704.669434,712.859680 704.930786,712.105774 
	C705.122925,711.629333 705.292114,711.491333 706.053345,711.538452 
	C708.380859,711.495117 710.116455,711.266602 711.851990,711.038025 
	C711.591064,710.693848 711.330200,710.349609 711.069275,710.005432 
	C712.099670,709.574280 713.130127,709.143188 714.494934,708.629761 
	C716.365906,710.354431 717.655029,711.765686 715.425720,714.423645 
	C714.166016,715.925537 714.720825,718.927185 714.402954,721.245667 
	C713.685303,726.479065 712.619568,731.691833 712.350647,736.946472 
	C712.243835,739.032715 713.872925,741.207886 714.857056,743.667603 
z"/>
<path fill="#FA4A61" opacity="1.000000" stroke="none" 
	d="
M268.513184,591.091431 
	C268.863770,594.662964 268.948364,598.337891 269.186432,602.338257 
	C269.430695,606.190308 269.521454,609.716919 269.445740,613.775879 
	C269.196930,614.569763 269.278992,614.753052 269.525421,614.858154 
	C269.588013,615.370605 269.650604,615.883118 269.434998,616.875854 
	C268.797180,617.641052 268.437561,617.925903 268.077942,618.210815 
	C267.122925,608.177124 266.167908,598.143433 265.336548,587.694458 
	C266.389160,588.584473 267.318176,589.889648 268.513184,591.091431 
z"/>
<path fill="#FA4A61" opacity="1.000000" stroke="none" 
	d="
M282.422302,492.314819 
	C280.272217,499.682129 277.861511,507.223999 275.477753,514.774353 
	C274.780762,516.982056 274.160614,519.213928 273.270569,521.586304 
	C276.081268,511.989380 279.126587,502.240997 282.422302,492.314819 
z"/>
<path fill="#F98061" opacity="1.000000" stroke="none" 
	d="
M268.035950,618.609314 
	C268.437561,617.925903 268.797180,617.641052 269.359985,617.257935 
	C270.146057,621.354675 270.728882,625.549561 271.311737,629.744507 
	C270.904694,629.824646 270.497650,629.904785 270.090607,629.984924 
	C269.391724,626.325867 268.692841,622.666870 268.035950,618.609314 
z"/>
<path fill="#FA4A61" opacity="1.000000" stroke="none" 
	d="
M272.034973,524.631470 
	C271.267975,529.551697 270.306366,534.748596 269.163086,540.215637 
	C269.934418,535.293213 270.887360,530.100769 272.034973,524.631470 
z"/>
<path fill="#FA4A61" opacity="1.000000" stroke="none" 
	d="
M266.440430,558.323242 
	C266.400391,562.309937 266.160736,566.586853 265.785767,571.131836 
	C265.847198,567.137695 266.043976,562.875549 266.440430,558.323242 
z"/>
<path fill="#FA4A61" opacity="1.000000" stroke="none" 
	d="
M533.905029,530.504028 
	C535.551941,532.875854 537.256348,535.592224 538.925232,538.695679 
	C537.247253,536.337952 535.604919,533.593262 533.905029,530.504028 
z"/>
<path fill="#FA3C63" opacity="1.000000" stroke="none" 
	d="
M588.933655,612.083496 
	C586.328735,610.318909 583.723877,608.554382 581.035278,606.416748 
	C580.951599,606.043701 581.075989,605.892151 581.436523,605.930298 
	C584.244446,607.929016 586.691833,609.889587 589.087219,611.907959 
	C589.035278,611.965820 588.933655,612.083496 588.933655,612.083496 
z"/>
<path fill="#FB655E" opacity="1.000000" stroke="none" 
	d="
M454.169067,470.360657 
	C454.658600,469.456696 455.355804,468.817474 456.053040,468.178284 
	C456.778900,469.070953 457.504791,469.963593 457.944122,471.040558 
	C456.563965,471.025055 455.470367,470.825226 454.169067,470.360657 
z"/>
<path fill="#4564F0" opacity="1.000000" stroke="none" 
	d="
M743.382568,771.937134 
	C743.417236,769.857544 742.545166,766.715881 746.877197,767.817261 
	C745.958984,769.337585 744.821716,770.588013 743.382568,771.937134 
z"/>
<path fill="#FA3C63" opacity="1.000000" stroke="none" 
	d="
M594.981445,613.996765 
	C595.254883,614.495422 595.528320,614.994080 595.900757,615.759888 
	C593.780457,614.890015 591.561096,613.753052 589.137695,612.349792 
	C588.933655,612.083496 589.035278,611.965820 589.447388,611.956299 
	C591.566833,612.630127 593.274109,613.313416 594.981445,613.996765 
z"/>
<path fill="#4564F0" opacity="1.000000" stroke="none" 
	d="
M710.697571,709.993164 
	C711.330200,710.349609 711.591064,710.693848 711.851990,711.038025 
	C710.116455,711.266602 708.380859,711.495117 706.379822,711.511780 
	C707.518127,710.860229 708.921997,710.420532 710.697571,709.993164 
z"/>
<path fill="#FA4A61" opacity="1.000000" stroke="none" 
	d="
M268.374207,543.117188 
	C268.537140,544.392334 268.495392,545.905823 268.190796,547.544800 
	C268.008484,546.231995 268.088989,544.793701 268.374207,543.117188 
z"/>
<path fill="#FA4A61" opacity="1.000000" stroke="none" 
	d="
M267.076904,551.604370 
	C267.149719,552.590820 267.069305,553.802368 266.923920,555.272461 
	C266.880524,554.297180 266.902100,553.063293 267.076904,551.604370 
z"/>
<path fill="#5776F8" opacity="1.000000" stroke="none" 
	d="
M787.362488,712.872864 
	C787.539917,711.803650 787.997742,710.561707 788.786560,709.197144 
	C788.626038,710.283081 788.134460,711.491577 787.362488,712.872864 
z"/>
<path fill="#FA3C63" opacity="1.000000" stroke="none" 
	d="
M598.741333,617.485596 
	C599.880798,617.635132 601.234497,618.073242 602.752563,618.829529 
	C601.596497,618.689941 600.276062,618.232117 598.741333,617.485596 
z"/>
<path fill="#FA2366" opacity="1.000000" stroke="none" 
	d="
M667.382202,620.953125 
	C668.290771,620.321899 669.555481,619.721191 671.191833,619.157532 
	C670.288452,619.790955 669.013367,620.387268 667.382202,620.953125 
z"/>
<path fill="#021DBC" opacity="1.000000" stroke="none" 
	d="
M457.594543,810.390259 
	C458.545563,810.492981 459.691071,810.890564 460.891846,811.677734 
	C459.894409,811.606567 458.841675,811.145874 457.594543,810.390259 
z"/>
<path fill="#5776F8" opacity="1.000000" stroke="none" 
	d="
M782.343384,721.890808 
	C782.452576,721.074219 782.825134,720.099487 783.534851,719.074097 
	C783.450195,719.926575 783.028442,720.829651 782.343384,721.890808 
z"/>
<path fill="#3B59E9" opacity="1.000000" stroke="none" 
	d="
M709.384460,799.037109 
	C709.822205,798.383911 710.596619,797.704590 711.736389,797.032471 
	C711.308228,797.696777 710.514648,798.353943 709.384460,799.037109 
z"/>
<path fill="#F91768" opacity="1.000000" stroke="none" 
	d="
M715.384827,588.962646 
	C715.601379,588.113770 716.104370,587.128296 716.989746,586.156616 
	C716.805176,587.055603 716.238220,587.940796 715.384827,588.962646 
z"/>
<path fill="#5776F8" opacity="1.000000" stroke="none" 
	d="
M779.344849,726.876709 
	C779.511536,726.122864 779.944763,725.217957 780.667480,724.183960 
	C780.508423,724.945190 780.059937,725.835449 779.344849,726.876709 
z"/>
<path fill="#FA3C63" opacity="1.000000" stroke="none" 
	d="
M605.279785,620.261230 
	C605.905945,620.173340 606.751404,620.321838 607.793091,620.734802 
	C607.159241,620.832031 606.329224,620.664856 605.279785,620.261230 
z"/>
<path fill="#FA4A61" opacity="1.000000" stroke="none" 
	d="
M265.227173,579.693604 
	C265.413361,580.098022 265.494263,580.767639 265.374146,581.548584 
	C265.156036,581.092834 265.138947,580.525818 265.227173,579.693604 
z"/>
<path fill="#FA3C63" opacity="1.000000" stroke="none" 
	d="
M611.329346,622.223999 
	C611.914673,622.133362 612.726929,622.252625 613.743408,622.609253 
	C613.150452,622.709106 612.353394,622.571533 611.329346,622.223999 
z"/>
<path fill="#5776F8" opacity="1.000000" stroke="none" 
	d="
M781.275879,723.779053 
	C781.205200,723.390808 781.381226,722.857971 781.816162,722.191895 
	C781.890930,722.583923 781.706726,723.109192 781.275879,723.779053 
z"/>
<path fill="#5776F8" opacity="1.000000" stroke="none" 
	d="
M784.215332,718.669250 
	C784.154297,718.303223 784.334595,717.807434 784.750854,717.177002 
	C784.809998,717.541321 784.633301,718.040466 784.215332,718.669250 
z"/>
<path fill="#5776F8" opacity="1.000000" stroke="none" 
	d="
M785.266846,716.804077 
	C785.194946,716.420715 785.363892,715.881836 785.789307,715.204102 
	C785.866455,715.593018 785.687073,716.120789 785.266846,716.804077 
z"/>
<path fill="#5776F8" opacity="1.000000" stroke="none" 
	d="
M786.324768,714.863892 
	C786.230225,714.458740 786.387573,713.901489 786.809692,713.202515 
	C786.908569,713.611084 786.742554,714.161438 786.324768,714.863892 
z"/>
<path fill="#FA4A61" opacity="1.000000" stroke="none" 
	d="
M538.871826,539.378662 
	C539.229065,539.533691 539.579590,539.994141 539.915833,540.766602 
	C539.556030,540.613831 539.210571,540.148987 538.871826,539.378662 
z"/>
<path fill="#FA4A61" opacity="1.000000" stroke="none" 
	d="
M539.892090,541.363770 
	C540.239929,541.516296 540.590942,541.967163 540.937256,542.724487 
	C540.586792,542.574707 540.241089,542.118469 539.892090,541.363770 
z"/>
<path fill="#3250E2" opacity="1.000000" stroke="none" 
	d="
M616.346680,707.614746 
	C615.882141,707.804810 615.193054,707.703308 614.261230,707.348328 
	C614.719666,707.171021 615.420898,707.247131 616.346680,707.614746 
z"/>
<path fill="#FA4A61" opacity="1.000000" stroke="none" 
	d="
M540.942139,543.346802 
	C541.280396,543.494202 541.616943,543.932739 541.953430,544.665283 
	C541.615723,544.518799 541.278076,544.078430 540.942139,543.346802 
z"/>
<path fill="#FA4A61" opacity="1.000000" stroke="none" 
	d="
M543.010315,547.298401 
	C543.343933,547.453552 543.657715,547.895203 543.981445,548.620117 
	C543.657776,548.463867 543.324097,548.024353 543.010315,547.298401 
z"/>
<path fill="#021DBC" opacity="1.000000" stroke="none" 
	d="
M461.094482,812.313721 
	C461.512543,812.238098 462.084900,812.422546 462.797363,812.881470 
	C462.374573,812.961853 461.811707,812.767822 461.094482,812.313721 
z"/>
<path fill="#FA3C63" opacity="1.000000" stroke="none" 
	d="
M608.874451,621.418457 
	C609.294250,621.263916 609.925293,621.352966 610.746460,621.707275 
	C610.319580,621.869019 609.702637,621.765564 608.874451,621.418457 
z"/>
<path fill="#5776F8" opacity="1.000000" stroke="none" 
	d="
M777.370361,730.037537 
	C777.286438,729.602905 777.456360,728.994751 777.939453,728.276733 
	C778.043091,728.732605 777.833679,729.298279 777.370361,730.037537 
z"/>
<path fill="#FA2366" opacity="1.000000" stroke="none" 
	d="
M675.310608,618.150269 
	C675.532593,617.797607 676.094299,617.447205 677.009399,617.128540 
	C676.792053,617.491089 676.221130,617.821899 675.310608,618.150269 
z"/>
<path fill="#223FD8" opacity="1.000000" stroke="none" 
	d="
M557.981934,840.208069 
	C558.056580,840.011780 558.251282,840.007080 558.586060,840.098145 
	C558.724915,840.144348 558.464783,840.404541 558.464783,840.404541 
	C558.464783,840.404541 558.100769,840.349915 557.981934,840.208069 
z"/>
<path fill="#021DBC" opacity="1.000000" stroke="none" 
	d="
M464.279175,813.988037 
	C464.340057,813.835571 464.648468,813.862183 465.042572,814.081543 
	C464.927734,814.238647 464.727234,814.202881 464.279175,813.988037 
z"/>
<path fill="#2947DC" opacity="1.000000" stroke="none" 
	d="
M635.249512,832.988525 
	C635.250427,832.818481 635.502563,832.679688 635.859741,832.679077 
	C635.810059,832.884766 635.655396,832.952271 635.249512,832.988525 
z"/>
<path fill="#FA3C63" opacity="1.000000" stroke="none" 
	d="
M596.642334,616.453003 
	C596.859192,616.295471 597.246460,616.399658 597.814453,616.751831 
	C597.601013,616.904724 597.206848,616.809692 596.642334,616.453003 
z"/>
<path fill="#5776F8" opacity="1.000000" stroke="none" 
	d="
M778.457886,728.123779 
	C778.332397,727.901733 778.456726,727.592651 778.816589,727.176636 
	C778.937317,727.392090 778.822571,727.714355 778.457886,728.123779 
z"/>
<path fill="#3250E2" opacity="1.000000" stroke="none" 
	d="
M612.994446,706.697510 
	C612.768555,706.898743 612.495972,706.761292 612.143677,706.335693 
	C612.311890,706.243835 612.606506,706.347595 612.994446,706.697510 
z"/>
<path fill="#FA4A61" opacity="1.000000" stroke="none" 
	d="
M542.027161,545.353027 
	C542.270203,545.329102 542.530701,545.594971 542.816467,546.150818 
	C542.575989,546.174866 542.310242,545.908936 542.027161,545.353027 
z"/>
<path fill="#FA4A61" opacity="1.000000" stroke="none" 
	d="
M544.051270,549.342651 
	C544.298096,549.328735 544.549255,549.610413 544.822327,550.186279 
	C544.581299,550.199768 544.318420,549.919006 544.051270,549.342651 
z"/>
<path fill="#F91768" opacity="1.000000" stroke="none" 
	d="
M707.256104,597.780090 
	C707.094971,597.535522 707.233276,597.325745 707.645874,597.114136 
	C707.856140,597.363342 707.734619,597.597534 707.256104,597.780090 
z"/>
<path fill="#FA3C63" opacity="1.000000" stroke="none" 
	d="
M580.885010,606.115723 
	C580.558655,605.989868 580.298828,605.791992 579.963623,605.353394 
	C579.888245,605.112610 579.993286,605.014404 580.245117,605.092957 
	C580.742249,605.369751 580.935242,605.609985 581.075989,605.892151 
	C581.075989,605.892151 580.951599,606.043701 580.885010,606.115723 
z"/>
<path fill="#F98061" opacity="1.000000" stroke="none" 
	d="
M269.609619,614.677124 
	C269.278992,614.753052 269.196930,614.569763 269.369934,614.240112 
	C269.460602,614.171997 269.693848,614.496094 269.609619,614.677124 
z"/>
<path fill="#FB2D64" opacity="1.000000" stroke="none" 
	d="
M581.436523,605.930298 
	C580.935242,605.609985 580.742249,605.369751 580.300537,605.047119 
	C577.471497,601.650146 574.607971,598.533691 572.261169,595.067566 
	C568.890320,590.088867 562.572083,586.752991 563.663818,579.115540 
	C563.887817,577.548767 561.364807,575.711060 560.491211,573.821106 
	C559.945129,572.639709 559.786560,569.993896 560.013977,569.927673 
	C566.274109,568.104187 564.105652,562.429810 564.793579,558.597961 
	C567.057434,545.987915 568.532532,533.236145 570.302368,520.537598 
	C571.872986,509.269043 573.294128,497.977081 575.069275,486.740997 
	C575.723877,482.597870 577.685486,478.643127 578.184753,474.498108 
	C578.842346,469.039276 582.072021,463.694305 579.140320,457.911560 
	C578.621033,456.887268 579.364197,455.009979 579.922058,453.695251 
	C581.230835,450.610260 582.277161,447.975616 578.330078,445.700836 
	C577.029053,444.950989 577.136780,442.069427 575.971619,440.696045 
	C574.323730,438.753845 572.092468,437.306580 570.074219,435.295044 
	C576.215637,438.666168 582.660339,442.019348 588.494812,446.220032 
	C594.120178,450.270203 599.115417,455.195435 604.690308,460.271667 
	C605.555969,465.600006 608.676941,467.887177 613.007629,468.989441 
	C613.007629,468.989441 613.001099,468.998749 613.005615,468.995300 
	C611.841919,484.720093 611.981445,500.498932 607.277222,515.938538 
	C604.767334,524.176453 605.059692,533.257996 603.986633,541.946350 
	C602.692261,552.426941 602.734497,563.367981 599.501038,573.224854 
	C596.676147,581.835938 598.222473,590.692627 595.305481,599.051392 
	C594.434326,601.547729 595.301575,604.636902 595.297607,607.454346 
	C595.294922,609.374084 595.162354,611.293640 595.034668,613.605042 
	C593.274109,613.313416 591.566833,612.630127 589.499329,611.898438 
	C586.691833,609.889587 584.244446,607.929016 581.436523,605.930298 
z"/>
<path fill="#FA2366" opacity="1.000000" stroke="none" 
	d="
M612.972412,468.646606 
	C608.676941,467.887177 605.555969,465.600006 604.988159,460.427704 
	C607.634583,462.800079 610.285828,465.551910 612.972412,468.646606 
z"/>
<path fill="#FA3C63" opacity="1.000000" stroke="none" 
	d="
M530.819458,416.691223 
	C527.076843,415.897156 523.108887,414.824341 519.067749,413.388275 
	C522.861145,414.154175 526.727661,415.283356 530.819458,416.691223 
z"/>
<path fill="#F91768" opacity="1.000000" stroke="none" 
	d="
M634.973145,494.679993 
	C634.334045,494.238892 633.670471,493.476196 633.001038,492.360382 
	C633.646301,492.790985 634.297485,493.574707 634.973145,494.679993 
z"/>
<path fill="#FA3C63" opacity="1.000000" stroke="none" 
	d="
M515.918213,412.674072 
	C515.522766,412.764404 514.935669,412.621429 514.182617,412.215149 
	C514.586670,412.114868 515.156677,412.277832 515.918213,412.674072 
z"/>
<path fill="#0723C1" opacity="1.000000" stroke="none" 
	d="
M466.812195,712.720093 
	C466.007355,721.778625 465.273163,730.607849 463.940369,739.345764 
	C461.935455,752.490417 459.421112,765.556580 457.306152,778.685608 
	C456.335602,784.710754 455.686920,790.796082 455.155518,796.877136 
	C455.041077,798.186707 456.060699,799.595337 456.599792,801.073120 
	C455.118439,801.804565 453.626678,802.541199 452.066833,803.638916 
	C448.291443,801.979675 444.233276,800.402893 440.969666,797.821472 
	C437.271149,794.896179 431.550842,793.881409 430.622559,787.954163 
	C430.563629,787.577698 429.595093,787.119751 429.024628,787.082275 
	C423.955719,786.749695 423.955750,783.380188 424.549835,779.695923 
	C422.446075,778.641785 420.406464,777.619812 417.986938,776.407471 
	C423.770721,770.754272 423.891602,763.520691 424.993591,756.615601 
	C426.522491,747.035278 428.096893,737.461487 429.519104,727.865234 
	C430.773987,719.398132 431.943237,710.915771 432.969849,702.418274 
	C433.800201,695.545593 434.237732,688.624023 435.142731,681.762878 
	C435.334991,680.305420 436.797119,679.015442 437.840424,677.322266 
	C439.804993,679.230896 441.603333,681.465576 443.702332,683.848877 
	C451.540253,693.481689 459.077545,702.965759 466.812195,712.720093 
z"/>
<path fill="#0723C1" opacity="1.000000" stroke="none" 
	d="
M453.139404,805.294312 
	C453.963257,805.441833 454.927887,805.877930 455.942291,806.659424 
	C455.088104,806.530884 454.184143,806.056885 453.139404,805.294312 
z"/>
<path fill="#FB655E" opacity="1.000000" stroke="none" 
	d="
M322.704895,471.199463 
	C321.232605,473.361206 319.448059,475.628998 317.312378,477.892090 
	C318.771698,475.693420 320.582153,473.499451 322.704895,471.199463 
z"/>
<path fill="#FB655E" opacity="1.000000" stroke="none" 
	d="
M349.666870,448.075623 
	C348.565247,449.364624 347.131378,450.663239 345.332031,451.933044 
	C346.422577,450.631226 347.878601,449.358185 349.666870,448.075623 
z"/>
<path fill="#FB655E" opacity="1.000000" stroke="none" 
	d="
M331.563446,462.963867 
	C330.530151,464.286713 329.170563,465.645874 327.455048,467.015686 
	C328.478455,465.684235 329.857819,464.342194 331.563446,462.963867 
z"/>
<path fill="#FB655E" opacity="1.000000" stroke="none" 
	d="
M361.637421,439.986267 
	C360.581970,440.977295 359.191986,441.996857 357.424316,443.018860 
	C358.465363,442.019135 359.884125,441.016968 361.637421,439.986267 
z"/>
<path fill="#FB655E" opacity="1.000000" stroke="none" 
	d="
M356.687012,443.057129 
	C355.915344,444.029846 354.813782,445.011200 353.348114,445.987152 
	C354.108429,445.009766 355.232788,444.037781 356.687012,443.057129 
z"/>
<path fill="#FB655E" opacity="1.000000" stroke="none" 
	d="
M343.585693,452.955139 
	C343.161194,453.608521 342.424286,454.284821 341.329742,454.937988 
	C341.739166,454.269287 342.506226,453.623688 343.585693,452.955139 
z"/>
<path fill="#FB655E" opacity="1.000000" stroke="none" 
	d="
M352.663300,446.000122 
	C352.242523,446.652924 351.502472,447.325897 350.415283,448.001770 
	C350.826813,447.343201 351.585419,446.681763 352.663300,446.000122 
z"/>
<path fill="#FB655E" opacity="1.000000" stroke="none" 
	d="
M336.781738,458.145142 
	C336.909637,458.378113 336.728882,458.621338 336.259674,458.902191 
	C336.095886,458.659302 336.263153,458.397827 336.781738,458.145142 
z"/>
<path fill="#FB655E" opacity="1.000000" stroke="none" 
	d="
M334.741089,460.059631 
	C334.895294,460.313110 334.714233,460.573517 334.200317,460.841919 
	C334.030670,460.578552 334.210144,460.317413 334.741089,460.059631 
z"/>
<path fill="#FB655E" opacity="1.000000" stroke="none" 
	d="
M333.696289,461.049591 
	C333.872803,461.308807 333.704803,461.571289 333.190247,461.833618 
	C333.012695,461.571808 333.182037,461.311584 333.696289,461.049591 
z"/>
<path fill="#FB655E" opacity="1.000000" stroke="none" 
	d="
M339.671906,456.037659 
	C339.717041,456.226593 339.532928,456.494537 339.102203,456.817505 
	C338.967499,456.555542 339.163208,456.303528 339.671906,456.037659 
z"/>
<path fill="#FB655E" opacity="1.000000" stroke="none" 
	d="
M340.699524,455.044800 
	C340.873352,455.303986 340.703339,455.565826 340.187500,455.826050 
	C340.009186,455.561462 340.180511,455.302460 340.699524,455.044800 
z"/>
<path fill="#FB655E" opacity="1.000000" stroke="none" 
	d="
M344.690247,452.041138 
	C344.871643,452.303772 344.703491,452.569855 344.183929,452.837006 
	C344.006317,452.575378 344.175720,452.310852 344.690247,452.041138 
z"/>
<path fill="#FB655E" opacity="1.000000" stroke="none" 
	d="
M332.682434,462.041626 
	C332.865875,462.305206 332.698944,462.570496 332.179138,462.834595 
	C332.001251,462.572723 332.169861,462.309387 332.682434,462.041626 
z"/>
<path fill="#FB655E" opacity="1.000000" stroke="none" 
	d="
M316.679779,478.058594 
	C316.862244,478.314240 316.704010,478.572601 316.204834,478.833435 
	C316.026337,478.580078 316.184753,478.321869 316.679779,478.058594 
z"/>
<path fill="#FB655E" opacity="1.000000" stroke="none" 
	d="
M315.688965,479.064056 
	C315.867493,479.315247 315.708984,479.573730 315.215698,479.842133 
	C315.034698,479.591064 315.191711,479.330811 315.688965,479.064056 
z"/>
<path fill="#FB655E" opacity="1.000000" stroke="none" 
	d="
M314.707397,480.088379 
	C314.878693,480.327545 314.721710,480.587189 314.242798,480.875977 
	C314.073181,480.642670 314.225983,480.377258 314.707397,480.088379 
z"/>
<path fill="#FB655E" opacity="1.000000" stroke="none" 
	d="
M313.749329,481.111450 
	C313.896698,481.343475 313.729401,481.594391 313.263977,481.883972 
	C313.086273,481.644165 313.242554,481.380066 313.749329,481.111450 
z"/>
<path fill="#FB655E" opacity="1.000000" stroke="none" 
	d="
M311.779846,483.168457 
	C311.906525,483.390778 311.741333,483.619141 311.311279,483.887543 
	C311.133118,483.651123 311.280304,483.400116 311.779846,483.168457 
z"/>
<path fill="#FA4A61" opacity="1.000000" stroke="none" 
	d="
M268.694031,588.110352 
	C268.843353,588.027893 268.922821,588.508667 268.874786,588.746948 
	C268.684204,588.823242 268.521637,588.673523 268.411560,588.491943 
	C268.379303,588.438660 268.496185,588.294983 268.694031,588.110352 
z"/>
<path fill="#4564F0" opacity="1.000000" stroke="none" 
	d="
M671.244751,764.007385 
	C671.888306,763.510010 672.776672,763.019958 673.832520,762.768188 
	C673.526733,763.327698 673.053345,763.648987 672.279419,763.999939 
	C671.978943,764.029602 671.489502,764.014771 671.244751,764.007385 
z"/>
<path fill="#4D6CF5" opacity="1.000000" stroke="none" 
	d="
M738.644836,771.965332 
	C737.952271,772.890076 736.904480,773.780151 735.856750,774.670227 
	C735.609253,773.948853 735.361816,773.227417 735.114319,772.506042 
	C736.172791,772.314270 737.231201,772.122437 738.644836,771.965332 
z"/>
<animateTransform
      attributeName="transform"
      begin="0s"
      dur="10s"
      type="rotate"
      from="0 0 0"
      to="360 0 0"
      repeatCount="indefinite" />
</svg>