<svg width="22" height="19" viewBox="0 0 22 19" fill="none" xmlns="http://www.w3.org/2000/svg">
<path d="M14.7726 9.97148L13.6496 8.84843C13.8201 7.95868 13.5861 7.1997 12.9477 6.5715C12.3092 5.9433 11.5432 5.70228 10.6496 5.84843L9.52654 4.72538C9.75859 4.61768 9.99736 4.54011 10.2429 4.49268C10.4884 4.44524 10.7406 4.42153 10.9996 4.42153C12.1342 4.42153 13.0973 4.81736 13.889 5.60903C14.6807 6.40069 15.0765 7.36383 15.0765 8.49843C15.0765 8.75739 15.0544 9.00963 15.0101 9.25515C14.9659 9.50065 14.8867 9.73943 14.7726 9.97148ZM17.9534 13.083L16.8496 12.0484C17.4829 11.5651 18.0496 11.0276 18.5496 10.4359C19.0496 9.84426 19.4663 9.19843 19.7996 8.49843C18.9663 6.81509 17.7621 5.47759 16.1871 4.48593C14.6121 3.49426 12.8829 2.99843 10.9996 2.99843C10.5163 2.99843 10.0454 3.03176 9.58709 3.09843C9.12875 3.16509 8.66625 3.26509 8.19959 3.39843L7.03424 2.23308C7.67012 1.98179 8.31851 1.79653 8.97941 1.6773C9.64029 1.55807 10.3137 1.49845 10.9996 1.49845C13.1483 1.49845 15.122 2.05678 16.9207 3.17345C18.7194 4.29012 20.1028 5.80101 21.0707 7.70612C21.1374 7.83304 21.1858 7.96093 21.2159 8.08978C21.246 8.21863 21.2611 8.35484 21.2611 8.49843C21.2611 8.64201 21.2486 8.77823 21.2236 8.90708C21.1986 9.03593 21.1528 9.16381 21.0861 9.29072C20.7322 10.0433 20.288 10.7382 19.7534 11.3753C19.2188 12.0125 18.6188 12.5817 17.9534 13.083ZM10.9996 15.4984C8.89447 15.4984 6.96499 14.9359 5.21116 13.8109C3.45731 12.6859 2.06308 11.2042 1.02846 9.36573C0.945128 9.23881 0.884236 9.10099 0.845786 8.95228C0.807319 8.80356 0.788086 8.65228 0.788086 8.49843C0.788086 8.34458 0.804753 8.19586 0.838086 8.05228C0.871419 7.90869 0.929753 7.76831 1.01309 7.63112C1.38489 6.95164 1.80604 6.30453 2.27656 5.68977C2.74708 5.07503 3.2881 4.52407 3.89964 4.0369L1.64194 1.7638C1.50347 1.61508 1.4352 1.43848 1.43714 1.234C1.43905 1.02952 1.51244 0.854841 1.65731 0.709975C1.80218 0.565108 1.97782 0.492676 2.18424 0.492676C2.39064 0.492676 2.56627 0.565108 2.71114 0.709975L19.288 17.2869C19.4265 17.4253 19.4999 17.5968 19.5082 17.8013C19.5165 18.0058 19.4432 18.1856 19.288 18.3407C19.1432 18.4856 18.9675 18.558 18.7611 18.558C18.5547 18.558 18.3791 18.4856 18.2342 18.3407L14.715 14.8522C14.1252 15.0804 13.5191 15.2452 12.8967 15.3465C12.2743 15.4478 11.6419 15.4984 10.9996 15.4984ZM4.95346 5.0907C4.36756 5.54327 3.84095 6.05513 3.37364 6.6263C2.90632 7.19745 2.51497 7.82149 2.19959 8.49843C3.03292 10.1818 4.23709 11.5193 5.81209 12.5109C7.38709 13.5026 9.11625 13.9984 10.9996 13.9984C11.4291 13.9984 11.8519 13.9696 12.2679 13.9119C12.6839 13.8542 13.0971 13.7651 13.5073 13.6446L12.2419 12.3484C12.0393 12.4369 11.8371 12.4968 11.6352 12.5282C11.4332 12.5596 11.2214 12.5753 10.9996 12.5753C9.86499 12.5753 8.90185 12.1795 8.11019 11.3878C7.31852 10.5962 6.92269 9.63303 6.92269 8.49843C6.92269 8.27663 6.93999 8.06477 6.97461 7.86285C7.00923 7.66092 7.06756 7.45867 7.14961 7.2561L4.95346 5.0907Z" fill="#9FA6B2"/>
</svg>
