<svg width="16" height="14" viewBox="0 0 16 14" fill="none" xmlns="http://www.w3.org/2000/svg">
<path d="M12.3125 14.0005C12.2073 14.0009 12.1046 13.9681 12.0191 13.9067L8.00003 10.993L3.98097 13.9067C3.8951 13.969 3.79166 14.0024 3.68558 14.002C3.57951 14.0016 3.47631 13.9675 3.3909 13.9046C3.30549 13.8417 3.2423 13.7532 3.21046 13.6521C3.17862 13.5509 3.17978 13.4422 3.21378 13.3417L4.78128 8.69891L0.718779 5.91298C0.630782 5.8527 0.564368 5.76586 0.529239 5.66515C0.49411 5.56444 0.492107 5.45513 0.523524 5.3532C0.554941 5.25127 0.618131 5.16206 0.70386 5.0986C0.78959 5.03514 0.893367 5.00076 1.00003 5.00048H6.0119L7.5244 0.34579C7.55699 0.245296 7.62056 0.157706 7.70601 0.0955837C7.79146 0.0334614 7.89439 0 8.00003 0C8.10567 0 8.2086 0.0334614 8.29405 0.0955837C8.3795 0.157706 8.44307 0.245296 8.47565 0.34579L9.98815 5.00204H15C15.1068 5.00199 15.2108 5.03613 15.2968 5.09947C15.3828 5.16281 15.4462 5.25201 15.4779 5.35402C15.5095 5.45603 15.5076 5.56548 15.4725 5.66634C15.4374 5.76721 15.3709 5.85419 15.2828 5.91454L11.2188 8.69891L12.7853 13.3405C12.8107 13.4156 12.8179 13.4957 12.8062 13.5742C12.7945 13.6526 12.7643 13.7272 12.7181 13.7917C12.6719 13.8561 12.611 13.9087 12.5405 13.945C12.47 13.9813 12.3918 14.0003 12.3125 14.0005Z" fill="#FFC23D"/>
</svg>
