<svg width="18" height="18" viewBox="0 0 18 18" fill="none" xmlns="http://www.w3.org/2000/svg">
<path d="M8.27037 14.7126C10.047 14.7126 11.5632 14.0881 12.8191 12.8391C14.0749 11.59 14.7029 10.069 14.7029 8.27586C14.7029 6.49808 14.0749 4.98084 12.8191 3.72414C11.5632 2.46743 10.047 1.83908 8.27037 1.83908C6.47846 1.83908 4.95839 2.46743 3.71018 3.72414C2.46197 4.98084 1.83786 6.49808 1.83786 8.27586C1.83786 10.069 2.46197 11.59 3.71018 12.8391C4.95839 14.0881 6.47846 14.7126 8.27037 14.7126ZM8.27037 16.5517C7.12171 16.5517 6.04579 16.3333 5.04263 15.8966C4.03946 15.4598 3.16648 14.8697 2.42368 14.1264C1.68088 13.3831 1.09123 12.5096 0.654738 11.5057C0.218246 10.5019 0 9.42529 0 8.27586C0 7.14176 0.218246 6.0728 0.654738 5.06897C1.09123 4.06513 1.68088 3.18774 2.42368 2.43678C3.16648 1.68582 4.03946 1.09195 5.04263 0.655172C6.04579 0.218391 7.12171 0 8.27037 0C9.40372 0 10.472 0.218391 11.4751 0.655172C12.4783 1.09195 13.3551 1.68582 14.1056 2.43678C14.856 3.18774 15.4495 4.06513 15.886 5.06897C16.3225 6.0728 16.5407 7.14176 16.5407 8.27586C16.5407 9.2567 16.3799 10.1839 16.0583 11.0575C15.7367 11.931 15.2925 12.728 14.7259 13.4483L17.7353 16.4598C17.9191 16.6437 18.0072 16.8582 17.9995 17.1034C17.9919 17.3487 17.8962 17.5632 17.7124 17.7471C17.5286 17.9157 17.3142 18 17.0691 18C16.8241 18 16.6097 17.9157 16.4259 17.7471L13.4164 14.7586C12.6965 15.3257 11.9001 15.7663 11.0272 16.0805C10.1542 16.3946 9.23525 16.5517 8.27037 16.5517Z" fill="white"/>
</svg>
