<svg width="268" height="135" viewBox="0 0 268 135" fill="none" xmlns="http://www.w3.org/2000/svg">
<mask id="mask0_73_6019" style="mask-type:luminance" maskUnits="userSpaceOnUse" x="0" y="112" width="268" height="23">
<path d="M0 122.436C53.3566 112.44 77.7708 111.712 90.1293 113.073C92.2636 113.307 107.369 115.076 128.705 117.035C130.147 117.168 137.426 117.834 140.962 118.115C166.159 120.106 189.077 117.171 196.842 116.314C212.619 114.571 235.836 113.664 267.504 117.755V133.239L0 134.68V122.436Z" fill="white"/>
</mask>
<g mask="url(#mask0_73_6019)">
<path d="M18.7685 115.493C18.7349 116.874 18.6676 118.218 18.5667 119.526C18.4657 120.835 18.3455 122.146 18.2061 123.459C18.1135 124.363 17.9101 125.251 17.6005 126.106C17.317 126.898 16.8796 127.626 16.3134 128.248C15.7471 128.862 15.0597 129.353 14.2945 129.689C13.4228 130.057 12.4828 130.236 11.5366 130.214C10.5759 130.237 9.62127 130.057 8.73535 129.685C7.97013 129.349 7.28277 128.859 6.71645 128.245C6.15026 127.622 5.71286 126.894 5.4294 126.102C5.11976 125.248 4.91635 124.359 4.82373 123.455C3.81429 113.6 3.81429 103.667 4.82373 93.8113C4.9143 92.9154 5.1178 92.0346 5.4294 91.1897C5.71741 90.4074 6.15449 89.6884 6.71645 89.0723C7.28277 88.4582 7.97013 87.9678 8.73535 87.6318C9.62181 87.2625 10.5764 87.0846 11.5366 87.1097C12.4806 87.0902 13.4181 87.2706 14.2873 87.639C15.0525 87.975 15.7399 88.4654 16.3062 89.0795C16.8682 89.6956 17.3052 90.4147 17.5933 91.1969C17.9049 92.0418 18.1084 92.9226 18.1989 93.8185C18.3672 95.4654 18.4873 97.0534 18.5594 98.5827C18.6316 100.112 18.7157 101.734 18.8118 103.448C19.5094 101.419 20.3441 99.4398 21.3102 97.524C22.2716 95.6274 23.138 93.9553 23.9095 92.5077C24.3978 91.5848 25.0037 90.729 25.7121 89.9617C26.3799 89.2352 27.1753 88.6371 28.0591 88.1972C28.947 87.7631 29.9188 87.5272 30.9072 87.5058C32.0598 87.5057 33.1991 87.7512 34.2492 88.226C36.2681 89.1023 37.6224 90.3026 38.3122 91.8271C39.002 93.3515 38.9695 95.0897 38.2149 97.0414C37.6897 98.4287 37.0656 99.7765 36.3474 101.075C35.6176 102.402 34.8173 103.689 33.9499 104.931C33.1174 106.126 32.2158 107.27 31.2497 108.36C30.3897 109.341 29.4438 110.243 28.4232 111.057C28.3473 111.096 28.2822 111.153 28.2338 111.224C28.1853 111.294 28.1551 111.375 28.1456 111.46C28.1245 111.61 28.1605 111.763 28.2465 111.889C28.2887 111.948 28.3423 111.999 28.4042 112.038C28.466 112.077 28.535 112.103 28.6071 112.115C28.7968 112.137 28.9874 112.083 29.137 111.964C29.4975 111.662 29.8581 111.359 30.2186 111.057C30.5846 110.743 30.9302 110.406 31.2533 110.048C32.0115 110.879 32.7194 111.755 33.3731 112.67C34.0405 113.601 34.6556 114.569 35.2154 115.569C35.7705 116.56 36.2753 117.543 36.7295 118.518C37.1551 119.423 37.5341 120.348 37.8652 121.291C38.1512 122.074 38.2741 122.907 38.2264 123.74C38.1787 124.572 37.9613 125.385 37.5876 126.131C36.8305 127.643 35.4593 128.803 33.4741 129.609C31.3879 130.416 29.4651 130.45 27.7058 129.71C25.9464 128.971 24.4647 127.626 23.2606 125.677C22.9578 125.141 22.6117 124.474 22.2259 123.686C21.8402 122.897 21.4436 122.047 21.0398 121.14C20.636 120.232 20.2395 119.292 19.8537 118.316C19.468 117.341 19.1074 116.401 18.7685 115.493Z" fill="#F93347"/>
<path d="M57.0266 130.567C54.0631 130.567 51.5647 129.996 49.5314 128.853C47.5261 127.74 45.8136 126.168 44.5346 124.265C43.1963 122.255 42.2383 120.017 41.7082 117.661C41.1105 115.116 40.7973 112.512 40.7744 109.897C40.7658 108.407 40.9611 106.923 41.3549 105.486C41.7064 104.164 42.2965 102.916 43.0962 101.806C43.8642 100.751 44.8661 99.8883 46.0236 99.2849C47.3051 98.638 48.7269 98.3176 50.1623 98.3522C51.5302 98.3171 52.8898 98.575 54.1496 99.1084C55.2035 99.5701 56.1363 100.269 56.8752 101.15C57.6019 102.048 58.1347 103.087 58.4398 104.2C58.7829 105.431 58.9528 106.704 58.9445 107.981C58.9445 109.091 58.8832 110.225 58.7679 111.384C58.6456 112.541 58.404 113.681 58.0468 114.787C57.6841 115.916 57.1751 116.992 56.5327 117.989C55.8388 119.053 54.9582 119.984 53.9333 120.736C53.8472 120.797 53.7754 120.876 53.7231 120.968C53.6707 121.059 53.6391 121.161 53.6305 121.266C53.6295 121.449 53.6919 121.627 53.8071 121.77C53.9198 121.919 54.08 122.026 54.2614 122.072C54.3615 122.095 54.4654 122.096 54.5657 122.074C54.666 122.052 54.7603 122.009 54.8418 121.946C55.9575 121.137 56.932 120.149 57.726 119.022C58.4731 117.93 59.0516 116.732 59.442 115.468C59.8584 114.113 60.1374 112.72 60.2748 111.309C60.4299 109.717 60.4889 108.118 60.4515 106.519C60.4442 105.446 60.5371 104.374 60.7291 103.318C60.8861 102.393 61.2296 101.51 61.7385 100.722C62.2353 99.9742 62.9238 99.3735 63.7322 98.9824C64.7289 98.5289 65.8175 98.3132 66.912 98.3522C69.2337 98.3522 70.8825 99.3125 71.8583 101.233C72.8341 103.154 73.221 106.296 73.0191 110.661C72.8934 113.194 72.4377 115.699 71.6636 118.115C70.9454 120.391 69.8631 122.536 68.4586 124.467C67.146 126.276 65.4699 127.792 63.5375 128.918C61.5537 130.039 59.3054 130.608 57.0266 130.567Z" fill="#F93347"/>
<path d="M81.8592 128.299C80.7377 127.613 79.7325 126.754 78.8813 125.753C78.0417 124.765 77.3295 123.676 76.7614 122.512C76.187 121.349 75.7549 120.122 75.4744 118.857C75.1854 117.587 75.0224 116.291 74.9877 114.989C74.9522 113.439 75.1047 111.89 75.442 110.376C75.7619 108.893 76.2619 107.454 76.9309 106.091C77.5661 104.792 78.3911 103.594 79.3788 102.537C80.3505 101.497 81.5165 100.658 82.8109 100.066C84.0824 99.4958 85.4121 99.0648 86.7766 98.7808C88.1161 98.4976 89.4813 98.354 90.8505 98.3522C92.5704 98.3436 94.2833 98.5714 95.941 99.0292C97.4642 99.4377 98.8891 100.149 100.13 101.121C101.319 102.079 102.262 103.306 102.881 104.701C103.566 106.32 103.851 108.08 103.714 109.832C103.577 112.219 102.887 114.034 101.644 115.277C100.402 116.521 98.5006 117.445 95.941 118.05C94.4609 118.405 92.9242 118.456 91.4237 118.201C90.6849 118.069 89.9703 117.826 89.3039 117.481C88.6677 117.165 88.134 116.676 87.7644 116.069C87.6274 115.868 87.3679 115.792 86.9821 115.843C86.5964 115.893 86.4341 116.152 86.5026 116.624C86.5639 117.058 86.7577 117.463 87.0578 117.784C87.4423 118.228 87.8935 118.611 88.3953 118.918C88.9999 119.293 89.654 119.581 90.3385 119.775C91.1427 120.003 91.9758 120.113 92.8117 120.103C93.1934 120.097 93.5737 120.055 93.9473 119.977C94.3655 119.894 94.7296 119.818 95.0289 119.75C95.9975 119.45 96.9835 119.209 97.9815 119.03C98.698 118.893 99.4353 118.91 100.145 119.08C100.778 119.257 101.337 119.637 101.734 120.16C102.261 120.89 102.67 121.698 102.946 122.555C103.515 124.168 103.356 125.563 102.466 126.739C101.577 127.916 99.8682 128.906 97.3398 129.71C96.2961 130.049 95.2231 130.29 94.1348 130.43C93.0567 130.538 91.9736 130.589 90.8901 130.582C89.2952 130.583 87.7046 130.414 86.1457 130.078C84.6215 129.747 83.1694 129.144 81.8592 128.299ZM88.572 109.393C89.7406 109.038 90.9558 108.86 92.1772 108.864C93.358 108.887 94.5333 109.031 95.685 109.292C95.7833 109.309 95.8843 109.299 95.9775 109.264C96.0707 109.228 96.1527 109.168 96.215 109.091C96.3622 108.929 96.4587 108.727 96.4926 108.511C96.5263 108.295 96.491 108.075 96.3916 107.881C96.3282 107.772 96.2407 107.679 96.1357 107.609C96.0307 107.539 95.9111 107.494 95.786 107.477C94.5668 107.203 93.3274 107.027 92.0798 106.952C90.8316 106.86 89.5791 107.058 88.4206 107.531C88.3022 107.567 88.1932 107.628 88.1016 107.711C88.0099 107.794 87.9378 107.896 87.8906 108.01C87.8046 108.226 87.7784 108.461 87.8149 108.691C87.838 108.905 87.926 109.108 88.0673 109.271C88.1272 109.342 88.2085 109.393 88.2994 109.415C88.3903 109.437 88.4858 109.429 88.572 109.393Z" fill="#F93347"/>
<path d="M120.773 120.888C120.705 121.424 120.662 121.946 120.647 122.451C120.633 122.955 120.586 123.459 120.521 123.963C120.319 125.884 119.688 127.404 118.628 128.526C117.568 129.647 115.979 130.21 113.859 130.214C111.696 130.214 110.055 129.652 108.938 128.526C107.82 127.4 107.156 125.879 106.944 123.963C106.776 122.283 106.65 120.526 106.565 118.695C106.481 116.863 106.41 115.109 106.353 113.434V104.402C106.353 102.587 106.908 101.125 108.018 100.016C109.129 98.9068 110.592 98.3523 112.409 98.3523C113.804 98.3452 115.19 98.5741 116.509 99.0293C117.107 99.218 117.661 99.5281 118.134 99.9401C118.607 100.352 118.99 100.857 119.259 101.424C117.998 102.946 117.015 104.678 116.357 106.541C115.731 108.363 115.515 110.301 115.726 112.216C115.738 112.473 115.846 112.716 116.029 112.897C116.162 113.034 116.343 113.115 116.534 113.124C116.619 113.122 116.703 113.103 116.781 113.069C116.859 113.034 116.93 112.984 116.988 112.922C117.06 112.84 117.115 112.744 117.15 112.64C117.185 112.536 117.198 112.426 117.19 112.317C117.089 111.035 117.174 109.744 117.442 108.486C117.699 107.241 118.106 106.032 118.654 104.885C119.16 103.806 119.805 102.797 120.572 101.885C121.233 101.079 122.016 100.382 122.893 99.8179C123.621 99.3874 124.39 99.0326 125.19 98.7592C125.978 98.4899 126.805 98.3536 127.638 98.3559C129.04 98.358 130.432 98.6016 131.751 99.0761C133.059 99.5359 134.23 100.316 135.158 101.345C135.829 102.066 136.39 102.881 136.824 103.765C137.226 104.601 137.531 105.48 137.732 106.386C137.937 107.306 138.058 108.243 138.093 109.184C138.126 110.145 138.143 111.128 138.143 112.134C138.107 114.054 137.998 116.062 137.815 118.158C137.65 120.117 137.355 122.062 136.932 123.981C136.746 124.868 136.458 125.731 136.074 126.552C135.729 127.289 135.249 127.956 134.661 128.518C134.068 129.068 133.374 129.496 132.616 129.779C131.701 130.102 130.735 130.255 129.765 130.232C127.544 130.232 125.853 129.67 124.692 128.544C123.531 127.418 122.826 125.891 122.576 123.963C122.508 123.527 122.457 123.088 122.425 122.652C122.392 122.217 122.356 121.763 122.324 121.291C122.333 121.036 122.263 120.784 122.122 120.571C122.017 120.409 121.855 120.292 121.668 120.243C121.579 120.228 121.489 120.231 121.402 120.252C121.315 120.274 121.233 120.314 121.163 120.369C120.988 120.503 120.853 120.683 120.773 120.888Z" fill="#F93347"/>
<path d="M143.208 113.099C142.763 112.966 142.331 112.788 141.921 112.569C140.306 111.628 139.499 109.796 139.499 107.074C139.473 106.226 139.601 105.381 139.877 104.578C140.102 103.962 140.473 103.408 140.959 102.965C141.457 102.529 142.042 102.202 142.675 102.007C143.42 101.77 144.178 101.576 144.946 101.428C144.978 101.093 144.996 100.765 144.996 100.444C144.996 100.124 144.996 99.7963 145.043 99.4614C145.103 98.3947 145.316 97.3421 145.674 96.3356C145.938 95.614 146.371 94.9659 146.936 94.4451C147.488 93.9778 148.149 93.6571 148.858 93.5124C149.729 93.3325 150.618 93.248 151.507 93.2603C152.372 93.2487 153.235 93.3333 154.082 93.5124C154.787 93.6647 155.445 93.9846 155.999 94.4451C156.578 94.9593 157.021 95.6089 157.287 96.3356C157.649 97.3434 157.878 98.3942 157.968 99.4614V99.6126C158.994 99.5439 160.024 99.5608 161.047 99.663C161.881 99.7243 162.691 99.9703 163.419 100.383C165.034 101.322 165.842 103.17 165.842 105.929C165.842 107.876 165.361 109.271 164.4 110.113C163.438 110.956 162.05 111.477 160.236 111.676L158.873 111.827C158.873 112.432 158.855 113.005 158.822 113.542C158.79 114.078 158.736 114.582 158.671 115.054C158.1 115.222 157.549 115.45 157.027 115.735C156.522 116.008 156.049 116.338 155.617 116.718C155.223 117.062 154.861 117.442 154.536 117.852C154.268 118.18 154.046 118.544 153.876 118.932C153.811 119.103 153.811 119.291 153.876 119.462C153.903 119.53 153.945 119.593 153.998 119.645C154.05 119.697 154.113 119.738 154.182 119.764C154.32 119.814 154.469 119.823 154.611 119.789C154.688 119.772 154.758 119.735 154.816 119.682C154.873 119.629 154.916 119.561 154.94 119.487C155.497 118.361 156.364 117.417 157.438 116.764C158.439 116.14 159.615 115.855 160.791 115.954C161.537 116.021 162.268 116.208 162.954 116.509C163.654 116.825 164.271 117.3 164.756 117.895C165.312 118.588 165.724 119.385 165.968 120.239C166.267 121.339 166.362 122.484 166.245 123.617C166.192 124.684 165.841 125.714 165.232 126.592C164.615 127.48 163.817 128.228 162.889 128.785C161.855 129.402 160.729 129.853 159.554 130.121C158.274 130.425 156.962 130.578 155.646 130.575C153.223 130.575 151.301 130.18 149.878 129.39C148.495 128.633 147.376 127.472 146.673 126.062C145.889 124.43 145.401 122.672 145.231 120.87C144.99 118.836 144.839 116.576 144.777 114.089V113.333C144.245 113.333 143.716 113.254 143.208 113.099Z" fill="#F93347"/>
<path d="M186.536 129.055C185.387 129.451 184.205 129.738 183.002 129.912C181.717 130.112 180.417 130.213 179.116 130.214C177.064 130.214 175.381 129.946 174.069 129.408C172.735 128.954 171.532 128.184 170.561 127.164C169.67 126.112 169.051 124.857 168.758 123.509C168.278 121.663 168.059 119.285 168.102 116.376C168.146 113.466 168.196 109.811 168.254 105.41C168.244 104.433 168.388 103.461 168.683 102.529C168.956 101.68 169.432 100.91 170.071 100.286C170.775 99.6241 171.62 99.1315 172.544 98.8456C173.754 98.4817 175.015 98.3115 176.279 98.3414C177.518 98.3121 178.753 98.4823 179.938 98.8456C180.847 99.1299 181.677 99.6233 182.361 100.286C182.987 100.911 183.447 101.682 183.698 102.529C183.977 103.464 184.113 104.435 184.102 105.41V115.954C184.107 116.283 184.236 116.598 184.463 116.836C184.547 116.922 184.65 116.987 184.764 117.026C184.878 117.066 184.999 117.078 185.119 117.063C185.376 117.02 185.609 116.886 185.775 116.685C185.991 116.424 186.099 116.091 186.078 115.753V105.057C186.07 104.166 186.215 103.279 186.507 102.436C186.778 101.657 187.198 100.938 187.743 100.318C188.304 99.6977 188.993 99.2062 189.762 98.878C190.624 98.5143 191.552 98.3341 192.488 98.3486C193.415 98.3321 194.336 98.5126 195.188 98.878C195.954 99.213 196.641 99.7035 197.207 100.318C197.767 100.931 198.197 101.652 198.469 102.436C198.762 103.278 198.907 104.165 198.898 105.057V121.356C198.966 122.195 199.049 123.088 199.15 124.028C199.251 124.915 199.268 125.81 199.201 126.7C199.153 127.483 198.92 128.243 198.519 128.918C198.301 129.252 198.016 129.536 197.681 129.753C197.346 129.97 196.97 130.115 196.576 130.178C195.267 130.481 193.931 130.65 192.589 130.683C191.211 130.683 190.141 130.481 189.384 130.078C188.701 129.737 188.112 129.235 187.668 128.616C187.294 128.071 187.029 127.46 186.885 126.815C186.752 126.192 186.633 125.663 186.525 125.227C186.478 125.078 186.38 124.95 186.247 124.867C186.194 124.833 186.135 124.811 186.072 124.803C186.01 124.794 185.947 124.799 185.887 124.816C185.763 124.855 185.656 124.935 185.584 125.043C185.544 125.097 185.516 125.158 185.503 125.224C185.49 125.289 185.492 125.357 185.508 125.421C185.544 125.692 185.602 126.001 185.685 126.354C185.768 126.707 185.861 127.074 185.962 127.413C186.063 127.751 186.157 128.093 186.24 128.396C186.299 128.631 186.399 128.854 186.536 129.055Z" fill="#F93347"/>
<path d="M216.011 99.5117C215.169 100.388 214.47 101.392 213.942 102.486C213.409 103.576 213.084 104.756 212.983 105.965C212.914 106.57 213.059 106.905 213.412 106.973C213.765 107.042 214.01 106.804 214.133 106.253C214.808 103.228 215.902 101.102 217.414 99.8755C218.926 98.6487 220.848 98.1193 223.182 98.2874C224.132 98.3227 225.051 98.6289 225.832 99.1697C226.535 99.6674 227.121 100.313 227.548 101.06C227.97 101.799 228.276 102.598 228.456 103.43C228.633 104.19 228.726 104.968 228.734 105.749C228.727 106.517 228.668 107.283 228.557 108.043C228.441 108.905 228.198 109.746 227.836 110.538C227.454 111.364 226.883 112.089 226.171 112.656C225.318 113.308 224.308 113.726 223.243 113.866C222.384 113.995 221.506 113.899 220.694 113.588C219.785 113.256 218.939 112.768 218.196 112.148C217.836 111.813 217.54 111.763 217.338 111.997C217.119 112.285 217.011 112.643 217.035 113.005C216.97 114.82 216.886 116.635 216.783 118.45C216.679 120.265 216.545 122.08 216.379 123.895C216.287 124.801 216.075 125.691 215.748 126.541C215.452 127.327 215.016 128.053 214.461 128.684C213.908 129.302 213.228 129.793 212.467 130.124C211.598 130.493 210.661 130.674 209.717 130.654C208.748 130.675 207.786 130.494 206.89 130.124C206.115 129.793 205.418 129.302 204.846 128.684C204.28 128.061 203.843 127.333 203.559 126.541C203.251 125.689 203.064 124.798 203.004 123.895C202.735 120.195 202.615 116.523 202.643 112.879C202.672 109.235 202.723 105.563 202.795 101.863C202.808 101.1 203.026 100.354 203.426 99.7026C203.595 99.4191 203.826 99.1769 204.101 98.9937C204.376 98.8106 204.688 98.691 205.016 98.6439C205.633 98.5332 206.257 98.4575 206.883 98.417C207.59 98.3666 208.33 98.3414 209.104 98.3414C210.514 98.3362 211.923 98.4373 213.318 98.6439C214.645 98.8528 215.543 99.142 216.011 99.5117Z" fill="#F93347"/>
<path d="M237.008 128.299C235.887 127.612 234.882 126.753 234.03 125.753C233.193 124.763 232.481 123.675 231.91 122.512C231.336 121.349 230.904 120.122 230.623 118.857C230.337 117.581 230.177 116.281 230.144 114.975C230.112 113.425 230.264 111.876 230.598 110.362C230.918 108.878 231.418 107.439 232.087 106.077C232.722 104.777 233.547 103.579 234.535 102.522C235.507 101.484 236.673 100.645 237.967 100.052C239.238 99.482 240.568 99.0509 241.932 98.7664C243.268 98.4842 244.63 98.3405 245.996 98.3378C247.717 98.3335 249.431 98.5662 251.09 99.0292C252.613 99.4377 254.038 100.149 255.279 101.121C256.469 102.078 257.412 103.305 258.03 104.701C258.711 106.321 258.993 108.081 258.852 109.832C258.717 112.219 258.027 114.034 256.782 115.277C255.537 116.521 253.636 117.445 251.079 118.05C249.599 118.405 248.062 118.456 246.562 118.201C245.823 118.069 245.108 117.826 244.442 117.481C243.806 117.164 243.273 116.675 242.902 116.069C242.769 115.868 242.506 115.792 242.12 115.843C241.734 115.893 241.572 116.152 241.64 116.624C241.703 117.058 241.897 117.462 242.196 117.784C242.58 118.228 243.031 118.611 243.533 118.918C244.138 119.292 244.792 119.58 245.476 119.775C246.281 120.003 247.114 120.113 247.95 120.103C248.331 120.097 248.711 120.055 249.085 119.977C249.507 119.894 249.867 119.818 250.167 119.75C251.135 119.45 252.121 119.209 253.119 119.03C253.836 118.893 254.573 118.91 255.282 119.08C255.917 119.255 256.476 119.635 256.872 120.16C257.399 120.89 257.808 121.698 258.084 122.555C258.658 124.168 258.498 125.563 257.604 126.739C256.71 127.916 255.002 128.89 252.481 129.663C251.438 130.003 250.365 130.244 249.276 130.384C248.198 130.492 247.115 130.542 246.032 130.535C244.437 130.536 242.846 130.367 241.287 130.031C239.769 129.713 238.319 129.126 237.008 128.299ZM243.71 109.393C244.878 109.038 246.094 108.86 247.315 108.864C248.496 108.887 249.671 109.031 250.823 109.292C250.921 109.309 251.022 109.299 251.115 109.264C251.209 109.228 251.291 109.168 251.353 109.091C251.502 108.93 251.599 108.728 251.63 108.511C251.664 108.295 251.629 108.075 251.529 107.881C251.466 107.772 251.379 107.679 251.274 107.609C251.169 107.539 251.049 107.494 250.924 107.477C249.708 107.203 248.472 107.027 247.228 106.952C245.98 106.86 244.728 107.058 243.569 107.531C243.451 107.567 243.342 107.628 243.25 107.711C243.159 107.794 243.086 107.896 243.039 108.01C242.957 108.227 242.931 108.461 242.964 108.691C242.988 108.905 243.076 109.107 243.216 109.271C243.275 109.34 243.355 109.389 243.443 109.411C243.532 109.433 243.625 109.427 243.71 109.393Z" fill="#F93347"/>
</g>
<path d="M18.7687 115.493C19.1039 116.401 19.4681 117.341 19.8502 118.316C19.9259 118.507 20.0016 118.677 20.0773 118.875C25.6582 117.946 30.8544 117.137 35.6661 116.448C35.5111 116.156 35.3597 115.864 35.1938 115.569C34.6341 114.569 34.019 113.601 33.3516 112.67C32.6979 111.755 31.99 110.879 31.2318 110.048C30.9087 110.406 30.5631 110.743 30.1971 111.057C29.8366 111.359 29.476 111.662 29.1155 111.964C28.9659 112.083 28.7753 112.137 28.5856 112.115C28.5135 112.103 28.4445 112.077 28.3826 112.038C28.3208 111.999 28.2672 111.948 28.225 111.889C28.139 111.763 28.103 111.61 28.1241 111.46C28.1335 111.375 28.1638 111.294 28.2123 111.224C28.2607 111.153 28.3258 111.096 28.4017 111.057C29.4222 110.243 30.3681 109.341 31.2281 108.36C32.1943 107.27 33.0959 106.126 33.9284 104.931C34.7958 103.689 35.5961 102.402 36.3259 101.075C37.0441 99.7765 37.6682 98.4287 38.1933 97.0414C38.9697 95.092 39.0117 93.3527 38.3195 91.8235C37.6273 90.2942 36.2706 89.0951 34.2493 88.226C33.1948 87.7492 32.0503 87.5036 30.8929 87.5058C29.9127 87.5269 28.9486 87.7591 28.0664 88.1864C27.1827 88.6263 26.3872 89.2244 25.7194 89.9509C25.011 90.7182 24.4051 91.574 23.9169 92.4969C23.1405 93.9373 22.2741 95.6094 21.3175 97.5132C20.3514 99.429 19.5167 101.408 18.8191 103.437C18.7182 101.723 18.6341 100.101 18.5668 98.5719C18.4995 97.0426 18.3793 95.4546 18.2063 93.8077C18.1157 92.9118 17.9122 92.031 17.6006 91.1861C17.3126 90.4038 16.8755 89.6848 16.3135 89.0687C15.7472 88.4546 15.0599 87.9642 14.2946 87.6282C13.4224 87.2625 12.4824 87.0858 11.5367 87.1097C10.576 87.0869 9.62139 87.2673 8.73547 87.639C7.97025 87.975 7.28289 88.4654 6.71657 89.0795C6.15461 89.6956 5.71754 90.4146 5.42952 91.1969C5.11792 92.0418 4.91442 92.9226 4.82385 93.8185C4.31313 98.7426 4.06042 103.69 4.06677 108.64C4.06677 113.055 4.25784 117.368 4.63999 121.579C9.53582 120.681 14.1817 119.864 18.5776 119.127C18.6785 117.938 18.747 116.732 18.7687 115.493Z" fill="#3C54D0"/>
<path d="M73.0264 110.653C73.2283 106.287 72.8414 103.144 71.8656 101.226C70.8898 99.3077 69.241 98.3474 66.9193 98.345C65.8248 98.306 64.7362 98.5217 63.7395 98.9752C62.9311 99.3663 62.2426 99.967 61.7458 100.715C61.2369 101.503 60.8935 102.386 60.7364 103.311C60.5444 104.367 60.4515 105.439 60.4588 106.512C60.4962 108.111 60.4372 109.71 60.2821 111.302C60.2028 112.072 60.0875 112.814 59.9216 113.534C64.7814 113.099 69.0607 112.814 72.8318 112.677C72.9291 112.015 72.9904 111.338 73.0264 110.653Z" fill="#3C54D0"/>
<path d="M58.7645 111.384C58.8798 110.225 58.9411 109.091 58.9411 107.981C58.9493 106.704 58.7795 105.431 58.4364 104.2C58.1313 103.087 57.5985 102.048 56.8717 101.15C56.1329 100.269 55.2001 99.5701 54.1462 99.1084C52.8864 98.575 51.5268 98.3171 50.1589 98.3522C48.7234 98.3176 47.3017 98.638 46.0202 99.2849C44.8627 99.8883 43.8608 100.751 43.0928 101.806C42.2931 102.916 41.703 104.164 41.3515 105.486C40.9577 106.923 40.7624 108.407 40.771 109.897C40.7911 111.829 40.9672 113.756 41.2974 115.659C47.6497 114.805 53.3098 114.157 58.3607 113.682C58.5492 112.927 58.6842 112.159 58.7645 111.384Z" fill="#3C54D0"/>
<path d="M90.1295 113.073C91.211 113.192 95.5661 113.7 102.351 114.42C103.148 113.25 103.606 111.73 103.714 109.847C103.853 108.091 103.568 106.327 102.881 104.704C102.262 103.31 101.319 102.082 100.13 101.125C98.8894 100.152 97.4645 99.4387 95.941 99.0292C94.2833 98.5713 92.5704 98.3435 90.8505 98.3522C89.485 98.3547 88.1234 98.4983 86.7875 98.7807C85.4229 99.0647 84.0932 99.4958 82.8218 100.066C81.5273 100.658 80.3614 101.497 79.3897 102.537C78.4019 103.594 77.5769 104.792 76.9417 106.091C76.2728 107.453 75.7728 108.893 75.4528 110.376C75.2882 111.114 75.1678 111.86 75.0923 112.612C80.1093 112.425 85.1333 112.579 90.1295 113.073ZM87.8907 108.007C87.9379 107.892 88.0099 107.79 88.1016 107.707C88.1933 107.625 88.3022 107.563 88.4206 107.528C89.5794 107.056 90.8319 106.859 92.0799 106.952C93.3287 107.028 94.5693 107.205 95.7896 107.481C95.9147 107.497 96.0343 107.542 96.1393 107.612C96.2443 107.682 96.3319 107.775 96.3953 107.884C96.4946 108.078 96.53 108.299 96.4962 108.514C96.4624 108.731 96.3659 108.932 96.2186 109.094C96.1563 109.172 96.0743 109.232 95.9811 109.267C95.888 109.303 95.787 109.312 95.6887 109.296C94.537 109.034 93.3616 108.891 92.1808 108.867C90.9594 108.863 89.7442 109.042 88.5756 109.397C88.4891 109.433 88.3933 109.44 88.3024 109.417C88.2115 109.394 88.1303 109.343 88.0709 109.271C87.9296 109.108 87.8416 108.905 87.8186 108.691C87.7803 108.46 87.8052 108.224 87.8907 108.007Z" fill="#3C54D0"/>
<path d="M137.829 117.852C137.998 115.857 138.1 113.945 138.136 112.115C138.136 111.107 138.119 110.124 138.085 109.166C138.05 108.225 137.929 107.288 137.725 106.368C137.524 105.462 137.219 104.583 136.816 103.747C136.382 102.863 135.821 102.048 135.151 101.327C134.223 100.298 133.051 99.5178 131.744 99.058C130.424 98.5835 129.033 98.3399 127.63 98.3378C126.798 98.3354 125.97 98.4717 125.182 98.7411C124.383 99.0145 123.613 99.3693 122.886 99.7998C122.009 100.364 121.226 101.061 120.564 101.867C119.797 102.779 119.153 103.788 118.646 104.866C118.098 106.014 117.691 107.223 117.435 108.468C117.166 109.726 117.081 111.016 117.183 112.299C117.191 112.408 117.177 112.518 117.142 112.622C117.108 112.726 117.053 112.822 116.981 112.904C116.922 112.966 116.852 113.016 116.774 113.051C116.696 113.085 116.612 113.104 116.526 113.106C116.335 113.097 116.155 113.016 116.022 112.879C115.838 112.698 115.73 112.455 115.719 112.198C115.508 110.284 115.724 108.348 116.35 106.527C117.008 104.664 117.99 102.931 119.252 101.409C118.983 100.843 118.6 100.338 118.127 99.9256C117.653 99.5136 117.1 99.2035 116.501 99.0148C115.178 98.5568 113.787 98.3266 112.388 98.3342C110.571 98.3342 109.107 98.8887 107.997 99.9979C106.886 101.107 106.338 102.575 106.353 104.402V113.433C106.371 113.902 106.389 114.377 106.41 114.856C112.539 115.493 120.11 116.253 128.719 117.042C129.804 117.135 134.213 117.539 137.829 117.852Z" fill="#3C54D0"/>
<path d="M165.319 118.713C165.157 118.422 164.97 118.146 164.76 117.888C164.275 117.293 163.658 116.818 162.958 116.502C162.271 116.201 161.541 116.013 160.794 115.947C159.618 115.846 158.44 116.129 157.438 116.754C156.6 117.261 155.888 117.95 155.354 118.77C158.79 118.835 162.125 118.792 165.319 118.713Z" fill="#3C54D0"/>
<path d="M154.539 117.838C154.864 117.427 155.227 117.048 155.621 116.703C156.053 116.324 156.525 115.994 157.031 115.72C157.553 115.436 158.104 115.208 158.675 115.04C158.739 114.559 158.79 114.055 158.826 113.527C158.858 112.991 158.876 112.418 158.876 111.813L160.239 111.662C162.056 111.46 163.444 110.939 164.403 110.099C165.362 109.259 165.843 107.864 165.845 105.914C165.845 103.161 165.038 101.312 163.423 100.369C162.695 99.9559 161.885 99.7099 161.05 99.6486C160.027 99.5464 158.997 99.5295 157.972 99.5982V99.447C157.882 98.3798 157.653 97.329 157.29 96.3212C157.024 95.5945 156.582 94.9449 156.003 94.4307C155.448 93.9702 154.79 93.6503 154.085 93.498C153.239 93.3189 152.376 93.2343 151.511 93.2459C150.621 93.2336 149.733 93.3181 148.861 93.498C148.152 93.6427 147.492 93.9634 146.94 94.4307C146.374 94.9515 145.942 95.5996 145.678 96.3212C145.319 97.3277 145.107 98.3803 145.047 99.447C145.015 99.7819 145 100.11 145 100.43C145 100.751 144.982 101.078 144.95 101.413C144.182 101.562 143.423 101.755 142.678 101.993C142.045 102.188 141.461 102.514 140.962 102.951C140.477 103.394 140.106 103.947 139.881 104.564C139.605 105.366 139.477 106.212 139.502 107.06C139.502 109.782 140.31 111.614 141.925 112.555C142.335 112.774 142.766 112.951 143.212 113.084C143.727 113.24 144.263 113.316 144.802 113.311V114.067C144.843 115.589 144.915 117.03 145.018 118.389C148.054 118.569 151.042 118.68 153.966 118.749C154.122 118.424 154.314 118.119 154.539 117.838Z" fill="#3C54D0"/>
<path d="M198.901 116.098V105.057C198.91 104.165 198.765 103.278 198.472 102.436C198.2 101.652 197.771 100.931 197.21 100.318C196.645 99.7035 195.957 99.213 195.191 98.878C194.339 98.5126 193.419 98.3321 192.491 98.3486C191.556 98.3341 190.627 98.5143 189.766 98.878C188.996 99.2062 188.307 99.6977 187.747 100.318C187.202 100.938 186.782 101.657 186.51 102.436C186.219 103.279 186.074 104.166 186.081 105.057V115.745C186.103 116.083 185.995 116.417 185.778 116.678C185.612 116.879 185.379 117.013 185.122 117.056C185.003 117.071 184.881 117.058 184.768 117.019C184.654 116.98 184.551 116.915 184.466 116.829C184.239 116.591 184.11 116.276 184.105 115.947V105.41C184.116 104.435 183.98 103.464 183.702 102.529C183.45 101.682 182.99 100.911 182.364 100.286C181.68 99.6233 180.851 99.1299 179.941 98.8456C178.757 98.4823 177.521 98.3121 176.282 98.3414C175.018 98.3115 173.758 98.4817 172.547 98.8456C171.624 99.1315 170.778 99.6241 170.074 100.286C169.435 100.91 168.959 101.68 168.686 102.529C168.392 103.461 168.247 104.433 168.257 105.41C168.192 109.813 168.142 113.468 168.106 116.376C168.106 117.168 168.106 117.917 168.138 118.63C181.477 118.165 192.037 116.829 196.835 116.314C197.513 116.239 198.205 116.167 198.901 116.098Z" fill="#3C54D0"/>
<path d="M217.031 113.023C217.008 112.661 217.115 112.303 217.334 112.015C217.536 111.781 217.825 111.831 218.192 112.166C218.936 112.786 219.781 113.274 220.691 113.606C221.502 113.917 222.38 114.013 223.24 113.884C224.305 113.744 225.314 113.326 226.167 112.674C226.88 112.107 227.45 111.382 227.833 110.556C228.194 109.764 228.437 108.923 228.554 108.061C228.665 107.301 228.724 106.535 228.73 105.767C228.723 104.986 228.63 104.208 228.453 103.448C228.272 102.616 227.966 101.817 227.544 101.078C227.117 100.331 226.531 99.6854 225.828 99.1877C225.047 98.6469 224.128 98.3407 223.178 98.3054C220.857 98.135 218.934 98.6643 217.41 99.8935C215.886 101.123 214.799 103.247 214.147 106.267C214.014 106.804 213.787 107.042 213.426 106.988C213.066 106.934 212.929 106.584 212.997 105.979C213.098 104.77 213.424 103.591 213.956 102.501C214.485 101.406 215.183 100.403 216.026 99.5262C215.557 99.1565 214.657 98.8708 213.325 98.6691C211.93 98.4625 210.521 98.3614 209.111 98.3667C208.337 98.3667 207.597 98.3919 206.89 98.4423C206.264 98.4827 205.64 98.5585 205.023 98.6691C204.695 98.7163 204.383 98.8358 204.108 99.019C203.833 99.2021 203.602 99.4443 203.433 99.7279C203.033 100.379 202.815 101.125 202.802 101.888C202.732 105.586 202.682 109.257 202.65 112.904C202.65 113.851 202.65 114.806 202.65 115.756C206.955 115.396 211.717 115.104 216.949 114.957C216.97 114.309 216.999 113.664 217.031 113.023Z" fill="#3C54D0"/>
<path d="M256.793 115.292C258.038 114.053 258.724 112.233 258.851 109.832C258.991 108.076 258.705 106.313 258.019 104.69C257.401 103.294 256.458 102.067 255.268 101.111C254.029 100.144 252.608 99.4358 251.089 99.0292C249.43 98.5695 247.714 98.3405 245.992 98.3486C244.626 98.3513 243.265 98.4949 241.929 98.7771C240.564 99.0617 239.235 99.4927 237.963 100.063C236.669 100.655 235.503 101.495 234.531 102.533C233.543 103.59 232.718 104.788 232.083 106.087C231.414 107.45 230.914 108.889 230.594 110.373C230.267 111.857 230.115 113.375 230.14 114.895C237.761 115.04 246.165 115.493 255.376 116.383C255.889 116.075 256.365 115.709 256.793 115.292ZM251.641 108.511C251.61 108.728 251.513 108.93 251.363 109.091C251.301 109.168 251.219 109.228 251.126 109.264C251.033 109.299 250.932 109.309 250.834 109.292C249.682 109.031 248.507 108.887 247.326 108.864C246.104 108.86 244.889 109.038 243.721 109.393C243.634 109.429 243.538 109.436 243.447 109.413C243.356 109.391 243.275 109.339 243.216 109.267C243.076 109.103 242.988 108.901 242.963 108.687C242.931 108.458 242.957 108.223 243.039 108.007C243.086 107.893 243.158 107.79 243.25 107.708C243.342 107.625 243.451 107.563 243.569 107.528C244.728 107.056 245.98 106.859 247.228 106.952C248.477 107.028 249.718 107.205 250.938 107.481C251.063 107.497 251.183 107.542 251.288 107.612C251.393 107.682 251.48 107.775 251.544 107.884C251.641 108.078 251.675 108.297 251.641 108.511Z" fill="#3C54D0"/>
<path d="M114.565 46.9866C114.363 46.2124 114.626 45.8559 115.603 46.4537C116.266 46.9205 116.995 47.2847 117.766 47.534C124.256 49.3345 128.459 46.6841 130.41 44.6963C133.373 41.6751 139.423 40.213 143.183 42.7662C143.867 43.2462 144.401 43.9087 144.726 44.678C145.05 45.4472 145.152 46.2922 145.018 47.1163C143.886 54.6353 137.674 59.1222 129.628 58.9998C122.338 58.8773 116.35 53.753 114.565 46.9866Z" fill="#3C54D0"/>
<path d="M145.007 40.141C145.209 40.9152 144.946 41.2717 143.969 40.674C143.307 40.2071 142.577 39.8429 141.806 39.5937C135.317 37.7931 131.113 40.4435 129.163 42.4313C126.199 45.4526 120.15 46.9146 116.389 44.3615C115.706 43.8815 115.171 43.219 114.846 42.4497C114.522 41.6804 114.421 40.8354 114.554 40.0114C115.686 32.4924 121.898 28.0054 129.945 28.1279C137.235 28.2503 143.223 33.3746 145.007 40.141Z" fill="#F93347"/>
<path d="M171.967 42.8527C171.967 34.3772 169.451 26.0921 164.737 19.045C160.022 11.9979 153.322 6.5054 145.483 3.26198C137.644 0.0185672 129.018 -0.830058 120.695 0.823421C112.373 2.4769 104.729 6.55822 98.7292 12.5513C92.7293 18.5443 88.6433 26.1799 86.9879 34.4925C85.3326 42.8051 86.1822 51.4214 89.4293 59.2517C92.6764 67.082 98.1752 73.7746 105.23 78.4833C112.285 83.192 120.58 85.7053 129.065 85.7053C129.455 85.7053 129.84 85.7053 130.226 85.7053C130.28 85.7053 130.331 85.7053 130.388 85.7053H168.481C169.405 85.7053 170.292 85.3384 170.946 84.6854C171.599 84.0323 171.967 83.1466 171.967 82.2231V44.1743C171.967 44.1166 171.967 44.0662 171.967 44.0122C171.967 43.6269 171.967 43.2416 171.967 42.8527ZM129.606 65.8995C125.149 65.8995 120.793 64.5795 117.088 62.1064C113.382 59.6334 110.494 56.1183 108.789 52.0057C107.083 47.8932 106.637 43.3679 107.507 39.002C108.376 34.6361 110.522 30.6258 113.673 27.4782C116.824 24.3306 120.839 22.1871 125.21 21.3186C129.581 20.4502 134.111 20.8959 138.229 22.5994C142.346 24.3029 145.865 27.1876 148.341 30.8888C150.817 34.59 152.138 38.9414 152.138 43.3928C152.138 49.362 149.764 55.0866 145.539 59.3074C141.313 63.5282 135.582 65.8995 129.606 65.8995Z" fill="#F93347"/>
<mask id="mask1_73_6019" style="mask-type:luminance" maskUnits="userSpaceOnUse" x="86" y="0" width="86" height="86">
<path d="M129.083 0C120.598 0 112.304 2.51326 105.248 7.22197C98.1933 11.9307 92.6945 18.6233 89.4473 26.4536C86.2002 34.2839 85.3506 42.9002 87.006 51.2128C88.6614 59.5254 92.7473 67.161 98.7472 73.154C104.747 79.1471 112.391 83.2284 120.714 84.8819C129.036 86.5354 137.662 85.6867 145.501 82.4433C153.34 79.1999 160.04 73.7074 164.755 66.6603C169.469 59.6132 171.985 51.3281 171.985 42.8526C171.985 31.4874 167.465 20.5877 159.419 12.5512C151.374 4.51482 140.461 0 129.083 0ZM129.624 65.8994C125.168 65.8994 120.811 64.5795 117.106 62.1064C113.4 59.6333 110.512 56.1183 108.807 52.0057C107.101 47.8932 106.655 43.3678 107.525 39.002C108.394 34.6361 110.54 30.6258 113.691 27.4782C116.842 24.3306 120.857 22.187 125.228 21.3186C129.599 20.4502 134.13 20.8959 138.247 22.5994C142.364 24.3029 145.883 27.1876 148.359 30.8888C150.835 34.59 152.156 38.9414 152.156 43.3928C152.156 49.3619 149.782 55.0866 145.557 59.3074C141.331 63.5282 135.6 65.8994 129.624 65.8994Z" fill="white"/>
</mask>
<g mask="url(#mask1_73_6019)">
<g opacity="0.2">
<path d="M171.552 37.3069C170.486 29.154 167.094 21.4795 161.782 15.199C156.469 8.91861 149.459 4.29745 141.59 1.8869C140.412 1.52439 139.22 1.2147 138.013 0.957822C136.855 0.710549 135.683 0.51129 134.498 0.360045C133.313 0.208801 132.09 0.106771 130.828 0.0539551V40.89H171.862C171.808 39.6872 171.707 38.4917 171.552 37.3069ZM134.498 10.9004V4.46886C135.681 4.63451 136.852 4.85777 138.013 5.13145C139.174 5.40513 140.414 5.76524 141.59 6.16856C142.444 6.46024 143.284 6.78074 144.113 7.13364C148.236 8.86649 152.025 11.3036 155.311 14.3358L153.231 16.428C150.213 13.6574 146.74 11.428 142.963 9.83804C142.509 9.64358 142.047 9.45993 141.582 9.28708C140.411 8.84848 139.217 8.47106 138.006 8.15635V15.9022H134.491V10.9004H134.498ZM154.907 29.986H134.498V19.1648H138.013V26.3669H152.755C151.877 25.1079 150.9 23.9217 149.831 22.8199C149.708 22.6902 149.586 22.5642 149.47 22.4382C148.65 21.6176 147.78 20.8468 146.868 20.1299C146.302 19.6869 145.725 19.2656 145.13 18.8659V22.8271H141.6V12.9638L141.654 12.9854C149.348 16.2462 155.492 22.3369 158.815 29.9968L154.907 29.986ZM164.454 37.2961H134.498V33.5726H163.675C163.35 32.3607 162.96 31.167 162.507 29.9968C162.366 29.6367 162.222 29.2766 162.071 28.9165C160.529 25.2625 158.385 21.8921 155.729 18.9451L157.813 16.8493C162.994 22.5556 166.35 29.6783 167.449 37.3033L164.454 37.2961Z" fill="white"/>
<path d="M128.961 85.7053C119.056 85.7121 109.454 82.2956 101.785 76.0355C94.1149 69.7754 88.85 61.0573 86.8835 51.3609C84.9169 41.6645 86.3699 31.5871 90.9957 22.839C95.6215 14.0909 103.135 7.21101 112.262 3.36697C122.746 -1.05544 134.559 -1.13664 145.104 3.14124C155.648 7.41912 164.059 15.7057 168.486 26.1779C172.914 36.6501 172.995 48.4503 168.712 58.9824C164.429 69.5145 156.133 77.9158 145.649 82.3383C140.369 84.5685 134.694 85.7136 128.961 85.7053ZM128.961 4.07277C120.004 4.07921 111.325 7.17784 104.394 12.8438C97.4623 18.5097 92.7047 26.3947 90.9267 35.163C89.1487 43.9314 90.4597 53.0441 94.6375 60.9576C98.8154 68.871 105.603 75.0988 113.852 78.586C123.332 82.5474 133.998 82.5941 143.512 78.7157C153.027 74.8374 160.615 67.3502 164.613 57.8945C168.612 48.4387 168.696 37.7853 164.846 28.2682C160.996 18.751 153.526 11.146 144.074 7.11927C139.293 5.09718 134.152 4.06094 128.961 4.07277Z" fill="white"/>
<path d="M86.0591 40.89H127.097V0.0539551C125.864 0.10437 124.64 0.2064 123.427 0.360045C122.213 0.513691 121.041 0.712949 119.912 0.957822C118.71 1.2147 117.517 1.52439 116.332 1.8869C108.461 4.29525 101.451 8.91584 96.1381 15.1967C90.8256 21.4776 87.4355 29.1533 86.3727 37.3069C86.2177 38.4917 86.1168 39.6872 86.0591 40.89ZM123.427 14.4942V15.9022H119.912V8.17075C118.7 8.48598 117.505 8.86339 116.332 9.30148C115.87 9.47433 115.409 9.66159 114.955 9.85245C111.178 11.4424 107.704 13.6718 104.687 16.4424L102.607 14.3502C105.892 11.318 109.681 8.88089 113.805 7.14805C114.636 6.79514 115.477 6.47345 116.328 6.18296C117.506 5.77964 118.699 5.43394 119.908 5.14586C121.069 4.87218 122.241 4.64891 123.423 4.48326V14.4942H123.427ZM99.1098 29.9968C102.435 22.3349 108.583 16.2439 116.281 12.9854L116.332 12.9638V22.8199H112.806V18.8587C112.211 19.2584 111.634 19.6797 111.068 20.1227C110.155 20.8396 109.286 21.6104 108.465 22.431L108.105 22.8127C107.038 23.9155 106.062 25.1016 105.185 26.3597H119.926V19.1576H123.441V29.9968H99.1098ZM90.4898 37.3069C91.5893 29.682 94.9451 22.5592 100.126 16.8529L102.21 18.9487C99.5542 21.8957 97.4107 25.2661 95.8688 28.9201C95.7173 29.2802 95.5695 29.6403 95.4325 30.0004C94.9795 31.1706 94.5896 32.3643 94.2645 33.5762H123.43V37.3069H90.4898Z" fill="white"/>
<path d="M171.862 44.8008H130.828V85.6404C132.061 85.59 133.284 85.4868 134.498 85.3307C135.712 85.1747 136.884 84.9754 138.013 84.733C139.215 84.4785 140.407 84.1688 141.59 83.8039C142.987 83.3777 144.361 82.8788 145.707 82.3095C152.606 79.4027 158.622 74.7415 163.157 68.7899C167.691 62.8383 170.586 55.804 171.552 48.3874C171.707 47.1991 171.808 46.0035 171.862 44.8008ZM134.498 71.1966V69.7886H138.013V77.52C139.225 77.207 140.418 76.8295 141.59 76.3893C142.055 76.2165 142.516 76.0292 142.97 75.8419C146.747 74.2493 150.22 72.0189 153.238 69.2484L155.318 71.3442C152.031 74.374 148.242 76.8108 144.12 78.5463C143.284 78.9064 142.444 79.2197 141.597 79.5114C140.421 79.9147 139.229 80.2592 138.02 80.5449C136.86 80.821 135.688 81.0419 134.505 81.2075V71.1966H134.498ZM158.815 55.712C155.488 63.3722 149.34 69.4615 141.644 72.7198L141.59 72.7414V62.8745H145.119V66.8357C145.714 66.4396 146.291 66.0182 146.857 65.5753C147.771 64.8581 148.64 64.0861 149.46 63.2634C149.586 63.141 149.708 63.0114 149.82 62.8853C150.888 61.7815 151.866 60.5941 152.744 59.3347H138.013V66.5368H134.498V55.6976H158.815V55.712ZM167.439 48.4018C166.337 56.0263 162.982 63.1485 157.802 68.8559L155.718 66.7565C158.374 63.8102 160.517 60.4411 162.06 56.7887C162.211 56.4286 162.355 56.0685 162.496 55.7084C162.948 54.5378 163.338 53.3442 163.664 52.1325H134.498V48.3874H167.439V48.4018Z" fill="white"/>
<path d="M86.3727 48.3874C87.3488 55.8007 90.2471 62.8306 94.7805 68.7806C99.3139 74.7306 105.325 79.3942 112.218 82.3095C113.562 82.8788 114.935 83.3776 116.332 83.8039C117.514 84.1664 118.708 84.4761 119.912 84.733C121.073 84.973 122.244 85.1723 123.427 85.3307C124.609 85.4892 125.833 85.5924 127.097 85.6404V44.8008H86.0591C86.1168 46.0035 86.2177 47.1991 86.3727 48.3874ZM123.427 74.794V81.2219C122.244 81.0563 121.073 80.8354 119.912 80.5593C118.71 80.2737 117.517 79.9291 116.332 79.5258C115.481 79.2329 114.64 78.9112 113.808 78.5607C109.686 76.8252 105.898 74.3884 102.61 71.3586L104.691 69.2628C107.709 72.0333 111.182 74.2637 114.958 75.8563C115.412 76.0472 115.874 76.2164 116.335 76.4037C117.508 76.8434 118.703 77.2209 119.915 77.5344V69.7886H123.43V74.794H123.427ZM103.018 55.7084H123.427V66.5404H119.912V59.3383H105.17C106.048 60.5968 107.025 61.7841 108.09 62.8889C108.216 63.015 108.339 63.1446 108.451 63.267C109.271 64.0897 110.14 64.8617 111.054 65.5789C111.62 66.0218 112.197 66.4432 112.791 66.8393V62.8781H116.317V72.7414L116.267 72.7198C108.57 69.4615 102.422 63.3722 99.0954 55.712L103.018 55.7084ZM93.4713 48.3982H123.427V52.1325H94.2608C94.587 53.3442 94.9769 54.5378 95.4289 55.7084C95.5659 56.0685 95.7137 56.4286 95.8652 56.7887C97.408 60.4411 99.5514 63.8102 102.207 66.7565L100.123 68.8559C94.9419 63.1441 91.5874 56.0165 90.4898 48.3874L93.4713 48.3982Z" fill="white"/>
</g>
</g>
</svg>
