<svg width="167" height="28" viewBox="0 0 167 28" fill="none" xmlns="http://www.w3.org/2000/svg">
<g clip-path="url(#clip0_19_4184)">
<mask id="mask0_19_4184" style="mask-type:luminance" maskUnits="userSpaceOnUse" x="30" y="18" width="132" height="12">
<path d="M30.6709 23.2317C56.815 18.3087 68.7777 17.9505 74.8332 18.6208C75.879 18.7379 83.2823 19.6068 93.7347 20.5716C94.4413 20.639 98.0078 20.9671 99.7407 21.1036C112.087 22.0843 123.316 20.6407 127.121 20.2169C134.852 19.3603 146.228 18.9134 161.745 20.9263V28.552L30.6709 29.2613V23.2317Z" fill="white"/>
</mask>
<g mask="url(#mask0_19_4184)">
<path d="M39.8673 19.8073C39.852 20.4847 39.819 21.1462 39.7684 21.7917C39.7177 22.4372 39.6588 23.0828 39.5917 23.7283C39.5467 24.1734 39.447 24.6112 39.2949 25.0317C39.1565 25.4246 38.9422 25.7862 38.6643 26.0958C38.3874 26.3988 38.0504 26.6404 37.6751 26.8052C37.2492 26.9866 36.7898 27.0755 36.3272 27.0659C35.8565 27.0771 35.3888 26.9883 34.9547 26.8052C34.5793 26.6404 34.2424 26.3988 33.9654 26.0958C33.6876 25.7862 33.4733 25.4246 33.3348 25.0317C33.1827 24.6112 33.083 24.1734 33.038 23.7283C32.7877 21.3033 32.6639 18.8669 32.6671 16.4289C32.6639 13.991 32.7878 11.5545 33.038 9.12953C33.0824 8.68893 33.1821 8.25573 33.3348 7.84026C33.4755 7.45428 33.6897 7.09949 33.9654 6.79571C34.2424 6.49268 34.5793 6.25106 34.9547 6.08635C35.3888 5.90326 35.8565 5.81442 36.3272 5.82565C36.7898 5.81605 37.2492 5.9049 37.6751 6.08635C38.0504 6.25106 38.3874 6.49268 38.6643 6.79571C38.9432 7.09873 39.1605 7.45357 39.3038 7.84026C39.4564 8.25573 39.5562 8.68893 39.6005 9.12953C39.6841 9.94175 39.743 10.7238 39.7772 11.4758C39.8113 12.2277 39.8526 13.0263 39.9008 13.8716C40.2426 12.8731 40.6516 11.899 41.125 10.9561C41.5961 10.0198 42.0206 9.19574 42.3987 8.48401C42.6379 8.03008 42.9348 7.60923 43.2819 7.23197C43.6082 6.87314 43.9981 6.57846 44.4319 6.363C44.8643 6.15277 45.3365 6.03788 45.8168 6.02605C46.384 6.02508 46.9447 6.14602 47.4614 6.38073C48.4507 6.8099 49.1143 7.40104 49.4523 8.15415C49.7903 8.90726 49.7696 9.76382 49.3904 10.7238C49.1331 11.4064 48.8273 12.0696 48.4754 12.7083C48.1182 13.3628 47.7261 13.9974 47.3007 14.6094C46.8923 15.1972 46.4505 15.7609 45.9776 16.2977C45.5553 16.78 45.0919 17.2244 44.5926 17.626C44.5555 17.6449 44.5236 17.6727 44.4998 17.7071C44.4761 17.7415 44.4612 17.7812 44.4566 17.8228C44.4461 17.8969 44.4638 17.9722 44.5061 18.0339C44.5267 18.0632 44.553 18.0882 44.5833 18.1074C44.6136 18.1266 44.6474 18.1395 44.6827 18.1456C44.7288 18.152 44.7757 18.1487 44.8204 18.1359C44.8651 18.123 44.9067 18.101 44.9424 18.0711C45.1191 17.9239 45.2957 17.7749 45.4724 17.626C45.6517 17.4708 45.8211 17.3044 45.9793 17.1276C46.3509 17.5368 46.6977 17.968 47.018 18.4187C47.3444 18.8748 47.6457 19.3484 47.9207 19.8374C48.1928 20.3269 48.4401 20.8116 48.6626 21.2916C48.8715 21.7369 49.0572 22.1926 49.2191 22.6571C49.3598 23.0424 49.4204 23.4525 49.397 23.8621C49.3736 24.2718 49.2667 24.6723 49.0831 25.0388C48.7121 25.7837 48.0402 26.3547 47.0675 26.752C46.0441 27.1516 45.102 27.1687 44.2411 26.8034C43.3802 26.4381 42.656 25.7795 42.0683 24.8278C41.9199 24.563 41.7509 24.2367 41.5613 23.8489C41.3717 23.4611 41.178 23.0432 40.9802 22.5951C40.7823 22.1458 40.5886 21.6824 40.399 21.2047C40.21 20.717 40.0316 20.2542 39.8673 19.8073Z" fill="#F93347"/>
<path d="M58.6134 27.2307C57.1613 27.2307 55.9371 26.9493 54.9408 26.3866C53.9586 25.8379 53.1197 25.0637 52.4925 24.1272C51.8372 23.1369 51.3679 22.0346 51.1076 20.8748C50.8147 19.6206 50.6612 18.3377 50.65 17.0495C50.6459 16.3158 50.7416 15.5849 50.9344 14.8771C51.1071 14.226 51.3962 13.6119 51.7877 13.0647C52.164 12.5453 52.6549 12.1204 53.222 11.8233C53.8504 11.5061 54.5468 11.349 55.25 11.3657C55.9202 11.3485 56.5864 11.4755 57.2037 11.7382C57.7205 11.9649 58.1777 12.3091 58.5392 12.7437C58.8953 13.1852 59.1563 13.6961 59.3058 14.244C59.4739 14.8502 59.5572 15.4769 59.5531 16.1061C59.5531 16.6523 59.5231 17.2109 59.4666 17.7837C59.4065 18.3525 59.2881 18.9135 59.1133 19.4578C58.9356 20.0142 58.6861 20.5448 58.3714 21.0362C58.0308 21.5595 57.5994 22.0172 57.0977 22.3875C57.0555 22.4174 57.0203 22.4563 56.9947 22.5013C56.9691 22.5464 56.9536 22.5965 56.9493 22.6482C56.9486 22.7391 56.9792 22.8274 57.0359 22.8983C57.0916 22.9713 57.1699 23.0237 57.2585 23.0472C57.3076 23.0578 57.3583 23.0577 57.4073 23.047C57.4564 23.0363 57.5026 23.0152 57.5429 22.9852C58.0896 22.5857 58.5671 22.0986 58.9561 21.5434C59.3225 21.0064 59.606 20.4168 59.7969 19.7948C60.0008 19.1268 60.1375 18.44 60.205 17.7447C60.281 16.961 60.3099 16.1733 60.2915 15.3861C60.288 14.858 60.3335 14.3308 60.4276 13.8113C60.5042 13.3558 60.6725 12.9207 60.9222 12.5326C61.1646 12.1636 61.5022 11.8676 61.899 11.6761C62.3874 11.4528 62.9208 11.3465 63.4571 11.3657C64.5947 11.3657 65.4026 11.8386 65.8807 12.7845C66.3589 13.7303 66.5485 15.2779 66.4495 17.4273C66.3885 18.6765 66.1652 19.9124 65.7853 21.1036C65.4313 22.2227 64.8998 23.2772 64.2114 24.2266C63.5674 25.1145 62.7462 25.858 61.8001 26.4096C60.83 26.9641 59.7296 27.2476 58.6134 27.2307Z" fill="#F93347"/>
<path d="M70.7809 26.1119C70.2307 25.7753 69.738 25.3519 69.3218 24.8581C68.9101 24.3721 68.5611 23.8358 68.2831 23.2621C68.0017 22.6896 67.7899 22.0853 67.6525 21.462C67.5116 20.8347 67.4329 20.1949 67.4175 19.5521C67.4 18.788 67.4748 18.0246 67.6401 17.2786C67.7972 16.548 68.0422 15.8394 68.3697 15.1682C68.6814 14.5291 69.0856 13.9399 69.5691 13.4196C70.0452 12.9073 70.6165 12.4934 71.2508 12.2013C72.4889 11.6487 73.8282 11.3618 75.183 11.3589C76.0275 11.3583 76.868 11.4747 77.6808 11.7047C78.4276 11.9057 79.1259 12.2569 79.7335 12.7368C80.3161 13.2076 80.7782 13.8114 81.0813 14.4978C81.4166 15.2954 81.5565 16.1619 81.4894 17.025C81.4223 18.2001 81.0843 19.0945 80.4754 19.7081C79.8666 20.3217 78.9351 20.7763 77.6808 21.0719C77.3282 21.1581 76.9678 21.2086 76.6051 21.2226C76.2242 21.2394 75.8427 21.2138 75.4674 21.1464C75.1059 21.0839 74.7558 20.9673 74.4287 20.8006C74.1174 20.6444 73.856 20.4035 73.6744 20.1054C73.6073 20.0043 73.4801 19.9671 73.2911 19.9919C73.1021 20.0167 73.0226 20.1462 73.0562 20.3767C73.0867 20.591 73.1816 20.7908 73.3282 20.9495C73.517 21.1682 73.738 21.3566 73.9836 21.5081C74.2799 21.6921 74.6004 21.8336 74.9357 21.9284C75.3298 22.0407 75.7379 22.0951 76.1475 22.0898C76.3346 22.088 76.521 22.0672 76.704 22.0278L77.2339 21.9178C77.7083 21.7693 78.1915 21.6508 78.6807 21.5631C79.0316 21.4954 79.3929 21.5033 79.7406 21.5862C80.0513 21.673 80.325 21.8599 80.5196 22.1182C80.7781 22.4768 80.9784 22.8743 81.1131 23.2958C81.3922 24.0902 81.3139 24.7777 80.8782 25.3582C80.4425 25.9387 79.6057 26.4187 78.368 26.7982C77.8562 26.9634 77.3306 27.0821 76.7976 27.1529C76.2693 27.2052 75.7386 27.2301 75.2078 27.2274C74.4261 27.2285 73.6467 27.1447 72.8831 26.9774C72.136 26.8187 71.4238 26.5255 70.7809 26.1119ZM74.0701 16.8015C74.643 16.628 75.2383 16.5407 75.8366 16.5426C76.4152 16.5535 76.9911 16.6236 77.5554 16.7518C77.6033 16.7603 77.6526 16.7555 77.6981 16.738C77.7435 16.7205 77.7833 16.691 77.8133 16.6525C77.8854 16.5734 77.9327 16.4747 77.9493 16.3688C77.9659 16.2627 77.9486 16.1541 77.8999 16.0584C77.8691 16.0043 77.8264 15.9581 77.7749 15.9234C77.7234 15.8886 77.6646 15.8662 77.6031 15.858C77.006 15.7262 76.3993 15.642 75.7889 15.6062C75.1775 15.5604 74.5637 15.6575 73.9959 15.89C73.9381 15.9078 73.8849 15.9382 73.84 15.9789C73.7951 16.0197 73.7597 16.0698 73.7363 16.1258C73.694 16.2328 73.6812 16.3492 73.6992 16.4628C73.7104 16.5679 73.7535 16.6669 73.8228 16.7465C73.8528 16.781 73.893 16.8049 73.9375 16.8148C73.982 16.8246 74.0285 16.82 74.0701 16.8015Z" fill="#F93347"/>
<path d="M89.8484 22.4638C89.8149 22.728 89.7937 22.9852 89.7866 23.2317C89.7795 23.4782 89.7566 23.7283 89.7248 23.9783C89.6258 24.9241 89.3167 25.6731 88.7974 26.2252C88.278 26.7773 87.5019 27.054 86.4691 27.0552C85.4092 27.0552 84.6055 26.7785 84.0579 26.2252C83.5103 25.6719 83.1846 24.9229 83.081 23.9783C82.9986 23.1507 82.9397 22.2853 82.9043 21.382C82.869 20.4788 82.826 19.6175 82.7754 18.7982V14.3433C82.7754 13.4495 83.0474 12.7301 83.5915 12.1851C84.1356 11.6401 84.8528 11.3669 85.7431 11.3658C86.4292 11.3632 87.1108 11.4777 87.7587 11.7045C88.0523 11.7974 88.3236 11.9503 88.5556 12.1536C88.7875 12.3568 88.9751 12.6061 89.1065 12.8856C88.488 13.6347 88.0066 14.4879 87.6845 15.4056C87.3778 16.3024 87.2723 17.2562 87.3753 18.1987C87.3813 18.3246 87.4343 18.4437 87.5237 18.5321C87.589 18.5999 87.6773 18.6404 87.771 18.6456C87.8128 18.6448 87.8541 18.6356 87.8923 18.6185C87.9305 18.6014 87.965 18.5769 87.9936 18.5463C88.0645 18.4641 88.1001 18.3569 88.0925 18.2484C88.043 17.6161 88.0846 16.98 88.2162 16.3597C88.3422 15.7467 88.5415 15.1513 88.8097 14.5863C89.0582 14.0553 89.3741 13.5587 89.7495 13.109C90.0735 12.7109 90.4566 12.3652 90.8854 12.084C91.2413 11.8718 91.6185 11.6977 92.0106 11.5644C92.3967 11.4317 92.802 11.3646 93.2101 11.3658C93.8972 11.3668 94.5791 11.4868 95.2256 11.7204C95.8647 11.9438 96.4375 12.325 96.8914 12.8288C97.2199 13.184 97.4949 13.5855 97.7075 14.0206C97.9045 14.4325 98.0539 14.8656 98.1527 15.3116C98.2529 15.7652 98.312 16.227 98.3294 16.6913C98.3453 17.1631 98.3541 17.6454 98.3541 18.142C98.3364 19.0872 98.2834 20.075 98.1933 21.1107C98.1126 22.0751 97.968 23.0331 97.7605 23.9783C97.6699 24.4148 97.5288 24.8391 97.3401 25.2427C97.171 25.6058 96.9362 25.9341 96.6477 26.211C96.3578 26.4822 96.0174 26.6932 95.6461 26.8317C95.1977 26.9908 94.7242 27.0665 94.2488 27.0552C93.1606 27.0552 92.3321 26.7785 91.7633 26.2252C91.1945 25.6719 90.8524 24.9229 90.737 23.9783C90.7034 23.7619 90.6787 23.5474 90.6628 23.331C90.6469 23.1146 90.6292 22.893 90.6133 22.6624C90.6175 22.5368 90.583 22.4129 90.5144 22.3077C90.4625 22.2283 90.3832 22.1709 90.2918 22.1464C90.2484 22.1389 90.204 22.1408 90.1614 22.1518C90.1188 22.1628 90.0789 22.1827 90.0445 22.2102C89.9565 22.2743 89.8885 22.3623 89.8484 22.4638Z" fill="#F93347"/>
<path d="M100.842 18.6208C100.623 18.5557 100.411 18.4677 100.211 18.3584C99.4196 17.8961 99.0239 16.994 99.0239 15.6522C99.0084 15.2357 99.0683 14.8199 99.2005 14.4249C99.3105 14.1204 99.4923 13.8472 99.7305 13.6287C99.975 13.4144 100.261 13.2537 100.571 13.157C100.936 13.0406 101.308 12.9458 101.684 12.8732C101.7 12.7065 101.709 12.5451 101.709 12.3873C101.709 12.2262 101.717 12.0652 101.734 11.9049C101.761 11.3788 101.865 10.8596 102.043 10.3638C102.171 10.0078 102.383 9.6883 102.661 9.43278C102.932 9.20445 103.257 9.04886 103.604 8.98056C104.032 8.89347 104.467 8.85245 104.903 8.8582C105.326 8.85285 105.749 8.89388 106.164 8.98056C106.51 9.05556 106.832 9.21312 107.104 9.43988C107.387 9.69313 107.604 10.013 107.734 10.3709C107.912 10.8678 108.024 11.3859 108.068 11.912V11.9865C108.571 11.953 109.075 11.9607 109.577 12.0096C109.986 12.0397 110.383 12.1609 110.739 12.3642C111.531 12.8265 111.926 13.7369 111.926 15.0953C111.926 16.0541 111.691 16.741 111.22 17.156C110.749 17.571 110.069 17.8275 109.179 17.9257L108.512 17.9984C108.512 18.2963 108.503 18.5783 108.487 18.8425C108.471 19.1068 108.445 19.3568 108.413 19.5874C108.134 19.6699 107.864 19.7822 107.609 19.9225C107.361 20.0582 107.129 20.2212 106.917 20.4085C106.722 20.5771 106.545 20.7642 106.387 20.9671C106.255 21.1281 106.146 21.3073 106.065 21.4991C106.031 21.5821 106.031 21.675 106.065 21.758C106.078 21.7921 106.097 21.8231 106.123 21.8488C106.149 21.8745 106.18 21.8944 106.213 21.907C106.281 21.9322 106.354 21.9371 106.424 21.9212C106.461 21.9117 106.495 21.8929 106.523 21.8666C106.551 21.8402 106.573 21.8071 106.584 21.7704C106.858 21.217 107.283 20.7527 107.809 20.4315C108.299 20.1232 108.877 19.9838 109.453 20.0343C109.819 20.0655 110.177 20.1571 110.513 20.3056C110.856 20.4622 111.159 20.6965 111.396 20.9901C111.669 21.3306 111.871 21.7226 111.99 22.1429C112.137 22.6843 112.183 23.2481 112.126 23.8063C112.1 24.3313 111.929 24.8386 111.631 25.2712C111.328 25.7084 110.936 26.0764 110.481 26.3512C109.976 26.6566 109.425 26.8793 108.849 27.0109C108.221 27.1609 107.578 27.2359 106.932 27.2343C105.745 27.2343 104.803 27.0393 104.106 26.6491C103.431 26.2738 102.886 25.7001 102.544 25.0051C102.16 24.2014 101.921 23.3355 101.838 22.4479C101.72 21.4477 101.646 20.3346 101.615 19.1085V18.7379C101.353 18.7381 101.092 18.6987 100.842 18.6208Z" fill="#F93347"/>
<path d="M122.071 26.4843C121.508 26.6803 120.929 26.8216 120.339 26.9064C119.71 27.0056 119.073 27.0554 118.435 27.0554C117.429 27.0554 116.605 26.923 115.962 26.6581C115.308 26.4352 114.719 26.056 114.243 25.5533C113.807 25.0355 113.503 24.418 113.36 23.7551C113.13 22.8435 113.023 21.6719 113.039 20.2401C113.054 18.8084 113.079 17.009 113.113 14.8419C113.107 14.3608 113.178 13.8819 113.323 13.4231C113.457 13.0042 113.69 12.6243 114.003 12.3165C114.349 11.9918 114.763 11.7494 115.215 11.6072C115.808 11.4286 116.426 11.3454 117.045 11.3607C117.652 11.3456 118.257 11.4289 118.838 11.6072C119.283 11.7486 119.689 11.9913 120.025 12.3165C120.332 12.6249 120.557 13.0052 120.68 13.4231C120.817 13.8833 120.884 14.3616 120.878 14.8419V20.0398C120.881 20.2011 120.944 20.3556 121.055 20.4725C121.096 20.5151 121.147 20.5476 121.202 20.5673C121.258 20.5869 121.318 20.5934 121.376 20.586C121.502 20.563 121.616 20.4965 121.698 20.398C121.804 20.2696 121.857 20.1052 121.846 19.9387V14.6681C121.843 14.2283 121.914 13.7911 122.056 13.3753C122.19 12.9922 122.395 12.6387 122.662 12.3343C122.937 12.029 123.275 11.787 123.652 11.6249C124.074 11.4464 124.529 11.3582 124.987 11.366C125.441 11.3573 125.892 11.4455 126.31 11.6249C126.684 11.7894 127.02 12.0298 127.297 12.3311C127.573 12.6324 127.785 12.9879 127.918 13.3753C128.061 13.7908 128.132 14.2282 128.128 14.6681V22.6857C128.161 23.1007 128.202 23.5393 128.252 24.0016C128.301 24.4384 128.309 24.879 128.276 25.3174C128.253 25.7031 128.139 26.0777 127.942 26.4099C127.836 26.5748 127.696 26.7153 127.532 26.8222C127.368 26.9292 127.184 27.0002 126.99 27.0306C126.349 27.1805 125.695 27.2637 125.037 27.2788C124.362 27.2788 123.837 27.1795 123.466 26.9809C123.133 26.8166 122.844 26.5731 122.625 26.2715C122.443 26.0031 122.313 25.7021 122.242 25.3848C122.177 25.078 122.118 24.8173 122.065 24.6027C122.042 24.5295 121.994 24.4667 121.929 24.4254C121.903 24.4091 121.874 24.3987 121.843 24.3947C121.813 24.3907 121.782 24.3933 121.753 24.4024C121.692 24.4213 121.64 24.46 121.604 24.5123C121.586 24.5376 121.573 24.5664 121.567 24.597C121.56 24.6276 121.561 24.6591 121.567 24.6896C121.585 24.8227 121.613 24.9769 121.654 25.1507C121.694 25.3245 121.74 25.4966 121.79 25.6721C121.839 25.8477 121.885 26.0073 121.926 26.1563C121.954 26.2734 122.003 26.3845 122.071 26.4843Z" fill="#F93347"/>
<path d="M136.514 11.9352C136.102 12.3672 135.759 12.8615 135.5 13.4C135.239 13.937 135.08 14.5179 135.03 15.1131C134.998 15.4111 135.067 15.5778 135.24 15.6115C135.413 15.6452 135.533 15.5281 135.593 15.2568C135.923 13.7683 136.459 12.722 137.201 12.1178C137.943 11.5137 138.885 11.253 140.027 11.3358C140.492 11.3525 140.943 11.5027 141.326 11.7685C141.67 12.0136 141.957 12.3314 142.167 12.6995C142.373 13.0636 142.523 13.4571 142.612 13.8664C142.698 14.2416 142.744 14.6252 142.748 15.0103C142.744 15.3884 142.716 15.7658 142.661 16.1399C142.605 16.5644 142.486 16.9781 142.308 17.3671C142.121 17.7744 141.842 18.1316 141.492 18.4099C141.074 18.7319 140.579 18.9381 140.057 19.0076C139.636 19.0702 139.206 19.0232 138.808 18.871C138.363 18.7072 137.949 18.4672 137.584 18.1616C137.408 17.9949 137.263 17.9701 137.164 18.0872C137.056 18.2287 137.004 18.4044 137.016 18.5819C136.984 19.4775 136.941 20.3695 136.892 21.2651C136.842 22.1607 136.777 23.0527 136.694 23.9447C136.649 24.3916 136.545 24.8306 136.385 25.25C136.241 25.6403 136.027 26.0009 135.754 26.314C135.483 26.6183 135.15 26.8602 134.777 27.0234C134.351 27.2044 133.892 27.2926 133.43 27.2823C132.955 27.293 132.483 27.2048 132.045 27.0234C131.665 26.8604 131.323 26.6186 131.043 26.314C130.765 26.0046 130.551 25.6429 130.412 25.25C130.261 24.8298 130.17 24.3905 130.14 23.9447C130.01 22.1252 129.951 20.3169 129.964 18.5199C129.977 16.7228 130.001 14.9145 130.038 13.095C130.045 12.719 130.152 12.3517 130.347 12.0309C130.429 11.8896 130.542 11.7686 130.677 11.6765C130.811 11.5845 130.965 11.5238 131.126 11.4989C131.43 11.4497 131.737 11.4177 132.045 11.4031C132.398 11.3765 132.751 11.3659 133.133 11.3659C133.824 11.3637 134.514 11.4129 135.198 11.5131C135.843 11.6124 136.284 11.7543 136.514 11.9352Z" fill="#F93347"/>
<path d="M146.802 26.1119C146.252 25.7749 145.759 25.3516 145.343 24.8581C144.932 24.3712 144.583 23.8351 144.304 23.2621C144.023 22.6896 143.811 22.0853 143.674 21.462C143.534 20.8346 143.455 20.1949 143.439 19.5521C143.423 18.7881 143.498 18.0249 143.661 17.2786C143.818 16.548 144.063 15.8394 144.391 15.1682C144.702 14.5291 145.107 13.9399 145.59 13.4196C146.067 12.9076 146.638 12.4938 147.272 12.2013C148.51 11.6487 149.849 11.3618 151.204 11.3589C152.049 11.3583 152.889 11.4747 153.702 11.7047C154.449 11.9057 155.147 12.2569 155.755 12.7368C156.338 13.2072 156.8 13.8111 157.102 14.4978C157.438 15.2954 157.578 16.1619 157.51 17.025C157.446 18.2001 157.108 19.0945 156.496 19.7081C155.885 20.3217 154.954 20.7763 153.702 21.0719C153.349 21.1581 152.989 21.2086 152.626 21.2226C152.245 21.2393 151.864 21.2137 151.488 21.1464C151.127 21.0839 150.777 20.9673 150.45 20.8006C150.139 20.6438 149.878 20.4031 149.695 20.1054C149.63 20.0043 149.501 19.9671 149.312 19.9919C149.123 20.0167 149.044 20.1462 149.077 20.3767C149.108 20.5908 149.203 20.7905 149.349 20.9495C149.538 21.1682 149.759 21.3566 150.005 21.5081C150.301 21.6918 150.622 21.8333 150.957 21.9284C151.351 22.0407 151.759 22.0951 152.169 22.0898C152.356 22.088 152.542 22.0672 152.725 22.0278C152.932 21.987 153.108 21.9497 153.255 21.9178C153.729 21.7693 154.213 21.6508 154.702 21.5631C155.053 21.4953 155.414 21.5032 155.762 21.5862C156.073 21.672 156.347 21.8592 156.541 22.1182C156.799 22.4768 156.999 22.8743 157.134 23.2958C157.414 24.0902 157.336 24.7777 156.899 25.3582C156.462 25.9387 155.626 26.4187 154.389 26.7982C153.877 26.9636 153.352 27.0823 152.819 27.1529C152.29 27.2052 151.76 27.2301 151.229 27.2274C150.447 27.2285 149.668 27.1447 148.904 26.9774C148.157 26.8184 147.445 26.5252 146.802 26.1119ZM150.091 16.8015C150.664 16.6281 151.259 16.5409 151.858 16.5426C152.436 16.5534 153.012 16.6235 153.576 16.7518C153.625 16.7606 153.674 16.756 153.72 16.7385C153.766 16.721 153.806 16.6913 153.836 16.6525C153.909 16.5739 153.956 16.475 153.972 16.3688C153.989 16.2627 153.971 16.1541 153.923 16.0584C153.892 16.0043 153.849 15.9581 153.798 15.9234C153.746 15.8886 153.687 15.8662 153.626 15.858C153.028 15.7261 152.421 15.6419 151.81 15.6062C151.199 15.5606 150.585 15.6577 150.017 15.89C149.959 15.9078 149.906 15.9382 149.861 15.9789C149.816 16.0197 149.781 16.0698 149.757 16.1258C149.717 16.2332 149.704 16.3491 149.72 16.4628C149.732 16.5676 149.776 16.6663 149.844 16.7465C149.874 16.781 149.914 16.8049 149.959 16.8148C150.003 16.8246 150.05 16.82 150.091 16.8015Z" fill="#F93347"/>
</g>
<path d="M39.8672 19.8073C40.0315 20.2542 40.2099 20.717 40.3972 21.1976L40.5085 21.4725C43.243 21.015 45.7891 20.6159 48.1468 20.2754C48.0708 20.1318 47.9966 19.9882 47.9154 19.8427C47.6404 19.3537 47.3391 18.8801 47.0127 18.424C46.6924 17.9733 46.3455 17.5422 45.974 17.133C45.8157 17.3097 45.6464 17.4762 45.467 17.6313C45.2904 17.7803 45.1137 17.9292 44.9371 18.0764C44.9013 18.1063 44.8598 18.1284 44.8151 18.1412C44.7703 18.154 44.7234 18.1573 44.6774 18.1509C44.6421 18.1449 44.6083 18.1319 44.578 18.1127C44.5476 18.0936 44.5214 18.0686 44.5007 18.0392C44.4584 17.9776 44.4408 17.9022 44.4513 17.8281C44.4559 17.7866 44.4707 17.7468 44.4945 17.7124C44.5182 17.6781 44.5501 17.6502 44.5873 17.6313C45.0865 17.2298 45.5499 16.7853 45.9722 16.303C46.4452 15.7662 46.887 15.2025 47.2953 14.6147C47.7207 14.0027 48.1129 13.3681 48.47 12.7136C48.822 12.075 49.1278 11.4118 49.3851 10.7292C49.7655 9.76796 49.7861 8.9114 49.4469 8.15947C49.1077 7.40754 48.4453 6.81581 47.4596 6.38428C46.9429 6.14956 46.3821 6.02862 45.815 6.0296C45.3347 6.04143 44.8625 6.15632 44.4301 6.36655C43.9963 6.58201 43.6063 6.87669 43.2801 7.23552C42.933 7.61277 42.6361 8.03363 42.3968 8.48755C42.0176 9.19692 41.5931 10.021 41.1232 10.9597C40.6498 11.9026 40.2408 12.8766 39.899 13.8752C39.8496 13.031 39.8083 12.2324 39.7754 11.4793C39.7424 10.7262 39.6835 9.94412 39.5987 9.13308C39.5552 8.69135 39.4561 8.25695 39.3037 7.84026C39.163 7.45428 38.9488 7.09949 38.6731 6.79571C38.3961 6.49268 38.0592 6.25106 37.6838 6.08635C37.2579 5.9049 36.7986 5.81605 36.336 5.82565C35.8653 5.81442 35.3975 5.90326 34.9634 6.08635C34.5881 6.25106 34.2512 6.49268 33.9742 6.79571C33.6984 7.09949 33.4842 7.45428 33.3436 7.84026C33.1909 8.25573 33.0912 8.68893 33.0468 9.12953C32.7966 11.5545 32.6727 13.991 32.6758 16.4289C32.6758 18.6031 32.7695 20.7271 32.9567 22.8008C35.3556 22.3598 37.632 21.9578 39.786 21.5949C39.8231 21.0114 39.8531 20.4173 39.8672 19.8073Z" fill="#3C54D0"/>
<path d="M66.4529 17.4219C66.5518 15.2713 66.3622 13.7237 65.8841 12.7791C65.4059 11.8345 64.5981 11.3616 63.4605 11.3604C62.9242 11.3411 62.3908 11.4474 61.9024 11.6707C61.5056 11.8622 61.1679 12.1583 60.9255 12.5273C60.6759 12.9153 60.5076 13.3504 60.4309 13.8059C60.3369 14.3254 60.2913 14.8527 60.2949 15.3807C60.3133 16.1679 60.2844 16.9556 60.2083 17.7393C60.1695 18.1189 60.113 18.4842 60.0405 18.8389C62.4218 18.6243 64.5186 18.4842 66.3663 18.4186C66.4052 18.0887 66.4352 17.7606 66.4529 17.4219Z" fill="#3C54D0"/>
<path d="M59.4666 17.7836C59.5231 17.2107 59.5531 16.6521 59.5531 16.1059C59.5572 15.4767 59.4739 14.85 59.3058 14.2438C59.1563 13.6959 58.8953 13.185 58.5392 12.7435C58.1777 12.309 57.7205 11.9647 57.2037 11.738C56.5864 11.4753 55.9202 11.3483 55.25 11.3656C54.5468 11.3488 53.8504 11.5059 53.222 11.8231C52.6549 12.1203 52.164 12.5451 51.7877 13.0645C51.3962 13.6117 51.1071 14.2259 50.9344 14.8769C50.7416 15.5847 50.6459 16.3156 50.65 17.0494C50.6601 18.0006 50.7463 18.9495 50.9079 19.8868C54.0205 19.4665 56.7939 19.1473 59.2687 18.9115C59.361 18.5406 59.4272 18.1637 59.4666 17.7836Z" fill="#3C54D0"/>
<path d="M74.8332 18.621C75.3631 18.6795 77.4971 18.9295 80.8216 19.286C81.212 18.7096 81.4363 17.9595 81.4893 17.032C81.5573 16.1672 81.4173 15.2987 81.0813 14.4995C80.7782 13.8131 80.316 13.2093 79.7334 12.7385C79.126 12.2579 78.4277 11.9062 77.6808 11.7046C76.8674 11.4788 76.0269 11.3666 75.1829 11.3712C73.8281 11.3742 72.4888 11.6611 71.2507 12.2136C70.6164 12.5057 70.0451 12.9196 69.569 13.4319C69.0855 13.9522 68.6813 14.5415 68.3696 15.1805C68.0421 15.8517 67.7971 16.5604 67.64 17.2909C67.5597 17.6542 67.5007 18.0219 67.4634 18.3922C69.9223 18.3025 72.3845 18.3789 74.8332 18.621ZM73.7362 16.1258C73.7596 16.0698 73.7951 16.0196 73.8399 15.9789C73.8848 15.9381 73.938 15.9077 73.9959 15.8899C74.5636 15.6574 75.1774 15.5603 75.7889 15.6061C76.4006 15.644 77.0084 15.7306 77.6066 15.8651C77.6681 15.8733 77.7269 15.8956 77.7783 15.9304C77.8298 15.9651 77.8726 16.0114 77.9033 16.0655C77.952 16.1611 77.9693 16.2697 77.9528 16.3758C77.9362 16.4817 77.8889 16.5804 77.8168 16.6596C77.7866 16.6983 77.7465 16.7281 77.7007 16.7456C77.655 16.7631 77.6053 16.7677 77.5571 16.7589C76.9928 16.6306 76.4168 16.5605 75.8383 16.5496C75.24 16.5477 74.6447 16.635 74.0718 16.8085C74.0294 16.8262 73.9825 16.8297 73.9379 16.8186C73.8934 16.8074 73.8536 16.7821 73.8245 16.7465C73.7552 16.6669 73.7121 16.5678 73.7009 16.4627C73.681 16.3469 73.6932 16.2279 73.7362 16.1187V16.1258Z" fill="#3C54D0"/>
<path d="M98.2057 20.9688C98.2881 19.9863 98.3382 19.0441 98.3558 18.142C98.3558 17.6454 98.3559 17.163 98.3311 16.6913C98.3138 16.227 98.2547 15.7652 98.1545 15.3116C98.0557 14.8656 97.9063 14.4324 97.7093 14.0206C97.4961 13.5853 97.2206 13.1838 96.8914 12.8288C96.4374 12.3219 95.8632 11.9382 95.2221 11.7133C94.5755 11.4797 93.8937 11.3597 93.2065 11.3587C92.7985 11.3575 92.3931 11.4246 92.0071 11.5573C91.6159 11.6931 91.2399 11.8696 90.8854 12.084C90.4565 12.3629 90.0729 12.7062 89.7477 13.1019C89.3723 13.5516 89.0565 14.0481 88.808 14.5792C88.5397 15.1442 88.3404 15.7396 88.2144 16.3526C88.0828 16.9729 88.0412 17.609 88.0908 18.2413C88.0983 18.3498 88.0628 18.4569 87.9918 18.5392C87.9632 18.5698 87.9287 18.5943 87.8905 18.6114C87.8523 18.6284 87.8111 18.6377 87.7693 18.6385C87.6755 18.6333 87.5872 18.5928 87.522 18.525C87.4325 18.4365 87.3796 18.3175 87.3736 18.1916C87.2705 17.2491 87.3761 16.2953 87.6827 15.3985C88.0048 14.4808 88.4863 13.6276 89.1047 12.8785C88.9727 12.6005 88.7851 12.3527 88.5535 12.1507C88.3219 11.9487 88.0513 11.7968 87.7587 11.7045C87.1105 11.4795 86.4289 11.3668 85.7431 11.3711C84.8528 11.3711 84.1356 11.6442 83.5915 12.1904C83.0474 12.7366 82.7754 13.456 82.7754 14.3486V18.7981C82.7842 19.0269 82.7931 19.261 82.8037 19.4969C85.8067 19.8125 89.5163 20.1849 93.7347 20.5733C94.2735 20.6159 96.4339 20.8145 98.2057 20.9688Z" fill="#3C54D0"/>
<path d="M111.676 21.3926C111.597 21.2492 111.505 21.1133 111.402 20.9865C111.164 20.6928 110.862 20.4585 110.519 20.302C110.183 20.1535 109.824 20.0618 109.459 20.0306C108.882 19.9801 108.305 20.1196 107.814 20.4279C107.403 20.6764 107.054 21.0154 106.793 21.4192C108.476 21.444 110.11 21.4298 111.676 21.3926Z" fill="#3C54D0"/>
<path d="M106.393 20.9617C106.552 20.7588 106.729 20.5718 106.923 20.4031C107.135 20.2158 107.368 20.0529 107.616 19.9172C107.871 19.7769 108.14 19.6645 108.419 19.582C108.451 19.3455 108.476 19.0973 108.494 18.8372C108.51 18.5729 108.518 18.2909 108.518 17.993L109.186 17.9203C110.076 17.8198 110.757 17.5633 111.226 17.1506C111.696 16.738 111.932 16.0511 111.933 15.0899C111.933 13.7315 111.537 12.8211 110.746 12.3589C110.39 12.1555 109.992 12.0344 109.584 12.0042C109.082 11.9553 108.578 11.9476 108.075 11.9811V11.9066C108.031 11.3805 107.919 10.8625 107.741 10.3655C107.611 10.0076 107.394 9.68776 107.111 9.43451C106.839 9.20775 106.516 9.05019 106.171 8.97519C105.756 8.88851 105.333 8.84748 104.909 8.85282C104.474 8.84708 104.038 8.8881 103.611 8.97519C103.264 9.04613 102.941 9.20415 102.671 9.43451C102.393 9.69002 102.181 10.0095 102.053 10.3655C101.876 10.8614 101.771 11.3806 101.744 11.9066C101.727 12.0669 101.719 12.2279 101.719 12.389C101.719 12.5469 101.71 12.7082 101.694 12.8749C101.318 12.9476 100.947 13.0423 100.582 13.1587C100.272 13.2555 99.9852 13.4161 99.7407 13.6304C99.5026 13.8489 99.3207 14.1222 99.2108 14.4267C99.0785 14.8217 99.0187 15.2375 99.0341 15.6539C99.0341 16.9969 99.4298 17.899 100.221 18.3601C100.422 18.4694 100.633 18.5574 100.852 18.6226C101.104 18.6991 101.367 18.7368 101.631 18.7343V19.1049C101.65 19.8545 101.685 20.5639 101.737 21.233C103.224 21.3217 104.689 21.3767 106.121 21.4104C106.194 21.2508 106.286 21.1003 106.393 20.9617Z" fill="#3C54D0"/>
<path d="M128.13 20.1035V14.6679C128.135 14.2281 128.063 13.7907 127.92 13.3751C127.787 12.9877 127.575 12.6322 127.299 12.331C127.022 12.0297 126.686 11.7893 126.312 11.6248C125.894 11.4454 125.443 11.3572 124.989 11.3658C124.531 11.3581 124.076 11.4462 123.654 11.6248C123.277 11.7869 122.939 12.0289 122.664 12.3341C122.397 12.6386 122.192 12.9921 122.059 13.3751C121.916 13.7909 121.845 14.2281 121.848 14.6679V19.9297C121.859 20.0962 121.806 20.2606 121.7 20.389C121.618 20.4875 121.504 20.554 121.378 20.577C121.32 20.5844 121.26 20.578 121.204 20.5583C121.149 20.5386 121.098 20.5061 121.057 20.4635C120.946 20.3466 120.883 20.1921 120.88 20.0308V14.8417C120.886 14.3615 120.819 13.8832 120.682 13.423C120.56 13.0069 120.337 12.6279 120.032 12.3199C119.696 11.9948 119.29 11.752 118.845 11.6106C118.265 11.4323 117.659 11.349 117.052 11.3641C116.433 11.3489 115.815 11.4321 115.222 11.6106C114.77 11.7528 114.356 11.9952 114.01 12.3199C113.697 12.6278 113.464 13.0076 113.33 13.4266C113.186 13.8853 113.115 14.3642 113.12 14.8453C113.088 17.0124 113.064 18.8118 113.046 20.2436C113.046 20.6337 113.046 21.0026 113.062 21.3537C119.598 21.125 124.772 20.467 127.123 20.2134L128.13 20.1035Z" fill="#3C54D0"/>
<path d="M137.008 18.5889C136.996 18.4114 137.049 18.2356 137.156 18.0941C137.255 17.9771 137.397 18.0019 137.577 18.1686C137.941 18.4742 138.355 18.7142 138.801 18.878C139.199 19.0302 139.629 19.0772 140.05 19.0145C140.572 18.945 141.067 18.7389 141.484 18.4169C141.834 18.1401 142.113 17.7847 142.3 17.3794C142.479 16.9903 142.598 16.5767 142.654 16.1522C142.708 15.7781 142.737 15.4006 142.74 15.0226C142.737 14.6374 142.691 14.2539 142.604 13.8787C142.516 13.4694 142.365 13.0759 142.159 12.7118C141.95 12.3436 141.663 12.0259 141.318 11.7807C140.937 11.5166 140.488 11.3671 140.025 11.3498C138.888 11.2659 137.945 11.5266 137.199 12.1319C136.452 12.7372 135.916 13.7835 135.591 15.2708C135.526 15.5368 135.415 15.6521 135.238 15.6255C135.061 15.5989 134.996 15.4251 135.028 15.1272C135.078 14.5319 135.237 13.9511 135.498 13.4141C135.757 12.8755 136.099 12.3812 136.512 11.9492C136.282 11.7719 135.84 11.6265 135.189 11.5271C134.505 11.4269 133.815 11.3777 133.124 11.38C132.746 11.38 132.382 11.3906 132.035 11.4172C131.729 11.4366 131.423 11.4733 131.12 11.5271C130.959 11.552 130.806 11.6127 130.671 11.7048C130.536 11.7968 130.424 11.9179 130.341 12.0592C130.146 12.3799 130.039 12.7472 130.032 13.1232C130 14.9451 129.976 16.7534 129.958 18.5481C129.958 19.021 129.958 19.4892 129.958 19.9526C132.067 19.7753 134.401 19.6317 136.964 19.5607C136.99 19.222 136.99 18.9063 137.008 18.5889Z" fill="#3C54D0"/>
<path d="M156.496 19.7081C157.106 19.0945 157.444 18.2001 157.51 17.0249C157.578 16.1601 157.438 15.2916 157.102 14.4924C156.799 13.8057 156.337 13.2018 155.754 12.7314C155.146 12.2534 154.448 11.904 153.701 11.7046C152.888 11.4788 152.048 11.3666 151.204 11.3712C149.849 11.3742 148.509 11.6611 147.271 12.2136C146.637 12.5062 146.066 12.92 145.59 13.4319C145.106 13.9522 144.702 14.5415 144.39 15.1805C144.063 15.8517 143.818 16.5604 143.661 17.2909C143.502 18.0187 143.427 18.7626 143.438 19.5077C147.172 19.5804 151.29 19.8038 155.804 20.2419C156.053 20.0902 156.286 19.9112 156.496 19.7081ZM153.973 16.3687C153.958 16.4749 153.91 16.5738 153.837 16.6525C153.807 16.6912 153.767 16.721 153.721 16.7385C153.676 16.756 153.626 16.7606 153.578 16.7518C153.013 16.6234 152.438 16.5533 151.859 16.5425C151.261 16.5408 150.665 16.628 150.092 16.8014C150.05 16.8191 150.003 16.8226 149.959 16.8115C149.914 16.8003 149.874 16.775 149.845 16.7394C149.777 16.6592 149.734 16.5604 149.722 16.4556C149.705 16.342 149.718 16.226 149.759 16.1187C149.782 16.0627 149.817 16.0125 149.862 15.9718C149.907 15.931 149.96 15.9006 150.018 15.8828C150.586 15.6532 151.199 15.5585 151.81 15.6061C152.421 15.644 153.029 15.7306 153.627 15.8651C153.689 15.8733 153.748 15.8956 153.799 15.9304C153.85 15.9651 153.893 16.0114 153.924 16.0655C153.971 16.159 153.988 16.2649 153.973 16.3687Z" fill="#3C54D0"/>
<path d="M10.5363 14.9692C10.4709 14.7227 10.5557 14.6145 10.8648 14.7919C11.0749 14.9403 11.3059 15.0563 11.5502 15.1359C13.6082 15.7105 14.9401 14.8663 15.5584 14.2332C16.4982 13.2703 18.4113 12.8039 19.6072 13.6178C19.8235 13.7709 19.9927 13.9819 20.0955 14.2268C20.1982 14.4716 20.2304 14.7405 20.1884 15.0029C19.8351 17.3988 17.8619 18.8281 15.3111 18.7874C14.2095 18.7603 13.1468 18.3726 12.2849 17.6834C11.4229 16.9942 10.8089 16.0411 10.5363 14.9692Z" fill="#3C54D0"/>
<path d="M20.1847 12.788C20.2501 13.0345 20.1653 13.1427 19.8561 12.9654C19.6451 12.8136 19.4122 12.6952 19.1654 12.6142C17.1075 12.0396 15.7755 12.8838 15.1573 13.5169C14.2193 14.4799 12.3097 14.9463 11.1138 14.1323C10.8974 13.9792 10.7282 13.7682 10.6255 13.5234C10.5227 13.2785 10.4905 13.0096 10.5326 12.7472C10.8859 10.3513 12.8608 8.92198 15.4099 8.96276C16.5125 8.98995 17.576 9.37852 18.4381 10.0692C19.3002 10.7599 19.9136 11.7147 20.1847 12.788Z" fill="#F93347"/>
<path d="M28.7313 13.6553C28.7313 10.9545 27.9336 8.31443 26.439 6.06883C24.9444 3.82323 22.82 2.07299 20.3346 1.03945C17.8492 0.00591662 15.1142 -0.264504 12.4757 0.262389C9.83719 0.789282 7.41355 2.08982 5.51128 3.99955C3.60901 5.90928 2.31354 8.34242 1.78871 10.9913C1.26387 13.6402 1.53324 16.3858 2.56274 18.881C3.59224 21.3762 5.33564 23.5088 7.57248 25.0093C9.80931 26.5097 12.4391 27.3106 15.1293 27.3106H15.4968H15.548H27.6273C27.9201 27.3106 28.2009 27.1938 28.408 26.986C28.615 26.7781 28.7313 26.4962 28.7313 26.2022V14.0721C28.7322 14.0555 28.7322 14.0389 28.7313 14.0224C28.7296 13.8983 28.7313 13.7759 28.7313 13.6553ZM15.306 20.9973C13.8931 20.9976 12.5119 20.5773 11.3371 19.7894C10.1623 19.0015 9.24661 17.8816 8.70594 16.5711C8.16527 15.2607 8.02389 13.8188 8.2997 12.4277C8.5755 11.0366 9.25609 9.75887 10.2554 8.75618C11.2546 7.75348 12.5277 7.07086 13.9135 6.79466C15.2993 6.51846 16.7356 6.66111 18.0406 7.20455C19.3456 7.74798 20.4608 8.6678 21.245 9.84762C22.0292 11.0275 22.4472 12.4143 22.4461 13.8327C22.4438 15.7327 21.6903 17.5541 20.3512 18.8968C19.0121 20.2395 17.1968 20.9937 15.3042 20.9937L15.306 20.9973Z" fill="#F93347"/>
<mask id="mask1_19_4184" style="mask-type:luminance" maskUnits="userSpaceOnUse" x="1" y="0" width="28" height="28">
<path d="M15.1386 0C12.4484 0 9.81859 0.80087 7.58176 2.30133C5.34492 3.8018 3.60152 5.93447 2.57202 8.42965C1.54251 10.9248 1.27315 13.6705 1.79799 16.3193C2.32282 18.9682 3.61828 21.4013 5.52056 23.3111C7.42283 25.2208 9.84647 26.5213 12.485 27.0482C15.1235 27.5751 17.8584 27.3047 20.3439 26.2712C22.8293 25.2376 24.9536 23.4874 26.4483 21.2418C27.9429 18.9962 28.7406 16.3561 28.7406 13.6553C28.7406 10.0337 27.3075 6.56041 24.7567 3.99955C22.2058 1.43868 18.7461 0 15.1386 0ZM15.3153 20.9937C13.9021 20.9948 12.5204 20.5749 11.3451 19.7873C10.1697 18.9997 9.25347 17.8798 8.71236 16.5692C8.17126 15.2587 8.02958 13.8164 8.30527 12.425C8.58096 11.0336 9.26163 9.75554 10.2611 8.75263C11.2606 7.74972 12.534 7.06702 13.9201 6.79094C15.3062 6.51485 16.7428 6.6578 18.048 7.20167C19.3531 7.74555 20.4683 8.66592 21.2522 9.84629C22.0361 11.0267 22.4536 12.414 22.4519 13.8326C22.4495 15.7327 21.6961 17.5541 20.3569 18.8968C19.0178 20.2395 17.2026 20.9937 15.31 20.9937H15.3153Z" fill="white"/>
</mask>
<g mask="url(#mask1_19_4184)">
<g opacity="0.2">
<path d="M28.6009 11.8818C28.2906 9.51995 27.3709 7.28052 25.9329 5.38548C24.4948 3.49044 22.5884 2.00561 20.4026 1.07815C19.9759 0.896881 19.5402 0.737656 19.0972 0.601097C18.7245 0.485824 18.3447 0.386513 17.9631 0.304936C17.5816 0.223359 17.223 0.163063 16.8555 0.11518C16.4881 0.0672982 16.0818 0.0336033 15.6914 0.0158691V13.0274H28.7052C28.684 12.6444 28.6492 12.2625 28.6009 11.8818ZM16.8555 3.47226V1.41864C17.23 1.47184 17.601 1.54101 17.9684 1.62968C18.3518 1.72014 18.7303 1.83024 19.1025 1.95953C19.3734 2.05175 19.6407 2.15402 19.9045 2.26633C21.2122 2.82239 22.4136 3.60249 23.4551 4.57178L22.7945 5.23858C21.8385 4.35562 20.7377 3.64525 19.5406 3.13885C19.3957 3.07679 19.2491 3.01826 19.1025 2.96151C18.731 2.82333 18.3524 2.70493 17.9684 2.60683V5.06656H16.8555V3.47048V3.47226ZM23.3244 9.55685H16.8555V6.10578H17.9684V8.40058H22.6426C22.3636 8.00002 22.0535 7.62229 21.7151 7.27091C21.6763 7.23013 21.6374 7.18934 21.5968 7.15032C21.3371 6.88822 21.0616 6.64244 20.7718 6.41435C20.5952 6.27248 20.4185 6.13948 20.2207 6.01179V7.27091H19.1025V4.13019H19.1202C21.5597 5.16894 23.5082 7.10923 24.5627 9.54975L23.3244 9.55685ZM26.3504 11.8818H16.8555V10.6954H26.0996C25.9965 10.3096 25.8733 9.92958 25.7304 9.55685C25.6862 9.44158 25.6403 9.3263 25.5908 9.2128C25.1031 8.04654 24.4242 6.97055 23.5823 6.02952L24.2412 5.36095C25.884 7.17994 26.9465 9.4511 27.292 11.8818H26.3504Z" fill="white"/>
<path d="M15.103 27.3106C12.4126 27.3108 9.78262 26.51 7.5456 25.0096C5.30859 23.5091 3.56503 21.3764 2.53545 18.8811C1.50587 16.3858 1.2365 13.64 1.76142 10.991C2.28634 8.34199 3.58196 5.90876 5.48443 3.99903C6.90349 2.57426 8.61904 1.48241 10.508 0.801776C12.397 0.121141 14.4126 -0.131407 16.4103 0.0622429C18.4079 0.255893 20.3382 0.890943 22.0625 1.92185C23.7869 2.95275 25.2626 4.35396 26.3839 6.02499C27.5052 7.69601 28.2443 9.59544 28.5482 11.587C28.852 13.5786 28.7131 15.6131 28.1413 17.5444C27.5696 19.4758 26.5792 21.2561 25.2412 22.7579C23.9032 24.2597 22.2508 25.4456 20.4025 26.2306C18.7266 26.9457 16.9239 27.313 15.103 27.3106ZM15.103 1.29634C12.2633 1.29754 9.51141 2.28422 7.31347 4.08923C5.11554 5.89423 3.60674 8.40655 3.04273 11.2005C2.47871 13.9945 2.89416 16.8983 4.21869 19.42C5.54321 21.9416 7.69535 23.9261 10.3105 25.0371C13.3111 26.2745 16.6769 26.2729 19.6764 25.0327C22.6759 23.7925 25.0665 21.4139 26.3287 18.4139C27.5909 15.4139 27.6227 12.035 26.417 9.0117C25.2114 5.98836 22.8658 3.56493 19.8902 2.26817C18.3757 1.62461 16.7475 1.29409 15.103 1.29634Z" fill="white"/>
<path d="M1.50098 13.0274H14.5094V0.0158691C14.1173 0.0336033 13.7304 0.0655248 13.3453 0.11518C12.9602 0.164836 12.5998 0.226906 12.2306 0.304936C11.8615 0.382966 11.4711 0.482278 11.0966 0.601097C10.6541 0.737371 10.2189 0.896602 9.79289 1.07815C7.60648 2.00395 5.69969 3.48843 4.26228 5.38387C2.82488 7.2793 1.90697 9.51959 1.5999 11.8818C1.55044 12.2631 1.51864 12.6444 1.50098 13.0274ZM13.3453 4.61079V5.05946H12.2306V2.60328C11.8467 2.70139 11.4681 2.81978 11.0966 2.95797C10.9499 3.01294 10.8033 3.07147 10.6585 3.13531C9.46137 3.64321 8.36059 4.35475 7.40459 5.23858L6.74569 4.57178C7.78654 3.60252 8.9874 2.82241 10.2946 2.26633C10.5595 2.15402 10.8269 2.05175 11.0966 1.95953C11.4688 1.83047 11.8473 1.72038 12.2306 1.62968C12.5981 1.54101 12.9708 1.47184 13.3453 1.41864V4.61079ZM5.6381 9.55685C6.69263 7.11632 8.64115 5.17603 11.0807 4.13729H11.0966V7.27091H9.98014V6.01179C9.79289 6.13948 9.60917 6.27248 9.42899 6.41435C9.13921 6.64244 8.86371 6.88822 8.60404 7.15032L8.48569 7.27091C8.1483 7.62332 7.83882 8.00162 7.56004 8.40235H12.2306V6.10578H13.3453V9.55685H5.6381ZM2.90357 11.8818C3.25355 9.45387 4.31697 7.18593 5.95784 5.36804L6.6238 6.02952C5.77922 6.97321 5.09796 8.05217 4.60824 9.22167C4.56054 9.33517 4.51461 9.45044 4.47045 9.56571C4.32775 9.9387 4.20394 10.3187 4.09949 10.7042H13.3453V11.8818H2.90357Z" fill="white"/>
<path d="M28.7052 14.2722H15.6914V27.2838C16.0824 27.2672 16.4704 27.2341 16.8555 27.1845C17.23 27.1366 17.601 27.0745 17.9684 26.9947C18.3358 26.9149 18.7298 26.8174 19.1025 26.6985C19.5457 26.5628 19.9815 26.4035 20.4079 26.2215C22.594 25.2942 24.5004 23.8088 25.9376 21.913C27.3749 20.0171 28.2931 17.7767 28.6009 15.4143C28.6486 15.0366 28.6822 14.657 28.7052 14.2722ZM16.8697 22.6818V22.2331H17.9825V24.6964C18.3665 24.5983 18.7451 24.4799 19.1166 24.3417C19.2633 24.2867 19.4099 24.2282 19.5547 24.1643C20.7518 23.6579 21.8526 22.9476 22.8086 22.0646L23.4693 22.7314C22.4278 23.7007 21.2263 24.4808 19.9186 25.0369C19.6536 25.148 19.3863 25.2503 19.1166 25.3437C18.7445 25.473 18.3659 25.583 17.9825 25.6735C17.6151 25.7622 17.2442 25.8313 16.8697 25.8845V22.6924V22.6818ZM24.5769 17.7428C23.5237 20.1843 21.5747 22.125 19.1343 23.1624H19.1166V20.0394H20.226V21.2985C20.415 21.1708 20.5987 21.0378 20.7771 20.8959C21.0669 20.6678 21.3424 20.4221 21.6021 20.16C21.6427 20.1209 21.6816 20.0802 21.7204 20.0394C22.0589 19.6874 22.369 19.3091 22.6479 18.9079H17.9684V21.2027H16.8555V17.7428H24.5627H24.5769ZM27.292 15.4143C26.9448 17.8441 25.8811 20.114 24.2377 21.9316L23.5823 21.263C24.4234 20.3247 25.1023 19.2517 25.5908 18.0886C25.6403 17.9751 25.6862 17.8598 25.7304 17.7446C25.8733 17.3718 25.9965 16.9918 26.0996 16.606H16.8555V15.4143H27.292Z" fill="white"/>
<path d="M1.5999 15.4143C1.90911 17.7762 2.8278 20.016 4.2649 21.9116C5.70201 23.8073 7.60763 25.293 9.79289 26.2215C10.2186 26.4038 10.6538 26.5631 11.0966 26.6985C11.4711 26.8168 11.8491 26.9155 12.2306 26.9947C12.5998 27.0745 12.9708 27.1366 13.3453 27.1845C13.7198 27.2323 14.1173 27.2678 14.5094 27.2838V14.2722H1.50098C1.51864 14.657 1.55044 15.0366 1.5999 15.4143ZM13.3453 23.8274V25.8757C12.9708 25.8225 12.5981 25.7533 12.2306 25.6646C11.8473 25.5739 11.4688 25.4639 11.0966 25.3348C10.8257 25.2426 10.5584 25.1403 10.2946 25.028C8.9874 24.4719 7.78654 23.6918 6.74569 22.7225L7.40459 22.0557C8.36086 22.9383 9.46163 23.6486 10.6585 24.1555C10.8033 24.2175 10.9499 24.2761 11.0966 24.3328C11.4681 24.471 11.8467 24.5894 12.2306 24.6875V22.2331H13.3453V23.8292V23.8274ZM6.87464 17.7428H13.3453V21.1939H12.2306V18.8991H7.55828C7.83668 19.3029 8.14617 19.6841 8.48392 20.0394L8.60227 20.16C8.86194 20.4221 9.13745 20.6678 9.42723 20.8959C9.60387 21.0378 9.79112 21.1708 9.97837 21.2985V20.0394H11.0966V23.1783H11.0807C8.64022 22.141 6.69126 20.2002 5.6381 17.7588L6.87464 17.7428ZM3.85041 15.4143H13.3453V16.6043H4.09949C4.20394 16.9898 4.32775 17.3698 4.47045 17.7428C4.51461 17.8581 4.56054 17.9733 4.60824 18.0868C5.09951 19.2507 5.78072 20.3242 6.6238 21.263L5.96313 21.9316C4.31972 20.1134 3.25438 17.8441 2.90357 15.4143H3.85041Z" fill="white"/>
</g>
</g>
</g>
<defs>
<clipPath id="clip0_19_4184">
<rect width="165.511" height="28" fill="white" transform="translate(0.744629)"/>
</clipPath>
</defs>
</svg>
