<svg width="351" height="180" viewBox="0 0 351 180" fill="none" xmlns="http://www.w3.org/2000/svg">
<g clip-path="url(#clip0_48_5905)">
<mask id="mask0_48_5905" style="mask-type:luminance" maskUnits="userSpaceOnUse" x="-6" y="155" width="369" height="31">
<path d="M-5.62158 168.66C67.879 154.89 101.51 153.888 118.535 155.763C121.475 156.085 142.283 158.521 171.674 161.219C173.66 161.403 183.687 162.321 188.559 162.707C223.268 165.451 254.839 161.408 265.536 160.227C287.268 157.826 319.251 156.576 362.875 162.211V183.542L-5.62158 185.526V168.66Z" fill="white"/>
</mask>
<g mask="url(#mask0_48_5905)">
<path d="M20.2329 159.096C20.1865 160.998 20.0938 162.85 19.9547 164.652C19.8157 166.454 19.6501 168.26 19.4581 170.069C19.3305 171.314 19.0503 172.538 18.6238 173.715C18.2333 174.806 17.6308 175.809 16.8508 176.667C16.0707 177.513 15.1238 178.188 14.0697 178.651C12.8689 179.158 11.574 179.405 10.2705 179.375C8.9472 179.407 7.63216 179.158 6.41176 178.646C5.35766 178.183 4.41078 177.508 3.63066 176.662C2.85072 175.804 2.24818 174.801 1.85771 173.71C1.43116 172.534 1.15095 171.309 1.02338 170.064C-0.367167 156.488 -0.367167 142.805 1.02338 129.229C1.14814 127.994 1.42847 126.781 1.85771 125.617C2.25446 124.54 2.85654 123.549 3.63066 122.7C4.41078 121.854 5.35766 121.179 6.41176 120.716C7.63289 120.207 8.94791 119.962 10.2705 119.997C11.571 119.97 12.8624 120.219 14.0598 120.726C15.1139 121.189 16.0608 121.864 16.8409 122.71C17.615 123.559 18.2171 124.55 18.6139 125.627C19.0431 126.791 19.3234 128.004 19.4482 129.238C19.6799 131.507 19.8455 133.695 19.9448 135.801C20.0441 137.908 20.16 140.142 20.2924 142.503C21.2534 139.708 22.4032 136.982 23.7341 134.343C25.0584 131.73 26.252 129.427 27.3147 127.433C27.9873 126.162 28.822 124.983 29.7979 123.926C30.7177 122.925 31.8135 122.101 33.0309 121.495C34.254 120.897 35.5928 120.572 36.9542 120.543C38.542 120.542 40.1115 120.881 41.5579 121.535C44.3391 122.742 46.2047 124.395 47.1549 126.495C48.1051 128.595 48.0604 130.99 47.0208 133.678C46.2974 135.589 45.4377 137.446 44.4483 139.234C43.443 141.062 42.3406 142.836 41.1457 144.547C39.9989 146.192 38.7569 147.769 37.426 149.269C36.2413 150.621 34.9383 151.864 33.5325 152.985C33.4279 153.039 33.3382 153.118 33.2715 153.215C33.2048 153.312 33.1631 153.423 33.1501 153.54C33.1211 153.748 33.1707 153.958 33.2891 154.131C33.3472 154.213 33.421 154.283 33.5062 154.336C33.5915 154.39 33.6865 154.426 33.7858 154.443C34.0471 154.473 34.3097 154.398 34.5158 154.235C35.0124 153.818 35.5091 153.401 36.0057 152.985C36.5099 152.553 36.986 152.089 37.431 151.596C38.4755 152.74 39.4506 153.946 40.3512 155.207C41.2706 156.49 42.1178 157.823 42.8889 159.2C43.6537 160.566 44.349 161.92 44.9747 163.263C45.5609 164.509 46.0831 165.784 46.5391 167.083C46.9332 168.162 47.1025 169.309 47.0367 170.456C46.971 171.602 46.6715 172.723 46.1567 173.75C45.1138 175.833 43.225 177.431 40.4902 178.542C37.6164 179.653 34.9677 179.699 32.5442 178.681C30.1207 177.662 28.0795 175.81 26.4208 173.125C26.0036 172.386 25.5269 171.468 24.9955 170.382C24.4641 169.295 23.9178 168.125 23.3616 166.874C22.8054 165.624 22.2591 164.33 21.7277 162.985C21.1963 161.641 20.6997 160.346 20.2329 159.096Z" fill="#F93347"/>
<path d="M72.9346 179.861C68.8524 179.861 65.4108 179.074 62.6098 177.5C59.8474 175.967 57.4884 173.801 55.7266 171.18C53.883 168.411 52.5633 165.327 51.833 162.082C51.0096 158.576 50.5782 154.989 50.5468 151.387C50.5349 149.335 50.8039 147.29 51.3463 145.311C51.8306 143.489 52.6435 141.771 53.745 140.241C54.803 138.788 56.1832 137.6 57.7776 136.769C59.543 135.877 61.5015 135.436 63.4789 135.484C65.3632 135.435 67.2361 135.791 68.9716 136.525C70.4233 137.161 71.7083 138.124 72.7261 139.338C73.7272 140.575 74.4611 142.006 74.8814 143.54C75.354 145.235 75.588 146.988 75.5767 148.748C75.5767 150.276 75.4923 151.839 75.3333 153.436C75.1649 155.029 74.8321 156.6 74.3401 158.124C73.8404 159.678 73.1392 161.161 72.2543 162.534C71.2984 164 70.0854 165.283 68.6736 166.319C68.5549 166.402 68.456 166.511 68.384 166.637C68.3119 166.763 68.2683 166.903 68.2564 167.048C68.255 167.301 68.341 167.546 68.4998 167.742C68.655 167.948 68.8757 168.095 69.1255 168.159C69.2634 168.191 69.4065 168.191 69.5447 168.161C69.6829 168.131 69.8127 168.071 69.9251 167.986C71.462 166.87 72.8043 165.509 73.8981 163.958C74.9273 162.453 75.7241 160.803 76.262 159.061C76.8356 157.195 77.2199 155.275 77.4092 153.332C77.6229 151.14 77.7041 148.936 77.6526 146.734C77.6425 145.256 77.7705 143.779 78.035 142.324C78.2513 141.05 78.7244 139.834 79.4255 138.748C80.1098 137.718 81.0583 136.891 82.1719 136.352C83.5448 135.727 85.0444 135.43 86.5521 135.484C89.7504 135.484 92.0216 136.807 93.3658 139.452C94.71 142.098 95.2431 146.427 94.9649 152.439C94.7917 155.928 94.164 159.38 93.0976 162.707C92.1083 165.843 90.6174 168.798 88.6826 171.458C86.8745 173.95 84.5657 176.039 81.9037 177.589C79.1709 179.133 76.0738 179.918 72.9346 179.861Z" fill="#F93347"/>
<path d="M107.143 176.736C105.598 175.792 104.213 174.608 103.04 173.229C101.884 171.869 100.903 170.369 100.12 168.764C99.329 167.163 98.7337 165.473 98.3473 163.729C97.9492 161.98 97.7247 160.195 97.6769 158.402C97.6279 156.266 97.838 154.132 98.3026 152.047C98.7434 150.003 99.4322 148.021 100.354 146.144C101.229 144.354 102.365 142.704 103.726 141.248C105.064 139.816 106.67 138.66 108.454 137.845C110.205 137.059 112.037 136.465 113.917 136.074C115.762 135.684 117.642 135.486 119.528 135.484C121.898 135.472 124.257 135.786 126.541 136.416C128.639 136.979 130.602 137.959 132.312 139.298C133.95 140.617 135.249 142.308 136.101 144.229C137.044 146.46 137.438 148.884 137.248 151.298C137.059 154.585 136.109 157.085 134.397 158.799C132.686 160.512 130.067 161.785 126.541 162.618C124.502 163.107 122.385 163.178 120.318 162.826C119.3 162.644 118.316 162.309 117.398 161.834C116.522 161.399 115.786 160.725 115.277 159.89C115.089 159.612 114.731 159.508 114.2 159.577C113.668 159.647 113.445 160.004 113.539 160.654C113.623 161.252 113.89 161.81 114.304 162.251C114.833 162.864 115.455 163.391 116.146 163.814C116.979 164.33 117.88 164.727 118.823 164.994C119.931 165.308 121.079 165.46 122.23 165.446C122.756 165.438 123.28 165.38 123.794 165.272C124.37 165.158 124.872 165.054 125.284 164.96C126.619 164.546 127.977 164.215 129.352 163.967C130.339 163.779 131.354 163.803 132.331 164.037C133.204 164.281 133.973 164.804 134.522 165.525C135.247 166.531 135.81 167.644 136.19 168.824C136.975 171.046 136.755 172.968 135.53 174.588C134.305 176.209 131.951 177.573 128.468 178.681C127.03 179.147 125.552 179.479 124.053 179.673C122.568 179.821 121.076 179.891 119.583 179.881C117.386 179.883 115.195 179.65 113.047 179.187C110.948 178.731 108.947 177.901 107.143 176.736ZM116.39 150.693C118 150.204 119.673 149.958 121.356 149.964C122.983 149.996 124.602 150.194 126.188 150.554C126.324 150.577 126.463 150.563 126.591 150.514C126.719 150.466 126.832 150.383 126.918 150.276C127.121 150.053 127.254 149.775 127.301 149.478C127.347 149.181 127.298 148.877 127.162 148.609C127.074 148.459 126.954 148.331 126.809 148.235C126.664 148.139 126.5 148.077 126.327 148.054C124.648 147.676 122.94 147.433 121.222 147.33C119.502 147.203 117.777 147.476 116.181 148.128C116.018 148.177 115.868 148.262 115.742 148.376C115.615 148.49 115.516 148.631 115.451 148.788C115.333 149.086 115.297 149.409 115.347 149.726C115.379 150.021 115.5 150.3 115.694 150.524C115.777 150.623 115.889 150.693 116.014 150.723C116.139 150.754 116.271 150.743 116.39 150.693Z" fill="#F93347"/>
<path d="M160.748 166.527C160.653 167.266 160.594 167.986 160.574 168.68C160.554 169.375 160.49 170.069 160.4 170.764C160.122 173.409 159.253 175.504 157.793 177.049C156.333 178.593 154.143 179.369 151.223 179.375C148.243 179.375 145.983 178.6 144.444 177.049C142.904 175.498 141.989 173.403 141.697 170.764C141.466 168.449 141.292 166.03 141.176 163.506C141.06 160.983 140.962 158.567 140.883 156.259V143.818C140.883 141.318 141.648 139.304 143.177 137.776C144.707 136.248 146.723 135.484 149.226 135.484C151.148 135.474 153.057 135.789 154.873 136.416C155.698 136.676 156.46 137.104 157.112 137.671C157.764 138.239 158.292 138.935 158.662 139.715C156.924 141.812 155.571 144.198 154.664 146.764C153.801 149.274 153.505 151.944 153.795 154.582C153.811 154.936 153.96 155.271 154.212 155.52C154.396 155.708 154.644 155.82 154.908 155.832C155.025 155.83 155.141 155.804 155.248 155.756C155.356 155.709 155.453 155.64 155.533 155.554C155.633 155.441 155.708 155.309 155.756 155.166C155.804 155.023 155.823 154.871 155.811 154.721C155.672 152.954 155.789 151.176 156.159 149.443C156.512 147.728 157.073 146.062 157.828 144.482C158.525 142.996 159.413 141.607 160.47 140.35C161.381 139.241 162.46 138.28 163.668 137.503C164.67 136.91 165.73 136.421 166.831 136.044C167.917 135.673 169.056 135.486 170.204 135.489C172.135 135.492 174.052 135.827 175.87 136.481C177.671 137.114 179.285 138.189 180.563 139.606C181.487 140.599 182.26 141.723 182.858 142.94C183.412 144.091 183.832 145.303 184.109 146.551C184.391 147.818 184.557 149.108 184.606 150.405C184.652 151.728 184.675 153.082 184.675 154.468C184.626 157.114 184.475 159.88 184.223 162.767C183.996 165.465 183.59 168.145 183.007 170.788C182.751 172.011 182.354 173.199 181.825 174.33C181.349 175.346 180.689 176.264 179.878 177.039C179.061 177.795 178.105 178.385 177.062 178.775C175.801 179.22 174.47 179.432 173.134 179.4C170.074 179.4 167.745 178.624 166.146 177.073C164.547 175.522 163.575 173.419 163.231 170.764C163.137 170.163 163.067 169.558 163.022 168.958C162.978 168.358 162.928 167.733 162.883 167.083C162.897 166.731 162.8 166.384 162.605 166.091C162.461 165.867 162.237 165.706 161.979 165.639C161.858 165.618 161.733 165.622 161.613 165.652C161.494 165.682 161.381 165.737 161.284 165.813C161.044 165.998 160.858 166.245 160.748 166.527Z" fill="#F93347"/>
<path d="M191.653 155.798C191.039 155.615 190.445 155.37 189.88 155.068C187.655 153.772 186.543 151.249 186.543 147.498C186.508 146.331 186.684 145.166 187.064 144.061C187.375 143.211 187.886 142.449 188.554 141.838C189.241 141.237 190.046 140.788 190.918 140.519C191.945 140.192 192.989 139.925 194.047 139.72C194.092 139.259 194.117 138.807 194.117 138.366C194.117 137.925 194.117 137.473 194.181 137.012C194.264 135.542 194.556 134.092 195.05 132.706C195.414 131.712 196.01 130.819 196.788 130.102C197.549 129.458 198.459 129.016 199.435 128.817C200.636 128.569 201.86 128.453 203.086 128.47C204.277 128.454 205.466 128.57 206.632 128.817C207.603 129.027 208.509 129.467 209.274 130.102C210.071 130.81 210.68 131.705 211.047 132.706C211.546 134.094 211.862 135.542 211.985 137.012V137.22C213.398 137.126 214.817 137.149 216.226 137.29C217.376 137.374 218.492 137.713 219.494 138.282C221.719 139.575 222.831 142.121 222.831 145.921C222.831 148.603 222.169 150.524 220.845 151.685C219.521 152.846 217.609 153.564 215.109 153.838L213.232 154.046C213.232 154.88 213.207 155.669 213.162 156.408C213.117 157.147 213.043 157.841 212.954 158.491C212.168 158.723 211.408 159.037 210.689 159.429C209.993 159.806 209.342 160.26 208.747 160.783C208.204 161.257 207.705 161.78 207.257 162.345C206.888 162.798 206.582 163.299 206.348 163.834C206.259 164.068 206.259 164.328 206.348 164.563C206.386 164.658 206.443 164.744 206.516 164.815C206.588 164.887 206.675 164.943 206.771 164.98C206.96 165.048 207.165 165.061 207.362 165.014C207.467 164.99 207.564 164.939 207.643 164.866C207.722 164.793 207.781 164.7 207.813 164.598C208.582 163.047 209.775 161.747 211.255 160.847C212.634 159.987 214.254 159.595 215.874 159.731C216.902 159.823 217.908 160.081 218.853 160.495C219.818 160.931 220.668 161.585 221.337 162.405C222.102 163.36 222.67 164.458 223.005 165.634C223.418 167.149 223.548 168.726 223.388 170.287C223.315 171.757 222.831 173.176 221.992 174.385C221.142 175.609 220.042 176.638 218.764 177.406C217.339 178.257 215.789 178.878 214.17 179.246C212.407 179.666 210.6 179.876 208.787 179.871C205.45 179.871 202.801 179.327 200.841 178.239C198.935 177.197 197.395 175.598 196.426 173.656C195.346 171.407 194.674 168.985 194.439 166.502C194.108 163.701 193.9 160.588 193.814 157.162V156.12C193.081 156.121 192.353 156.012 191.653 155.798Z" fill="#F93347"/>
<path d="M251.337 177.778C249.756 178.324 248.126 178.719 246.47 178.958C244.699 179.234 242.909 179.373 241.117 179.375C238.289 179.375 235.972 179.005 234.164 178.264C232.327 177.638 230.669 176.578 229.332 175.174C228.104 173.723 227.252 171.994 226.849 170.139C226.187 167.595 225.885 164.32 225.945 160.312C226.004 156.303 226.074 151.268 226.153 145.207C226.139 143.861 226.339 142.522 226.744 141.238C227.12 140.068 227.777 139.007 228.656 138.148C229.626 137.236 230.791 136.557 232.063 136.163C233.731 135.662 235.467 135.428 237.208 135.469C238.915 135.429 240.617 135.663 242.249 136.163C243.502 136.555 244.645 137.235 245.586 138.148C246.449 139.008 247.082 140.071 247.429 141.238C247.812 142.526 248 143.863 247.985 145.207V159.731C247.992 160.184 248.169 160.618 248.482 160.947C248.598 161.064 248.741 161.154 248.897 161.208C249.054 161.262 249.221 161.28 249.386 161.259C249.74 161.2 250.061 161.015 250.289 160.738C250.587 160.379 250.737 159.919 250.707 159.453V144.72C250.696 143.492 250.896 142.271 251.298 141.109C251.672 140.036 252.25 139.046 253.001 138.192C253.773 137.337 254.722 136.66 255.782 136.208C256.969 135.707 258.248 135.459 259.537 135.479C260.814 135.456 262.082 135.705 263.256 136.208C264.311 136.67 265.258 137.345 266.037 138.192C266.809 139.036 267.401 140.029 267.776 141.109C268.179 142.27 268.379 143.492 268.367 144.72V167.172C268.461 168.328 268.575 169.558 268.714 170.853C268.853 172.075 268.876 173.307 268.784 174.534C268.719 175.612 268.397 176.66 267.845 177.589C267.545 178.049 267.151 178.441 266.69 178.74C266.23 179.039 265.711 179.238 265.168 179.326C263.366 179.742 261.525 179.975 259.676 180.02C257.779 180.02 256.304 179.742 255.261 179.187C254.32 178.718 253.509 178.026 252.897 177.173C252.382 176.422 252.016 175.58 251.819 174.692C251.635 173.834 251.471 173.105 251.322 172.505C251.258 172.299 251.123 172.123 250.94 172.009C250.867 171.962 250.785 171.932 250.699 171.92C250.614 171.908 250.526 171.915 250.443 171.939C250.273 171.992 250.125 172.103 250.026 172.252C249.971 172.325 249.933 172.41 249.915 172.5C249.897 172.591 249.9 172.684 249.922 172.773C249.972 173.145 250.051 173.571 250.165 174.057C250.28 174.544 250.409 175.05 250.548 175.516C250.687 175.982 250.816 176.453 250.93 176.87C251.012 177.194 251.15 177.501 251.337 177.778Z" fill="#F93347"/>
<path d="M291.942 137.081C290.781 138.288 289.819 139.671 289.091 141.179C288.357 142.68 287.909 144.305 287.77 145.971C287.676 146.804 287.874 147.265 288.361 147.36C288.848 147.454 289.185 147.126 289.354 146.367C290.285 142.201 291.791 139.272 293.873 137.582C295.956 135.892 298.605 135.163 301.819 135.395C303.127 135.443 304.394 135.865 305.47 136.61C306.438 137.296 307.245 138.184 307.834 139.214C308.415 140.232 308.837 141.333 309.085 142.478C309.329 143.526 309.457 144.597 309.468 145.673C309.459 146.731 309.377 147.786 309.224 148.833C309.064 150.021 308.729 151.18 308.231 152.271C307.704 153.408 306.918 154.407 305.937 155.187C304.762 156.086 303.371 156.661 301.904 156.854C300.72 157.032 299.51 156.901 298.393 156.472C297.14 156.014 295.975 155.343 294.951 154.488C294.455 154.027 294.047 153.957 293.769 154.28C293.467 154.677 293.319 155.171 293.352 155.669C293.263 158.169 293.147 160.669 293.004 163.169C292.862 165.669 292.677 168.169 292.448 170.669C292.321 171.918 292.029 173.144 291.579 174.315C291.171 175.398 290.571 176.398 289.806 177.267C289.044 178.118 288.107 178.795 287.06 179.251C285.863 179.759 284.571 180.008 283.271 179.98C281.936 180.009 280.61 179.761 279.377 179.251C278.309 178.795 277.349 178.119 276.561 177.267C275.781 176.409 275.179 175.406 274.788 174.315C274.364 173.142 274.106 171.914 274.023 170.669C273.653 165.573 273.487 160.515 273.527 155.495C273.566 150.475 273.636 145.417 273.735 140.32C273.753 139.269 274.054 138.241 274.604 137.344C274.838 136.954 275.156 136.62 275.534 136.368C275.913 136.115 276.344 135.951 276.795 135.886C277.645 135.733 278.504 135.629 279.367 135.573C280.34 135.504 281.36 135.469 282.426 135.469C284.369 135.462 286.31 135.601 288.232 135.886C290.059 136.173 291.296 136.572 291.942 137.081Z" fill="#F93347"/>
<path d="M320.865 176.736C319.321 175.79 317.937 174.607 316.763 173.229C315.61 171.866 314.629 170.367 313.843 168.764C313.052 167.163 312.456 165.473 312.07 163.729C311.676 161.973 311.455 160.182 311.41 158.382C311.366 156.246 311.576 154.113 312.035 152.027C312.476 149.984 313.165 148.001 314.086 146.124C314.961 144.334 316.098 142.684 317.458 141.228C318.798 139.798 320.404 138.642 322.186 137.825C323.938 137.04 325.77 136.446 327.649 136.054C329.49 135.666 331.365 135.468 333.246 135.464C335.618 135.458 337.979 135.779 340.263 136.416C342.362 136.979 344.325 137.959 346.034 139.298C347.674 140.616 348.973 142.307 349.823 144.229C350.762 146.461 351.15 148.885 350.956 151.298C350.77 154.585 349.82 157.086 348.105 158.799C346.39 160.512 343.771 161.785 340.249 162.618C338.21 163.107 336.093 163.178 334.026 162.827C333.008 162.644 332.024 162.309 331.106 161.834C330.23 161.398 329.496 160.724 328.985 159.89C328.801 159.612 328.439 159.508 327.907 159.577C327.376 159.647 327.153 160.004 327.247 160.654C327.334 161.251 327.6 161.809 328.012 162.251C328.541 162.864 329.163 163.391 329.854 163.814C330.687 164.329 331.588 164.726 332.531 164.994C333.639 165.308 334.786 165.46 335.938 165.446C336.464 165.438 336.988 165.38 337.502 165.272C338.083 165.158 338.58 165.054 338.992 164.96C340.326 164.547 341.685 164.215 343.059 163.968C344.046 163.779 345.062 163.803 346.039 164.037C346.913 164.278 347.683 164.802 348.229 165.525C348.955 166.531 349.518 167.644 349.898 168.824C350.689 171.046 350.469 172.968 349.237 174.588C348.006 176.209 345.654 177.551 342.18 178.616C340.743 179.083 339.265 179.415 337.765 179.608C336.28 179.757 334.788 179.827 333.296 179.817C331.099 179.819 328.908 179.586 326.76 179.122C324.669 178.684 322.672 177.876 320.865 176.736ZM330.098 150.693C331.707 150.204 333.381 149.958 335.064 149.964C336.69 149.996 338.31 150.194 339.896 150.554C340.031 150.577 340.171 150.563 340.299 150.515C340.427 150.466 340.54 150.383 340.626 150.276C340.832 150.055 340.965 149.776 341.008 149.478C341.055 149.181 341.006 148.877 340.869 148.61C340.782 148.459 340.661 148.331 340.517 148.235C340.372 148.139 340.207 148.077 340.035 148.054C338.36 147.676 336.658 147.434 334.945 147.33C333.225 147.204 331.5 147.477 329.904 148.128C329.741 148.177 329.591 148.262 329.464 148.376C329.338 148.49 329.239 148.631 329.174 148.788C329.06 149.087 329.024 149.409 329.07 149.726C329.103 150.021 329.224 150.299 329.417 150.524C329.499 150.62 329.608 150.688 329.73 150.718C329.852 150.748 329.981 150.74 330.098 150.693Z" fill="#F93347"/>
</g>
<path d="M20.2325 159.096C20.6944 160.346 21.196 161.641 21.7224 162.985C21.8267 163.248 21.931 163.481 22.0353 163.754C29.723 162.474 36.8811 161.36 43.5094 160.411C43.2958 160.009 43.0872 159.607 42.8588 159.2C42.0877 157.823 41.2404 156.49 40.321 155.207C39.4205 153.946 38.4454 152.74 37.4009 151.596C36.9559 152.088 36.4798 152.552 35.9756 152.985C35.4789 153.401 34.9823 153.818 34.4857 154.235C34.2796 154.398 34.017 154.473 33.7556 154.443C33.6563 154.426 33.5613 154.39 33.4761 154.336C33.3909 154.283 33.3171 154.213 33.259 154.13C33.1405 153.958 33.0909 153.747 33.12 153.54C33.133 153.423 33.1747 153.311 33.2414 153.214C33.3081 153.118 33.3978 153.039 33.5024 152.985C34.9082 151.864 36.2112 150.621 37.3959 149.269C38.7268 147.769 39.9688 146.192 41.1156 144.547C42.3105 142.836 43.4129 141.062 44.4182 139.234C45.4076 137.446 46.2673 135.589 46.9907 133.678C48.0601 130.993 48.118 128.597 47.1645 126.49C46.211 124.383 44.342 122.732 41.5576 121.534C40.1051 120.878 38.5285 120.539 36.934 120.542C35.5838 120.571 34.2557 120.891 33.0405 121.48C31.8231 122.086 30.7273 122.91 29.8075 123.911C28.8316 124.968 27.9969 126.146 27.3243 127.418C26.2549 129.402 25.0614 131.705 23.7437 134.328C22.4128 136.967 21.263 139.693 20.3021 142.488C20.163 140.127 20.0471 137.893 19.9544 135.786C19.8617 133.68 19.6962 131.492 19.4578 129.223C19.333 127.989 19.0527 126.776 18.6235 125.612C18.2267 124.534 17.6246 123.544 16.8505 122.695C16.0704 121.849 15.1235 121.174 14.0694 120.711C12.8678 120.207 11.5729 119.964 10.2702 119.997C8.94687 119.965 7.63183 120.214 6.41144 120.726C5.35733 121.189 4.41046 121.864 3.63034 122.71C2.85622 123.559 2.25413 124.549 1.85739 125.627C1.42815 126.791 1.14782 128.004 1.02305 129.238C0.319515 136.021 -0.0285984 142.837 -0.019859 149.656C-0.019859 155.738 0.243353 161.679 0.769776 167.479C7.51395 166.243 13.9138 165.116 19.9693 164.101C20.1084 162.464 20.2027 160.802 20.2325 159.096Z" fill="#3C54D0"/>
<path d="M94.9747 152.429C95.2528 146.413 94.7198 142.085 93.3756 139.442C92.0314 136.8 89.7601 135.477 86.5619 135.474C85.0541 135.42 83.5546 135.717 82.1816 136.342C81.068 136.881 80.1196 137.708 79.4353 138.738C78.7342 139.824 78.2611 141.04 78.0447 142.314C77.7803 143.769 77.6523 145.246 77.6623 146.724C77.7139 148.926 77.6326 151.13 77.419 153.322C77.3097 154.383 77.1508 155.405 76.9224 156.397C83.6169 155.797 89.5118 155.405 94.7065 155.217C94.8406 154.304 94.925 153.372 94.9747 152.429Z" fill="#3C54D0"/>
<path d="M75.3285 153.436C75.4874 151.839 75.5718 150.276 75.5718 148.748C75.5832 146.988 75.3491 145.235 74.8765 143.54C74.4562 142.005 73.7223 140.575 72.7212 139.338C71.7034 138.124 70.4185 137.161 68.9667 136.525C67.2312 135.79 65.3584 135.435 63.474 135.484C61.4966 135.436 59.5381 135.877 57.7728 136.768C56.1783 137.6 54.7981 138.788 53.7402 140.241C52.6386 141.771 51.8257 143.489 51.3414 145.311C50.799 147.29 50.53 149.335 50.5419 151.387C50.5696 154.048 50.8121 156.702 51.267 159.324C60.0175 158.149 67.8145 157.256 74.7722 156.601C75.032 155.56 75.2179 154.503 75.3285 153.436Z" fill="#3C54D0"/>
<path d="M118.535 155.763C120.024 155.926 126.024 156.626 135.37 157.618C136.468 156.006 137.098 153.912 137.247 151.318C137.439 148.899 137.046 146.469 136.1 144.234C135.248 142.313 133.949 140.622 132.311 139.303C130.602 137.963 128.639 136.981 126.54 136.416C124.257 135.786 121.897 135.472 119.528 135.484C117.647 135.487 115.771 135.685 113.931 136.074C112.051 136.465 110.219 137.059 108.468 137.845C106.685 138.66 105.079 139.816 103.74 141.248C102.379 142.704 101.243 144.354 100.368 146.144C99.4465 148.021 98.7577 150.003 98.3169 152.047C98.0902 153.063 97.9244 154.092 97.8203 155.128C104.731 154.87 111.652 155.082 118.535 155.763ZM115.451 148.783C115.516 148.626 115.615 148.485 115.741 148.371C115.867 148.257 116.017 148.172 116.181 148.123C117.777 147.473 119.502 147.202 121.221 147.33C122.942 147.435 124.651 147.679 126.332 148.059C126.504 148.082 126.669 148.143 126.813 148.24C126.958 148.336 127.079 148.464 127.166 148.614C127.303 148.882 127.351 149.186 127.305 149.483C127.258 149.78 127.125 150.058 126.923 150.281C126.837 150.388 126.724 150.471 126.595 150.519C126.467 150.568 126.328 150.582 126.193 150.559C124.606 150.199 122.987 150.001 121.36 149.969C119.678 149.963 118.004 150.209 116.394 150.698C116.275 150.747 116.143 150.757 116.018 150.726C115.892 150.695 115.781 150.624 115.699 150.524C115.504 150.3 115.383 150.021 115.351 149.726C115.298 149.408 115.333 149.083 115.451 148.783Z" fill="#3C54D0"/>
<path d="M184.243 162.345C184.475 159.597 184.616 156.963 184.665 154.443C184.665 153.054 184.642 151.7 184.596 150.38C184.547 149.083 184.381 147.793 184.099 146.526C183.822 145.278 183.402 144.067 182.848 142.915C182.25 141.698 181.477 140.575 180.553 139.581C179.275 138.164 177.661 137.09 175.86 136.456C174.042 135.802 172.125 135.467 170.194 135.464C169.046 135.461 167.907 135.649 166.821 136.02C165.72 136.396 164.66 136.885 163.658 137.478C162.45 138.255 161.371 139.216 160.46 140.325C159.403 141.582 158.515 142.971 157.818 144.457C157.063 146.038 156.502 147.703 156.149 149.418C155.779 151.152 155.662 152.929 155.801 154.696C155.813 154.847 155.794 154.998 155.746 155.141C155.698 155.284 155.623 155.416 155.523 155.53C155.443 155.615 155.346 155.684 155.238 155.731C155.131 155.779 155.015 155.805 154.897 155.807C154.634 155.795 154.386 155.683 154.202 155.495C153.95 155.246 153.801 154.911 153.785 154.557C153.495 151.921 153.792 149.253 154.654 146.744C155.561 144.178 156.914 141.792 158.652 139.695C158.281 138.915 157.754 138.219 157.102 137.651C156.45 137.084 155.688 136.656 154.863 136.397C153.041 135.766 151.125 135.449 149.196 135.459C146.693 135.459 144.677 136.223 143.147 137.751C141.618 139.279 140.863 141.301 140.883 143.818V156.259C140.908 156.904 140.932 157.558 140.962 158.218C149.405 159.096 159.834 160.143 171.693 161.229C173.188 161.358 179.262 161.914 184.243 162.345Z" fill="#3C54D0"/>
<path d="M222.111 163.531C221.888 163.131 221.631 162.751 221.341 162.395C220.673 161.575 219.823 160.921 218.858 160.485C217.913 160.071 216.907 159.813 215.878 159.721C214.257 159.583 212.635 159.972 211.255 160.832C210.101 161.531 209.12 162.481 208.384 163.61C213.117 163.7 217.711 163.64 222.111 163.531Z" fill="#3C54D0"/>
<path d="M207.262 162.325C207.71 161.76 208.209 161.237 208.752 160.763C209.346 160.24 209.998 159.786 210.694 159.409C211.413 159.017 212.172 158.703 212.958 158.471C213.048 157.81 213.117 157.115 213.167 156.388C213.212 155.649 213.237 154.86 213.237 154.026L215.114 153.818C217.617 153.54 219.529 152.823 220.85 151.665C222.171 150.508 222.833 148.586 222.836 145.901C222.836 142.108 221.724 139.561 219.499 138.262C218.497 137.693 217.381 137.354 216.231 137.27C214.822 137.129 213.403 137.105 211.99 137.2V136.992C211.866 135.522 211.551 134.074 211.051 132.686C210.685 131.685 210.076 130.79 209.278 130.082C208.514 129.447 207.608 129.007 206.636 128.797C205.471 128.55 204.282 128.434 203.09 128.45C201.865 128.433 200.641 128.549 199.44 128.797C198.464 128.996 197.553 129.438 196.793 130.082C196.014 130.799 195.418 131.692 195.055 132.686C194.561 134.072 194.268 135.522 194.186 136.992C194.141 137.453 194.121 137.905 194.121 138.346C194.121 138.787 194.097 139.239 194.052 139.7C192.994 139.905 191.949 140.172 190.923 140.499C190.051 140.768 189.245 141.217 188.559 141.818C187.891 142.429 187.38 143.191 187.069 144.041C186.689 145.146 186.513 146.31 186.548 147.478C186.548 151.229 187.66 153.752 189.885 155.048C190.45 155.35 191.044 155.595 191.658 155.778C192.368 155.992 193.107 156.097 193.848 156.09V157.132C193.905 159.228 194.004 161.213 194.146 163.084C198.328 163.332 202.445 163.486 206.472 163.581C206.687 163.134 206.952 162.713 207.262 162.325Z" fill="#3C54D0"/>
<path d="M268.371 159.929V144.72C268.384 143.491 268.184 142.27 267.78 141.109C267.406 140.029 266.814 139.036 266.042 138.192C265.263 137.345 264.316 136.669 263.261 136.208C262.087 135.704 260.819 135.456 259.541 135.479C258.253 135.459 256.974 135.707 255.787 136.208C254.727 136.66 253.778 137.337 253.006 138.192C252.255 139.045 251.677 140.036 251.302 141.109C250.901 142.27 250.701 143.492 250.711 144.72V159.443C250.741 159.909 250.592 160.369 250.294 160.728C250.066 161.005 249.745 161.19 249.39 161.249C249.226 161.269 249.059 161.252 248.902 161.198C248.745 161.144 248.603 161.054 248.487 160.936C248.174 160.608 247.996 160.174 247.99 159.721V145.206C248.005 143.863 247.817 142.525 247.434 141.238C247.087 140.07 246.454 139.008 245.591 138.147C244.649 137.235 243.506 136.555 242.254 136.163C240.622 135.663 238.92 135.428 237.213 135.469C235.472 135.428 233.736 135.662 232.068 136.163C230.796 136.557 229.631 137.236 228.661 138.147C227.781 139.007 227.125 140.068 226.749 141.238C226.344 142.521 226.144 143.861 226.158 145.206C226.069 151.272 225.999 156.307 225.95 160.311C225.95 161.403 225.95 162.435 225.994 163.417C244.37 162.777 258.916 160.936 265.526 160.227C266.459 160.123 267.413 160.024 268.371 159.929Z" fill="#3C54D0"/>
<path d="M293.347 155.693C293.314 155.195 293.462 154.702 293.764 154.304C294.042 153.982 294.44 154.051 294.946 154.512C295.97 155.367 297.135 156.039 298.388 156.497C299.505 156.925 300.715 157.057 301.899 156.879C303.366 156.686 304.757 156.111 305.932 155.212C306.913 154.431 307.699 153.432 308.226 152.295C308.724 151.204 309.059 150.046 309.219 148.857C309.372 147.811 309.454 146.755 309.463 145.697C309.452 144.622 309.324 143.551 309.08 142.503C308.832 141.358 308.41 140.257 307.829 139.239C307.24 138.209 306.433 137.32 305.465 136.634C304.389 135.89 303.122 135.468 301.814 135.419C298.616 135.184 295.968 135.914 293.868 137.607C291.769 139.3 290.271 142.227 289.374 146.387C289.19 147.126 288.877 147.454 288.381 147.379C287.884 147.305 287.695 146.824 287.79 145.99C287.929 144.325 288.377 142.7 289.111 141.198C289.839 139.691 290.801 138.308 291.961 137.101C291.316 136.591 290.076 136.198 288.242 135.92C286.32 135.636 284.379 135.496 282.436 135.503C281.37 135.503 280.35 135.538 279.377 135.608C278.514 135.663 277.655 135.768 276.804 135.92C276.354 135.985 275.923 136.15 275.544 136.402C275.165 136.654 274.848 136.988 274.614 137.379C274.063 138.275 273.763 139.303 273.745 140.355C273.649 145.448 273.58 150.506 273.537 155.529C273.537 156.834 273.537 158.149 273.537 159.458C279.466 158.962 286.027 158.56 293.233 158.357C293.263 157.464 293.302 156.576 293.347 155.693Z" fill="#3C54D0"/>
<path d="M348.12 158.818C349.835 157.112 350.78 154.605 350.956 151.298C351.148 148.879 350.754 146.45 349.809 144.214C348.958 142.292 347.659 140.601 346.019 139.284C344.313 137.952 342.355 136.976 340.263 136.416C337.977 135.783 335.614 135.468 333.241 135.479C331.36 135.483 329.484 135.68 327.644 136.069C325.765 136.461 323.933 137.055 322.181 137.84C320.399 138.657 318.793 139.812 317.453 141.243C316.093 142.699 314.956 144.349 314.081 146.139C313.16 148.016 312.471 149.999 312.03 152.042C311.58 154.088 311.37 156.179 311.404 158.273C321.903 158.471 333.479 159.096 346.168 160.321C346.875 159.898 347.53 159.393 348.12 158.818ZM341.023 149.478C340.98 149.776 340.846 150.055 340.641 150.276C340.555 150.383 340.442 150.466 340.314 150.515C340.185 150.563 340.046 150.577 339.911 150.554C338.324 150.194 336.705 149.996 335.079 149.964C333.396 149.958 331.722 150.204 330.112 150.693C329.993 150.742 329.861 150.752 329.736 150.721C329.611 150.69 329.499 150.619 329.417 150.519C329.224 150.294 329.103 150.016 329.069 149.721C329.024 149.404 329.06 149.082 329.174 148.783C329.239 148.626 329.338 148.485 329.464 148.371C329.591 148.257 329.741 148.172 329.904 148.123C331.5 147.474 333.225 147.202 334.945 147.33C336.665 147.435 338.374 147.679 340.055 148.059C340.227 148.082 340.392 148.144 340.537 148.24C340.681 148.336 340.802 148.464 340.889 148.614C341.023 148.881 341.07 149.183 341.023 149.478Z" fill="#3C54D0"/>
<path d="M152.196 64.7259C151.918 63.6594 152.281 63.1683 153.626 63.9918C154.539 64.6349 155.544 65.1366 156.606 65.4799C165.545 67.9602 171.336 64.3092 174.023 61.571C178.105 57.4091 186.439 55.3951 191.618 58.9121C192.56 59.5733 193.297 60.486 193.744 61.5457C194.191 62.6054 194.33 63.7694 194.146 64.9045C192.587 75.2622 184.03 81.4431 172.945 81.2745C162.903 81.1058 154.654 74.0469 152.196 64.7259Z" fill="#3C54D0"/>
<path d="M194.131 55.2958C194.409 56.3623 194.047 56.8534 192.701 56.03C191.788 55.3869 190.784 54.8851 189.721 54.5418C180.782 52.0615 174.991 55.7125 172.304 58.4507C168.222 62.6127 159.889 64.6267 154.709 61.1096C153.767 60.4484 153.03 59.5358 152.583 58.4761C152.136 57.4163 151.997 56.2523 152.181 55.1172C153.74 44.7595 162.297 38.5786 173.382 38.7473C183.424 38.9159 191.673 45.9748 194.131 55.2958Z" fill="#F93347"/>
<path d="M231.269 59.0311C231.269 47.3558 227.803 35.9428 221.309 26.2352C214.815 16.5276 205.585 8.96142 194.786 4.4935C183.987 0.025577 172.105 -1.14343 160.641 1.13429C149.177 3.41202 138.646 9.03418 130.381 17.2898C122.116 25.5455 116.488 36.0638 114.207 47.5147C111.927 58.9656 113.097 70.8347 117.57 81.6213C122.043 92.4078 129.618 101.627 139.337 108.114C149.056 114.6 160.482 118.062 172.17 118.062C172.707 118.062 173.238 118.062 173.769 118.062C173.844 118.062 173.913 118.062 173.993 118.062H226.466C227.74 118.062 228.961 117.557 229.862 116.657C230.763 115.758 231.269 114.537 231.269 113.265V60.8516C231.269 60.7722 231.269 60.7028 231.269 60.6284C231.269 60.0976 231.269 59.5668 231.269 59.0311ZM172.915 90.7788C166.776 90.7788 160.775 88.9605 155.671 85.5538C150.566 82.1471 146.588 77.3049 144.239 71.6397C141.89 65.9746 141.275 59.7408 142.472 53.7266C143.67 47.7125 146.626 42.1882 150.967 37.8522C155.308 33.5163 160.839 30.5635 166.86 29.3672C172.881 28.1709 179.122 28.7849 184.793 31.1315C190.465 33.4781 195.313 37.4519 198.723 42.5504C202.134 47.6489 203.954 53.6432 203.954 59.7751C203.954 67.9978 200.684 75.8838 194.863 81.6981C189.042 87.5124 181.147 90.7788 172.915 90.7788Z" fill="#F93347"/>
<mask id="mask1_48_5905" style="mask-type:luminance" maskUnits="userSpaceOnUse" x="113" y="0" width="119" height="119">
<path d="M172.195 0C160.507 0 149.08 3.46211 139.362 9.94852C129.643 16.4349 122.068 25.6543 117.595 36.4408C113.122 47.2273 111.952 59.0965 114.232 70.5474C116.513 81.9983 122.141 92.5166 130.406 100.772C138.671 109.028 149.202 114.65 160.666 116.928C172.13 119.206 184.012 118.037 194.811 113.569C205.61 109.101 214.84 101.535 221.334 91.8269C227.828 82.1193 231.294 70.7063 231.294 59.031C231.294 43.375 225.067 28.3603 213.984 17.2898C202.901 6.21932 187.869 0 172.195 0ZM172.94 90.7788C166.801 90.7788 160.8 88.9605 155.696 85.5537C150.591 82.147 146.613 77.3049 144.264 71.6397C141.914 65.9745 141.3 59.7407 142.497 53.7266C143.695 47.7125 146.651 42.1881 150.992 37.8522C155.333 33.5163 160.864 30.5634 166.885 29.3672C172.906 28.1709 179.147 28.7848 184.818 31.1314C190.49 33.478 195.338 37.4519 198.748 42.5504C202.159 47.6489 203.979 53.6432 203.979 59.7751C203.979 67.9978 200.709 75.8837 194.888 81.698C189.067 87.5124 181.172 90.7788 172.94 90.7788Z" fill="white"/>
</mask>
<g mask="url(#mask1_48_5905)">
<g opacity="0.2">
<path d="M230.698 51.3915C229.229 40.1605 224.557 29.5886 217.239 20.9371C209.92 12.2856 200.264 5.91978 189.423 2.59916C187.801 2.09979 186.159 1.67318 184.497 1.31933C182.901 0.9787 181.287 0.704214 179.655 0.495869C178.023 0.287524 176.337 0.146974 174.599 0.0742188V56.3273H231.125C231.051 54.6705 230.911 53.0236 230.698 51.3915ZM179.655 15.0155V6.1559C181.284 6.38409 182.898 6.69165 184.497 7.06865C186.096 7.44566 187.804 7.94172 189.423 8.4973C190.6 8.89911 191.758 9.3406 192.9 9.82674C198.579 12.2138 203.799 15.5711 208.325 19.7479L205.459 22.63C201.303 18.8134 196.518 15.7423 191.316 13.5521C190.69 13.2843 190.054 13.0313 189.413 12.7932C187.799 12.189 186.155 11.6691 184.487 11.2355V21.9058H179.645V15.0155H179.655ZM207.769 41.3066H179.655V26.4001H184.497V36.3213H204.804C203.595 34.5869 202.248 32.9529 200.776 31.4351C200.607 31.2565 200.439 31.0829 200.28 30.9093C199.149 29.779 197.952 28.7172 196.694 27.7295C195.914 27.1194 195.12 26.539 194.3 25.9883V31.445H189.438V17.8579L189.513 17.8877C200.111 22.3796 208.575 30.7697 213.152 41.3215L207.769 41.3066ZM220.919 51.3766H179.655V46.2474H219.847C219.399 44.5779 218.862 42.9336 218.238 41.3215C218.044 40.8255 217.845 40.3294 217.637 39.8334C215.513 34.7999 212.56 30.1571 208.901 26.0975L211.772 23.2104C218.909 31.071 223.532 40.8829 225.046 51.3866L220.919 51.3766Z" fill="white"/>
<path d="M172.026 118.062C158.382 118.071 145.155 113.365 134.59 104.742C124.025 96.118 116.772 84.1085 114.063 70.7514C111.354 57.3942 113.356 43.5123 119.728 31.4615C126.1 19.4106 136.451 9.93335 149.023 4.63805C163.465 -1.45398 179.739 -1.56583 194.264 4.3271C208.789 10.22 220.375 21.635 226.474 36.0609C232.573 50.4868 232.685 66.7419 226.785 81.2502C220.886 95.7586 209.458 107.332 195.015 113.424C187.742 116.496 179.923 118.073 172.026 118.062ZM172.026 5.61032C159.688 5.61919 147.733 9.88766 138.184 17.6927C128.636 25.4978 122.082 36.3595 119.633 48.4383C117.184 60.517 118.99 73.07 124.745 83.9711C130.5 94.8722 139.851 103.451 151.213 108.255C164.272 113.712 178.965 113.776 192.072 108.434C205.178 103.091 215.631 92.7772 221.139 79.7516C226.648 66.726 226.763 52.0505 221.459 38.9403C216.156 25.8301 205.866 15.354 192.845 9.80698C186.259 7.02147 179.178 5.59402 172.026 5.61032Z" fill="white"/>
<path d="M112.928 56.3273H169.459V0.0742188C167.76 0.143667 166.075 0.284217 164.403 0.495869C162.731 0.707521 161.117 0.982007 159.561 1.31933C157.905 1.67318 156.262 2.09979 154.629 2.59916C143.787 5.91675 134.13 12.2818 126.812 20.934C119.494 29.5861 114.824 40.1596 113.36 51.3915C113.146 53.0236 113.007 54.6705 112.928 56.3273ZM164.403 19.9662V21.9058H159.561V11.2554C157.891 11.6896 156.245 12.2095 154.629 12.813C153.994 13.0511 153.358 13.3091 152.732 13.572C147.53 15.7622 142.745 18.8333 138.588 22.6499L135.723 19.7678C140.249 15.5909 145.468 12.2336 151.148 9.84658C152.294 9.36045 153.452 8.9173 154.624 8.51715C156.247 7.96156 157.891 7.48534 159.556 7.08849C161.155 6.71149 162.769 6.40393 164.398 6.17575V19.9662H164.403ZM130.906 41.3215C135.487 30.767 143.956 22.3765 154.56 17.8877L154.629 17.8579V31.4351H149.772V25.9784C148.953 26.529 148.158 27.1094 147.379 27.7196C146.121 28.7072 144.924 29.769 143.793 30.8993L143.296 31.4252C141.827 32.9444 140.482 34.5783 139.274 36.3113H159.581V26.3902H164.423V41.3215H130.906ZM119.031 51.3915C120.546 40.8878 125.169 31.0759 132.306 23.2154L135.177 26.1024C131.518 30.162 128.565 34.8048 126.441 39.8383C126.232 40.3344 126.029 40.8304 125.84 41.3265C125.216 42.9385 124.679 44.5829 124.231 46.2524H164.408V51.3915H119.031Z" fill="white"/>
<path d="M231.125 61.7146H174.599V117.973C176.298 117.903 177.983 117.761 179.655 117.546C181.327 117.331 182.941 117.057 184.497 116.723C186.152 116.372 187.794 115.945 189.423 115.443C191.348 114.856 193.242 114.168 195.095 113.384C204.599 109.38 212.886 102.959 219.133 94.7605C225.379 86.5619 229.367 76.8719 230.698 66.6553C230.911 65.0183 231.051 63.3714 231.125 61.7146ZM179.655 98.0757V96.1361H184.497V106.787C186.166 106.355 187.81 105.835 189.423 105.229C190.064 104.991 190.7 104.733 191.325 104.475C196.527 102.281 201.312 99.2085 205.469 95.3921L208.335 98.2791C203.807 102.453 198.587 105.81 192.91 108.2C191.758 108.696 190.6 109.128 189.433 109.53C187.814 110.085 186.172 110.56 184.507 110.953C182.908 111.334 181.294 111.638 179.665 111.866V98.0757H179.655ZM213.152 76.7452C208.569 87.2973 200.1 95.6856 189.498 100.174L189.423 100.204V86.6118H194.285V92.0685C195.105 91.5228 195.899 90.9424 196.679 90.3323C197.938 89.3443 199.135 88.2808 200.265 87.1475C200.439 86.9789 200.607 86.8003 200.761 86.6267C202.232 85.1061 203.579 83.4705 204.789 81.7355H184.497V91.6567H179.655V76.7253H213.152V76.7452ZM225.031 66.6752C223.514 77.1781 218.892 86.9893 211.757 94.8513L208.886 91.9593C212.544 87.9007 215.496 83.2597 217.622 78.2284C217.83 77.7323 218.029 77.2363 218.223 76.7402C218.845 75.1277 219.382 73.4834 219.832 71.8144H179.655V66.6553H225.031V66.6752Z" fill="white"/>
<path d="M113.36 66.6553C114.704 76.8674 118.697 86.5513 124.942 94.7476C131.187 102.944 139.467 109.368 148.963 113.384C150.815 114.168 152.706 114.856 154.629 115.443C156.258 115.942 157.902 116.369 159.561 116.723C161.16 117.053 162.774 117.328 164.403 117.546C166.032 117.764 167.717 117.907 169.459 117.973V61.7146H112.928C113.007 63.3714 113.146 65.0183 113.36 66.6553ZM164.403 103.031V111.886C162.774 111.658 161.16 111.354 159.561 110.973C157.905 110.58 156.262 110.105 154.629 109.55C153.457 109.146 152.299 108.703 151.153 108.22C145.475 105.829 140.256 102.473 135.728 98.299L138.593 95.4119C142.751 99.2283 147.535 102.301 152.737 104.495C153.363 104.758 153.999 104.991 154.634 105.249C156.25 105.854 157.896 106.374 159.566 106.806V96.1361H164.408V103.031H164.403ZM136.289 76.7402H164.403V91.6617H159.561V81.7405H139.254C140.464 83.4742 141.809 85.1097 143.277 86.6316C143.45 86.8053 143.619 86.9839 143.773 87.1525C144.903 88.2858 146.1 89.3493 147.359 90.3372C148.138 90.9474 148.933 91.5278 149.753 92.0734V86.6168H154.61V100.204L154.54 100.174C143.938 95.6856 135.469 87.2973 130.886 76.7452L136.289 76.7402ZM123.138 66.6702H164.403V71.8144H124.226C124.675 73.4834 125.212 75.1277 125.835 76.7402C126.024 77.2363 126.227 77.7323 126.436 78.2284C128.561 83.2597 131.514 87.9007 135.172 91.9593L132.301 94.8513C125.164 86.9832 120.543 77.1647 119.031 66.6553L123.138 66.6702Z" fill="white"/>
</g>
</g>
</g>
<defs>
<clipPath id="clip0_48_5905">
<rect width="351" height="180" fill="white"/>
</clipPath>
</defs>
</svg>
