<svg width="266" height="45" viewBox="0 0 266 45" fill="none" xmlns="http://www.w3.org/2000/svg">
<g clip-path="url(#clip0_19_4180)">
<g clip-path="url(#clip1_19_4180)">
<mask id="mask0_19_4180" style="mask-type:luminance" maskUnits="userSpaceOnUse" x="47" y="30" width="212" height="18">
<path d="M47.1489 38.1053C89.4049 30.2424 108.74 29.6703 118.527 30.7409C120.218 30.9279 132.183 32.3158 149.077 33.8566C150.219 33.9643 155.984 34.4883 158.785 34.7064C178.739 36.2727 196.889 33.9671 203.039 33.2902C215.533 31.9221 233.92 31.2083 259 34.4231V46.6027L47.1489 47.7357V38.1053Z" fill="white"/>
</mask>
<g mask="url(#mask0_19_4180)">
<path d="M62.0126 32.6356C61.9879 33.7176 61.9346 34.7741 61.8527 35.8051C61.7709 36.8361 61.6757 37.8672 61.5672 38.8982C61.4945 39.6091 61.3334 40.3084 61.0876 40.98C60.8637 41.6075 60.5174 42.185 60.0683 42.6795C59.6207 43.1635 59.0761 43.5494 58.4694 43.8125C57.781 44.1023 57.0386 44.2442 56.2909 44.2289C55.5301 44.2468 54.7741 44.1049 54.0725 43.8125C53.4658 43.5494 52.9212 43.1635 52.4736 42.6795C52.0245 42.185 51.6782 41.6075 51.4543 40.98C51.2085 40.3084 51.0474 39.6091 50.9747 38.8982C50.5701 35.0251 50.3699 31.1336 50.3751 27.2398C50.3701 23.3459 50.5702 19.4545 50.9747 15.5814C51.0464 14.8776 51.2076 14.1858 51.4543 13.5222C51.6817 12.9057 52.0279 12.339 52.4736 11.8538C52.9212 11.3698 53.4658 10.9839 54.0725 10.7209C54.7741 10.4284 55.5301 10.2865 56.2909 10.3045C57.0386 10.2892 57.781 10.4311 58.4694 10.7209C59.0761 10.9839 59.6207 11.3698 60.0683 11.8538C60.5191 12.3378 60.8702 12.9046 61.1018 13.5222C61.3486 14.1858 61.5098 14.8776 61.5815 15.5814C61.7166 16.8786 61.8118 18.1277 61.867 19.3287C61.9222 20.5297 61.9888 21.8052 62.0669 23.1554C62.6193 21.5605 63.2804 20.0047 64.0455 18.4988C64.8069 17.0033 65.493 15.6871 66.104 14.5504C66.4907 13.8254 66.9706 13.1532 67.5316 12.5506C68.0589 11.9775 68.6892 11.5069 69.3903 11.1627C70.0892 10.827 70.8524 10.6435 71.6287 10.6246C72.5454 10.623 73.4517 10.8162 74.2869 11.1911C75.8857 11.8765 76.9583 12.8207 77.5046 14.0235C78.0509 15.2264 78.0176 16.5944 77.4047 18.1277C76.9888 19.218 76.4945 20.2772 75.9257 21.2973C75.3484 22.3426 74.7146 23.3562 74.027 24.3337C73.367 25.2725 72.653 26.1728 71.8885 27.0302C71.206 27.8005 70.457 28.5104 69.6501 29.1517C69.59 29.1819 69.5385 29.2264 69.5001 29.2813C69.4617 29.3362 69.4377 29.3997 69.4303 29.4661C69.4133 29.5844 69.4418 29.7047 69.5102 29.8031C69.5436 29.8501 69.586 29.89 69.635 29.9206C69.684 29.9512 69.7386 29.972 69.7957 29.9816C69.8702 29.9919 69.946 29.9866 70.0182 29.9661C70.0905 29.9456 70.1577 29.9104 70.2154 29.8626C70.5009 29.6275 70.7865 29.3896 71.072 29.1517C71.3619 28.9039 71.6356 28.6381 71.8914 28.3558C72.4919 29.0093 73.0525 29.6979 73.5702 30.4178C74.0977 31.1462 74.5848 31.9027 75.0292 32.6838C75.4689 33.4655 75.8686 34.2397 76.2284 35.0064C76.5658 35.7175 76.866 36.4455 77.1277 37.1874C77.3552 37.8027 77.453 38.4577 77.4152 39.112C77.3774 39.7663 77.2047 40.4059 76.9079 40.9914C76.3083 42.181 75.2224 43.0931 73.6502 43.7275C71.9961 44.3658 70.4733 44.3932 69.0819 43.8097C67.6905 43.2262 66.5199 42.1744 65.5701 40.6543C65.3303 40.2313 65.0572 39.7101 64.7507 39.0908C64.4443 38.4714 64.1311 37.8039 63.8114 37.0882C63.4916 36.3707 63.1785 35.6305 62.872 34.8676C62.5665 34.0887 62.2782 33.3494 62.0126 32.6356Z" fill="#F93347"/>
<path d="M92.3116 44.4924C89.9647 44.4924 87.986 44.043 86.3758 43.1441C84.7883 42.2677 83.4323 41.0312 82.4185 39.5356C81.3595 37.9538 80.6009 36.1933 80.1801 34.3408C79.7067 32.3377 79.4587 30.2886 79.4406 28.2312C79.434 27.0593 79.5886 25.8919 79.9003 24.7615C80.1793 23.7216 80.6466 22.7407 81.2793 21.8667C81.8876 21.0372 82.6811 20.3586 83.5977 19.884C84.6133 19.3773 85.739 19.1264 86.8754 19.1532C87.9587 19.1256 89.0354 19.3284 90.0332 19.748C90.8684 20.1102 91.6073 20.66 92.1917 21.354C92.7673 22.0592 93.1892 22.8751 93.4308 23.7503C93.7025 24.7184 93.837 25.7194 93.8305 26.7244C93.8305 27.5968 93.782 28.489 93.6906 29.4039C93.5935 30.3123 93.4022 31.2083 93.1196 32.0777C92.8323 32.9663 92.4292 33.8138 91.9204 34.5986C91.37 35.4345 90.6727 36.1655 89.8619 36.7569C89.7936 36.8047 89.7368 36.8668 89.6954 36.9387C89.6539 37.0106 89.6289 37.0907 89.622 37.1733C89.6208 37.3185 89.6702 37.4596 89.7619 37.5727C89.852 37.6894 89.9785 37.7731 90.1217 37.8106C90.201 37.8274 90.283 37.8273 90.3623 37.8102C90.4416 37.7931 90.5162 37.7594 90.5814 37.7115C91.465 37.0735 92.2368 36.2955 92.8655 35.4087C93.4577 34.551 93.9159 33.6094 94.2245 32.6159C94.554 31.549 94.775 30.4521 94.8841 29.3416C95.007 28.0898 95.0537 26.8318 95.024 25.5744C95.0182 24.731 95.0918 23.8889 95.2438 23.0592C95.3677 22.3316 95.6397 21.6368 96.0432 21.017C96.435 20.4276 96.9807 19.9547 97.6221 19.6489C98.4114 19.2922 99.2736 19.1225 100.14 19.1532C101.979 19.1532 103.285 19.9085 104.058 21.4192C104.83 22.9298 105.137 25.4016 104.977 28.8345C104.878 30.8298 104.517 32.8037 103.903 34.7062C103.331 36.4937 102.472 38.178 101.36 39.6942C100.319 41.1124 98.9914 42.2999 97.4622 43.181C95.8942 44.0665 94.1157 44.5193 92.3116 44.4924Z" fill="#F93347"/>
<path d="M111.978 42.7051C111.088 42.1674 110.292 41.4912 109.619 40.7025C108.954 39.9262 108.39 39.0697 107.941 38.1533C107.486 37.2391 107.144 36.2738 106.921 35.2784C106.694 34.2764 106.567 33.2546 106.542 32.2278C106.513 31.0074 106.634 29.7882 106.901 28.5966C107.155 27.4298 107.551 26.298 108.081 25.226C108.584 24.2053 109.238 23.2641 110.019 22.4332C110.789 21.6149 111.712 20.9538 112.737 20.4873C114.738 19.6048 116.903 19.1465 119.093 19.1418C120.458 19.141 121.816 19.3268 123.13 19.6942C124.337 20.0152 125.466 20.5761 126.448 21.3427C127.389 22.0946 128.136 23.059 128.626 24.1553C129.168 25.4291 129.394 26.8132 129.286 28.1916C129.177 30.0685 128.631 31.497 127.647 32.4771C126.663 33.4571 125.157 34.1832 123.13 34.6552C122.56 34.793 121.977 34.8736 121.391 34.896C120.776 34.9227 120.159 34.8819 119.552 34.7742C118.968 34.6744 118.402 34.4882 117.874 34.2219C117.37 33.9724 116.948 33.5877 116.655 33.1115C116.546 32.9501 116.34 32.8906 116.035 32.9303C115.729 32.9699 115.601 33.1767 115.655 33.5449C115.705 33.8871 115.858 34.2063 116.095 34.4598C116.4 34.809 116.757 35.1099 117.154 35.352C117.633 35.6459 118.151 35.8718 118.693 36.0233C119.33 36.2026 119.99 36.2895 120.652 36.2811C120.954 36.2781 121.255 36.2449 121.551 36.1819L122.408 36.0063C123.174 35.7691 123.955 35.5799 124.746 35.4398C125.313 35.3317 125.897 35.3442 126.459 35.4766C126.961 35.6153 127.404 35.9139 127.718 36.3264C128.136 36.8992 128.46 37.534 128.677 38.2071C129.129 39.4761 129.002 40.5741 128.298 41.5013C127.593 42.4284 126.241 43.1951 124.241 43.8012C123.413 44.065 122.564 44.2546 121.702 44.3677C120.848 44.4512 119.991 44.4909 119.133 44.4867C117.869 44.4884 116.61 44.3545 115.375 44.0873C114.168 43.8339 113.017 43.3656 111.978 42.7051ZM117.294 27.8347C118.22 27.5575 119.182 27.4182 120.149 27.4211C121.084 27.4386 122.015 27.5506 122.927 27.7554C123.005 27.7689 123.084 27.7612 123.158 27.7333C123.231 27.7054 123.296 27.6582 123.344 27.5967C123.461 27.4704 123.537 27.3127 123.564 27.1435C123.591 26.9741 123.563 26.8006 123.484 26.6479C123.434 26.5615 123.365 26.4876 123.282 26.4321C123.199 26.3766 123.104 26.3409 123.004 26.3278C122.039 26.1171 121.059 25.9827 120.072 25.9256C119.084 25.8524 118.092 26.0075 117.174 26.3788C117.081 26.4073 116.995 26.4558 116.922 26.5209C116.85 26.586 116.792 26.6661 116.754 26.7555C116.686 26.9263 116.665 27.1122 116.694 27.2937C116.713 27.4615 116.782 27.6198 116.894 27.7469C116.943 27.8019 117.008 27.84 117.08 27.8558C117.152 27.8716 117.227 27.8642 117.294 27.8347Z" fill="#F93347"/>
<path d="M142.796 36.8787C142.742 37.3007 142.708 37.7114 142.696 38.1051C142.685 38.4988 142.648 38.8982 142.596 39.2976C142.436 40.8082 141.937 42.0045 141.097 42.8863C140.258 43.7682 139.004 44.21 137.334 44.2119C135.621 44.2119 134.322 43.7701 133.437 42.8863C132.552 42.0026 132.026 40.8064 131.858 39.2976C131.725 37.9758 131.63 36.5935 131.573 35.1509C131.516 33.7082 131.446 32.3326 131.364 31.024V23.9088C131.364 22.4813 131.804 21.3323 132.683 20.4617C133.563 19.5912 134.722 19.155 136.161 19.1531C137.27 19.149 138.371 19.332 139.419 19.6941C139.893 19.8426 140.332 20.0868 140.707 20.4114C141.081 20.7361 141.385 21.1341 141.597 21.5806C140.597 22.7771 139.819 24.1398 139.299 25.6055C138.803 27.0379 138.632 28.5612 138.799 30.0666C138.809 30.2677 138.894 30.4578 139.039 30.5991C139.144 30.7073 139.287 30.7721 139.439 30.7804C139.506 30.779 139.573 30.7643 139.635 30.737C139.696 30.7098 139.752 30.6706 139.798 30.6218C139.913 30.4904 139.97 30.3193 139.958 30.1459C139.878 29.1361 139.945 28.1201 140.158 27.1294C140.362 26.1503 140.684 25.1993 141.117 24.2969C141.519 23.4487 142.03 22.6557 142.636 21.9375C143.16 21.3016 143.779 20.7494 144.472 20.3003C145.048 19.9614 145.657 19.6833 146.291 19.4704C146.915 19.2585 147.57 19.1513 148.23 19.1531C149.34 19.1548 150.442 19.3465 151.487 19.7196C152.52 20.0764 153.446 20.6852 154.18 21.4899C154.711 22.0571 155.155 22.6984 155.499 23.3933C155.817 24.0512 156.059 24.743 156.218 25.4554C156.38 26.1799 156.476 26.9174 156.504 27.659C156.529 28.4125 156.544 29.1829 156.544 29.976C156.515 31.4857 156.429 33.0634 156.284 34.7175C156.153 36.2579 155.92 37.788 155.584 39.2976C155.438 39.9947 155.21 40.6725 154.905 41.3171C154.632 41.8969 154.252 42.4214 153.786 42.8637C153.317 43.2968 152.767 43.6338 152.167 43.855C151.442 44.109 150.677 44.23 149.908 44.2119C148.15 44.2119 146.811 43.7701 145.891 42.8863C144.972 42.0026 144.419 40.8064 144.232 39.2976C144.178 38.952 144.138 38.6093 144.112 38.2638C144.087 37.9182 144.058 37.5641 144.032 37.1959C144.039 36.9953 143.983 36.7974 143.873 36.6294C143.789 36.5026 143.661 36.4108 143.513 36.3717C143.443 36.3598 143.371 36.3628 143.302 36.3803C143.233 36.3979 143.169 36.4297 143.113 36.4736C142.971 36.576 142.861 36.7165 142.796 36.8787Z" fill="#F93347"/>
<path d="M160.564 30.7408C160.21 30.6366 159.869 30.4962 159.545 30.3216C158.265 29.5832 157.626 28.1424 157.626 25.9992C157.601 25.3341 157.698 24.67 157.911 24.0392C158.089 23.5528 158.383 23.1164 158.768 22.7674C159.163 22.4251 159.626 22.1685 160.127 22.0139C160.717 21.8281 161.318 21.6768 161.926 21.5608C161.951 21.2945 161.966 21.0367 161.966 20.7847C161.965 20.5273 161.978 20.2701 162.006 20.0142C162.05 19.174 162.219 18.3447 162.505 17.5528C162.712 16.9842 163.055 16.4739 163.505 16.0658C163.943 15.7011 164.468 15.4526 165.029 15.3435C165.72 15.2044 166.423 15.1389 167.128 15.1481C167.812 15.1395 168.496 15.2051 169.166 15.3435C169.725 15.4633 170.246 15.7149 170.685 16.0771C171.144 16.4816 171.494 16.9925 171.705 17.5642C171.992 18.3578 172.173 19.1853 172.244 20.0256V20.1445C173.057 20.091 173.872 20.1033 174.682 20.1813C175.343 20.2296 175.985 20.4231 176.561 20.7478C177.84 21.4862 178.48 22.9402 178.48 25.1098C178.48 26.6412 178.099 27.7383 177.338 28.4011C176.576 29.0639 175.477 29.4737 174.04 29.6304L172.961 29.7466C172.961 30.2224 172.947 30.6728 172.921 31.0948C172.895 31.5169 172.852 31.9162 172.801 32.2844C172.35 32.4162 171.914 32.5957 171.502 32.8198C171.101 33.0365 170.726 33.2968 170.383 33.5959C170.069 33.8653 169.782 34.1641 169.526 34.4881C169.313 34.7453 169.138 35.0314 169.006 35.3378C168.952 35.4704 168.952 35.6189 169.006 35.7514C169.027 35.8059 169.059 35.8553 169.1 35.8964C169.142 35.9375 169.191 35.9692 169.246 35.9893C169.355 36.0296 169.473 36.0375 169.586 36.012C169.646 35.9968 169.702 35.9668 169.747 35.9247C169.793 35.8826 169.827 35.8298 169.846 35.7712C170.288 34.8872 170.975 34.1457 171.824 33.6327C172.618 33.1403 173.551 32.9176 174.483 32.9982C175.074 33.0481 175.653 33.1945 176.196 33.4316C176.75 33.6816 177.239 34.0559 177.623 34.5249C178.064 35.0687 178.39 35.6948 178.583 36.366C178.82 37.2308 178.894 38.1314 178.802 39.0229C178.761 39.8614 178.484 40.6716 178.003 41.3625C177.513 42.0608 176.879 42.6485 176.144 43.0875C175.327 43.5753 174.436 43.931 173.506 44.1411C172.491 44.3808 171.452 44.5006 170.408 44.498C168.49 44.498 166.967 44.1864 165.84 43.5633C164.749 42.9638 163.868 42.0477 163.316 40.9376C162.695 39.6538 162.308 38.271 162.174 36.8532C161.984 35.2557 161.864 33.4779 161.814 31.5197V30.9277C161.39 30.9281 160.969 30.865 160.564 30.7408Z" fill="#F93347"/>
<path d="M194.877 43.2999C193.968 43.6128 193.031 43.8386 192.078 43.974C191.06 44.1325 190.031 44.212 189.001 44.2119C187.375 44.2119 186.043 44.0004 185.003 43.5775C183.947 43.2213 182.994 42.6157 182.225 41.8128C181.52 40.9858 181.03 39.9996 180.798 38.9407C180.427 37.4848 180.253 35.6135 180.278 33.3268C180.303 31.0401 180.343 28.1661 180.398 24.7048C180.39 23.9364 180.504 23.1715 180.738 22.4388C180.954 21.7697 181.331 21.163 181.837 20.6714C182.396 20.1527 183.065 19.7655 183.796 19.5384C184.755 19.2532 185.753 19.1204 186.754 19.1447C187.735 19.1207 188.713 19.2536 189.652 19.5384C190.371 19.7642 191.027 20.152 191.57 20.6714C192.066 21.1638 192.43 21.7714 192.63 22.4388C192.851 23.1738 192.958 23.9378 192.949 24.7048V33.0067C192.954 33.2645 193.056 33.5111 193.235 33.6978C193.301 33.7659 193.383 33.8178 193.473 33.8492C193.563 33.8807 193.66 33.8909 193.754 33.8791C193.958 33.8425 194.142 33.7362 194.274 33.5789C194.446 33.3739 194.532 33.1113 194.514 32.8453V24.4272C194.508 23.7248 194.623 23.0265 194.854 22.3623C195.069 21.7505 195.401 21.1859 195.833 20.6997C196.277 20.2121 196.823 19.8256 197.432 19.5667C198.115 19.2816 198.85 19.1407 199.59 19.1532C200.325 19.1393 201.054 19.2802 201.729 19.5667C202.333 19.8294 202.876 20.2135 203.323 20.6946C203.77 21.1758 204.112 21.7436 204.327 22.3623C204.559 23.0261 204.674 23.7247 204.667 24.4272V37.2328C204.72 37.8956 204.787 38.5961 204.867 39.3344C204.946 40.0322 204.96 40.7359 204.907 41.4361C204.87 42.0521 204.685 42.6504 204.367 43.1809C204.195 43.4443 203.969 43.6687 203.704 43.8395C203.439 44.0104 203.14 44.1238 202.828 44.1723C201.792 44.4117 200.734 44.5446 199.67 44.5688C198.58 44.5688 197.732 44.4102 197.132 44.093C196.593 43.8306 196.126 43.4417 195.773 42.96C195.478 42.5312 195.268 42.0506 195.153 41.5438C195.048 41.0537 194.954 40.6374 194.868 40.2946C194.83 40.1776 194.753 40.0773 194.648 40.0114C194.606 39.9854 194.559 39.9687 194.509 39.9624C194.46 39.956 194.41 39.9602 194.363 39.9746C194.265 40.0049 194.181 40.0667 194.123 40.1502C194.093 40.1905 194.073 40.2366 194.062 40.2855C194.052 40.3343 194.052 40.3847 194.063 40.4334C194.091 40.6459 194.137 40.8923 194.203 41.1699C194.268 41.4475 194.343 41.7222 194.423 42.0026C194.502 42.283 194.577 42.538 194.642 42.7759C194.689 42.9629 194.768 43.1403 194.877 43.2999Z" fill="#F93347"/>
<path d="M218.22 20.0626C217.554 20.7526 217.001 21.542 216.581 22.4022C216.16 23.2598 215.902 24.1876 215.822 25.1383C215.77 25.6142 215.882 25.8804 216.162 25.9342C216.441 25.9881 216.635 25.8011 216.733 25.3678C217.265 22.9904 218.132 21.3192 219.331 20.3543C220.53 19.3894 222.053 18.973 223.899 19.1052C224.651 19.132 225.379 19.3718 225.997 19.7963C226.554 20.1878 227.018 20.6953 227.356 21.2833C227.69 21.8649 227.933 22.4933 228.076 23.1471C228.216 23.7463 228.29 24.3589 228.296 24.974C228.291 25.5779 228.244 26.1807 228.156 26.7783C228.065 27.4563 227.873 28.117 227.585 28.7384C227.283 29.3888 226.831 29.9594 226.266 30.4039C225.591 30.9182 224.791 31.2474 223.947 31.3584C223.267 31.4585 222.572 31.3834 221.929 31.1403C221.208 30.8788 220.539 30.4954 219.95 30.0073C219.665 29.7411 219.431 29.7014 219.271 29.8884C219.097 30.1144 219.012 30.3951 219.031 30.6786C218.98 32.109 218.911 33.5337 218.831 34.9641C218.751 36.3945 218.645 37.8193 218.511 39.244C218.439 39.9578 218.27 40.6588 218.012 41.3287C217.779 41.9521 217.434 42.528 216.992 43.0281C216.554 43.5141 216.016 43.9005 215.413 44.1611C214.725 44.4502 213.982 44.5912 213.235 44.5747C212.468 44.5917 211.706 44.4509 210.997 44.1611C210.383 43.9008 209.831 43.5147 209.378 43.0281C208.928 42.5339 208.582 41.9563 208.358 41.3287C208.114 40.6576 207.966 39.9559 207.919 39.244C207.707 36.3379 207.612 33.4497 207.633 30.5795C207.654 27.7093 207.694 24.8211 207.753 21.915C207.764 21.3145 207.937 20.7278 208.253 20.2155C208.386 19.9898 208.568 19.7965 208.786 19.6495C209.003 19.5025 209.252 19.4055 209.512 19.3658C210.003 19.2871 210.499 19.2361 210.997 19.2128C211.568 19.1703 212.139 19.1533 212.755 19.1533C213.872 19.1497 214.988 19.2283 216.093 19.3884C217.135 19.5471 217.849 19.7736 218.22 20.0626Z" fill="#F93347"/>
<path d="M234.848 42.7051C233.959 42.1668 233.163 41.4907 232.49 40.7025C231.826 39.9248 231.262 39.0686 230.811 38.1533C230.356 37.2391 230.014 36.2738 229.792 35.2784C229.565 34.2762 229.438 33.2545 229.412 32.2278C229.387 31.0075 229.507 29.7886 229.772 28.5966C230.026 27.4298 230.422 26.298 230.951 25.226C231.455 24.2053 232.108 23.2641 232.89 22.4332C233.66 21.6155 234.583 20.9545 235.608 20.4873C237.609 19.6048 239.773 19.1465 241.963 19.1418C243.328 19.141 244.687 19.3268 246 19.6942C247.207 20.0152 248.336 20.5761 249.318 21.3427C250.26 22.0939 251.008 23.0584 251.496 24.1553C252.038 25.4291 252.264 26.8132 252.156 28.1916C252.051 30.0685 251.505 31.497 250.517 32.4771C249.529 33.4571 248.024 34.1832 246 34.6552C245.43 34.793 244.848 34.8736 244.262 34.896C243.646 34.9226 243.029 34.8818 242.423 34.7742C241.839 34.6744 241.273 34.4882 240.744 34.2219C240.241 33.9716 239.819 33.587 239.525 33.1115C239.419 32.9501 239.211 32.8906 238.905 32.9303C238.6 32.9699 238.471 33.1767 238.526 33.5449C238.576 33.8869 238.729 34.2058 238.965 34.4598C239.27 34.809 239.628 35.1099 240.025 35.352C240.504 35.6453 241.022 35.8713 241.563 36.0233C242.2 36.2026 242.86 36.2895 243.522 36.2811C243.824 36.2781 244.126 36.2449 244.421 36.1819C244.756 36.1168 245.041 36.0573 245.278 36.0063C246.045 35.7691 246.826 35.5799 247.616 35.4398C248.184 35.3316 248.767 35.3441 249.329 35.4766C249.832 35.6138 250.275 35.9126 250.589 36.3264C251.006 36.8992 251.33 37.534 251.548 38.2071C252.001 39.4761 251.874 40.5741 251.168 41.5013C250.462 42.4284 249.11 43.1951 247.111 43.8012C246.284 44.0653 245.434 44.2549 244.573 44.3677C243.719 44.4512 242.861 44.4909 242.003 44.4867C240.74 44.4884 239.48 44.3545 238.246 44.0873C237.039 43.8334 235.888 43.3651 234.848 42.7051ZM240.164 27.8347C241.09 27.5577 242.053 27.4184 243.02 27.4211C243.955 27.4384 244.886 27.5504 245.798 27.7554C245.876 27.7694 245.956 27.7621 246.03 27.7341C246.104 27.7061 246.169 27.6586 246.217 27.5967C246.335 27.4711 246.412 27.3132 246.437 27.1435C246.464 26.9741 246.436 26.8006 246.357 26.6479C246.308 26.5615 246.238 26.4876 246.155 26.4321C246.072 26.3766 245.977 26.3409 245.878 26.3278C244.911 26.117 243.93 25.9825 242.942 25.9256C241.954 25.8527 240.962 26.0078 240.045 26.3788C239.951 26.4073 239.865 26.4558 239.792 26.5209C239.72 26.586 239.663 26.6661 239.625 26.7555C239.559 26.927 239.539 27.1121 239.565 27.2937C239.585 27.4611 239.654 27.6188 239.765 27.7469C239.813 27.8019 239.878 27.84 239.95 27.8558C240.022 27.8716 240.097 27.8642 240.164 27.8347Z" fill="#F93347"/>
</g>
<path d="M62.013 32.6356C62.2785 33.3494 62.5669 34.0887 62.8695 34.8563L63.0494 35.2953C67.4692 34.5645 71.5844 33.9272 75.395 33.3834C75.2722 33.1539 75.1523 32.9245 75.021 32.6923C74.5766 31.9112 74.0895 31.1547 73.562 30.4263C73.0443 29.7064 72.4837 29.0178 71.8832 28.3643C71.6274 28.6466 71.3537 28.9124 71.0638 29.1602C70.7783 29.3981 70.4927 29.636 70.2072 29.8711C70.1495 29.9189 70.0823 29.9541 70.01 29.9746C69.9378 29.9951 69.862 30.0004 69.7875 29.9901C69.7304 29.9805 69.6758 29.9597 69.6268 29.9291C69.5778 29.8985 69.5354 29.8586 69.502 29.8116C69.4336 29.7132 69.4051 29.5929 69.4221 29.4746C69.4295 29.4082 69.4535 29.3447 69.4919 29.2898C69.5303 29.2349 69.5818 29.1904 69.6419 29.1602C70.4488 28.5189 71.1978 27.809 71.8803 27.0387C72.6448 26.1813 73.3588 25.281 74.0188 24.3422C74.7064 23.3647 75.3402 22.3511 75.9175 21.3058C76.4863 20.2857 76.9806 19.2265 77.3965 18.1362C78.0113 16.6011 78.0446 15.233 77.4964 14.032C76.9482 12.831 75.8775 11.8859 74.2844 11.1967C73.4492 10.8218 72.5429 10.6287 71.6262 10.6302C70.8499 10.6491 70.0867 10.8326 69.3878 11.1684C68.6868 11.5125 68.0564 11.9832 67.5291 12.5563C66.9681 13.1588 66.4883 13.831 66.1015 14.556C65.4886 15.689 64.8025 17.0051 64.043 18.5045C63.2779 20.0104 62.6168 21.5662 62.0644 23.161C61.9844 21.8128 61.9178 20.5372 61.8645 19.3344C61.8112 18.1315 61.7161 16.8824 61.579 15.587C61.5087 14.8815 61.3485 14.1877 61.1022 13.5222C60.8748 12.9057 60.5286 12.339 60.0829 11.8538C59.6353 11.3698 59.0907 10.9839 58.484 10.7209C57.7957 10.4311 57.0532 10.2892 56.3056 10.3045C55.5448 10.2865 54.7888 10.4284 54.0871 10.7209C53.4805 10.9839 52.9359 11.3698 52.4883 11.8538C52.0426 12.339 51.6963 12.9057 51.469 13.5222C51.2222 14.1858 51.061 14.8776 50.9893 15.5814C50.5849 19.4545 50.3847 23.3459 50.3897 27.2398C50.3897 30.7124 50.5411 34.1047 50.8437 37.4168C54.721 36.7125 58.4003 36.0704 61.8817 35.4907C61.9416 34.5588 61.9902 33.61 62.013 32.6356Z" fill="#3C54D0"/>
<path d="M104.982 28.826C105.142 25.3912 104.836 22.9194 104.063 21.4106C103.29 19.9019 101.984 19.1465 100.146 19.1446C99.2789 19.1139 98.4168 19.2836 97.6275 19.6403C96.9861 19.9462 96.4404 20.419 96.0486 21.0084C95.6451 21.6282 95.3731 22.3231 95.2491 23.0506C95.0971 23.8804 95.0235 24.7225 95.0293 25.5658C95.059 26.8232 95.0123 28.0812 94.8894 29.333C94.8266 29.9392 94.7352 30.5226 94.6182 31.0891C98.4669 30.7464 101.856 30.5226 104.842 30.4178C104.905 29.891 104.954 29.367 104.982 28.826Z" fill="#3C54D0"/>
<path d="M93.6906 29.404C93.782 28.4891 93.8305 27.5969 93.8305 26.7245C93.837 25.7196 93.7025 24.7186 93.4308 23.7504C93.1892 22.8753 92.7673 22.0594 92.1917 21.3542C91.6073 20.6601 90.8684 20.1103 90.0332 19.7482C89.0354 19.3286 87.9587 19.1258 86.8754 19.1534C85.739 19.1265 84.6133 19.3775 83.5977 19.8841C82.6811 20.3587 81.8876 21.0374 81.2793 21.8669C80.6466 22.7409 80.1793 23.7218 79.9003 24.7616C79.5886 25.8921 79.434 27.0594 79.4406 28.2314C79.4568 29.7507 79.5962 31.2662 79.8575 32.7633C84.8882 32.092 89.3708 31.5822 93.3708 31.2055C93.52 30.6132 93.6269 30.0112 93.6906 29.404Z" fill="#3C54D0"/>
<path d="M118.527 30.7409C119.384 30.8344 122.833 31.2338 128.206 31.8031C128.837 30.8826 129.2 29.6844 129.285 28.203C129.395 26.8219 129.169 25.4347 128.626 24.1583C128.136 23.062 127.389 22.0976 126.447 21.3457C125.466 20.578 124.337 20.0162 123.13 19.6943C121.815 19.3337 120.457 19.1545 119.093 19.1618C116.903 19.1665 114.738 19.6248 112.737 20.5073C111.712 20.9738 110.788 21.6349 110.019 22.4532C109.237 23.2841 108.584 24.2252 108.08 25.246C107.551 26.3179 107.155 27.4498 106.901 28.6166C106.771 29.1968 106.676 29.7842 106.616 30.3755C110.59 30.2323 114.57 30.3543 118.527 30.7409ZM116.754 26.7557C116.792 26.6662 116.849 26.5861 116.922 26.521C116.994 26.4559 117.081 26.4074 117.174 26.3789C118.092 26.0077 119.084 25.8525 120.072 25.9258C121.061 25.9863 122.043 26.1245 123.01 26.3393C123.109 26.3524 123.204 26.3881 123.288 26.4436C123.371 26.4991 123.44 26.573 123.49 26.6594C123.568 26.8121 123.596 26.9856 123.57 27.155C123.543 27.3242 123.466 27.4819 123.35 27.6082C123.301 27.6701 123.236 27.7176 123.162 27.7456C123.088 27.7736 123.008 27.7809 122.93 27.7669C122.018 27.562 121.087 27.4501 120.152 27.4326C119.185 27.4296 118.223 27.569 117.297 27.8462C117.228 27.8744 117.152 27.88 117.08 27.8622C117.008 27.8443 116.944 27.8039 116.897 27.747C116.785 27.6199 116.715 27.4617 116.697 27.2938C116.665 27.1089 116.685 26.9188 116.754 26.7443V26.7557Z" fill="#3C54D0"/>
<path d="M156.304 34.491C156.437 32.9218 156.518 31.4168 156.547 29.976C156.547 29.1829 156.547 28.4125 156.507 27.6591C156.479 26.9175 156.383 26.1799 156.221 25.4554C156.061 24.7431 155.82 24.0512 155.502 23.3934C155.157 22.6983 154.712 22.057 154.18 21.49C153.446 20.6803 152.518 20.0675 151.482 19.7084C150.437 19.3352 149.334 19.1435 148.224 19.1419C147.564 19.14 146.909 19.2473 146.285 19.4591C145.653 19.676 145.045 19.9579 144.472 20.3003C143.779 20.7458 143.159 21.2941 142.633 21.9262C142.027 22.6444 141.516 23.4375 141.115 24.2856C140.681 25.188 140.359 26.139 140.155 27.1181C139.943 28.1088 139.875 29.1248 139.955 30.1346C139.968 30.308 139.91 30.4791 139.795 30.6105C139.749 30.6593 139.693 30.6985 139.632 30.7258C139.57 30.753 139.503 30.7677 139.436 30.7691C139.284 30.7608 139.141 30.696 139.036 30.5878C138.891 30.4465 138.806 30.2564 138.796 30.0553C138.63 28.5499 138.8 27.0266 139.296 25.5942C139.816 24.1285 140.595 22.7658 141.594 21.5693C141.381 21.1252 141.078 20.7296 140.703 20.4069C140.329 20.0843 139.892 19.8417 139.419 19.6942C138.371 19.3349 137.269 19.1548 136.161 19.1617C134.722 19.1617 133.563 19.5979 132.683 20.4703C131.804 21.3427 131.364 22.4917 131.364 23.9174V31.024C131.379 31.3894 131.393 31.7633 131.41 32.14C136.264 32.6442 142.259 33.239 149.078 33.8593C149.948 33.9273 153.44 34.2445 156.304 34.491Z" fill="#3C54D0"/>
<path d="M178.074 35.1678C177.947 34.9388 177.799 34.7217 177.632 34.5192C177.247 34.0501 176.759 33.6759 176.204 33.4258C175.661 33.1887 175.082 33.0423 174.491 32.9925C173.559 32.9118 172.626 33.1346 171.833 33.6269C171.169 34.0239 170.605 34.5653 170.183 35.2103C172.904 35.2499 175.545 35.2273 178.074 35.1678Z" fill="#3C54D0"/>
<path d="M169.537 34.4796C169.793 34.1556 170.08 33.8568 170.394 33.5873C170.737 33.2883 171.112 33.028 171.513 32.8112C171.926 32.5872 172.361 32.4077 172.812 32.2759C172.864 31.8982 172.904 31.5017 172.932 31.0863C172.958 30.6642 172.972 30.2139 172.972 29.738L174.051 29.6219C175.49 29.4614 176.59 29.0516 177.349 28.3926C178.109 27.7336 178.489 26.6365 178.491 25.1013C178.491 22.9316 177.852 21.4776 176.573 20.7393C175.996 20.4145 175.355 20.221 174.694 20.1728C173.883 20.0948 173.068 20.0825 172.256 20.136V20.017C172.185 19.1767 172.003 18.3493 171.716 17.5556C171.505 16.984 171.155 16.4731 170.697 16.0686C170.257 15.7064 169.736 15.4547 169.178 15.335C168.507 15.1965 167.824 15.131 167.139 15.1395C166.435 15.1303 165.731 15.1959 165.041 15.335C164.48 15.4483 163.957 15.7006 163.522 16.0686C163.072 16.4767 162.729 16.987 162.522 17.5556C162.236 18.3475 162.067 19.1768 162.023 20.017C161.996 20.2729 161.982 20.5301 161.983 20.7874C161.983 21.0395 161.969 21.2973 161.943 21.5635C161.335 21.6795 160.734 21.8309 160.144 22.0167C159.643 22.1713 159.18 22.4279 158.785 22.7702C158.4 23.1192 158.106 23.5556 157.929 24.0419C157.715 24.6728 157.618 25.3369 157.643 26.002C157.643 28.1471 158.283 29.5879 159.562 30.3243C159.886 30.4989 160.227 30.6394 160.581 30.7435C160.989 30.8658 161.414 30.926 161.84 30.922V31.514C161.871 32.7112 161.928 33.8441 162.011 34.9129C164.415 35.0545 166.782 35.1424 169.098 35.1962C169.216 34.9413 169.364 34.7009 169.537 34.4796Z" fill="#3C54D0"/>
<path d="M204.67 33.1089V24.4274C204.677 23.7248 204.562 23.0263 204.33 22.3625C204.115 21.7438 203.773 21.176 203.326 20.6948C202.879 20.2137 202.336 19.8296 201.732 19.5669C201.056 19.2804 200.327 19.1395 199.593 19.1534C198.852 19.1409 198.117 19.2818 197.435 19.5669C196.826 19.8258 196.28 20.2123 195.836 20.6999C195.404 21.1861 195.072 21.7507 194.856 22.3625C194.626 23.0266 194.511 23.725 194.517 24.4274V32.8313C194.535 33.0973 194.449 33.3599 194.277 33.5649C194.144 33.7223 193.961 33.8285 193.757 33.8652C193.662 33.877 193.566 33.8667 193.476 33.8353C193.386 33.8038 193.304 33.752 193.238 33.6839C193.058 33.4972 192.957 33.2505 192.952 32.9928V24.705C192.961 23.938 192.853 23.174 192.632 22.439C192.435 21.7744 192.074 21.169 191.582 20.6772C191.039 20.1578 190.382 19.7701 189.663 19.5442C188.725 19.2595 187.746 19.1265 186.765 19.1505C185.764 19.1262 184.766 19.2591 183.807 19.5442C183.077 19.7714 182.407 20.1586 181.848 20.6772C181.343 21.1688 180.965 21.7756 180.749 22.4447C180.516 23.1774 180.401 23.9422 180.409 24.7106C180.358 28.1719 180.318 31.0459 180.29 33.3327C180.29 33.9558 180.29 34.5449 180.315 35.1058C190.879 34.7404 199.242 33.6895 203.042 33.2845L204.67 33.1089Z" fill="#3C54D0"/>
<path d="M219.02 30.6899C219.001 30.4063 219.086 30.1256 219.26 29.8996C219.42 29.7127 219.648 29.7523 219.939 30.0186C220.528 30.5067 221.197 30.89 221.918 31.1516C222.561 31.3947 223.256 31.4698 223.936 31.3697C224.78 31.2586 225.58 30.9295 226.255 30.4151C226.819 29.9731 227.271 29.4054 227.574 28.7581C227.862 28.1367 228.054 27.476 228.145 26.7981C228.233 26.2005 228.279 25.5977 228.285 24.9938C228.279 24.3787 228.205 23.7661 228.065 23.1669C227.921 22.5131 227.679 21.8847 227.345 21.3031C227.007 20.7151 226.543 20.2075 225.986 19.8161C225.37 19.3941 224.645 19.1553 223.896 19.1278C222.058 18.9937 220.535 19.4101 219.328 20.3769C218.121 21.3437 217.255 23.0148 216.73 25.3903C216.624 25.8152 216.445 25.9993 216.159 25.9568C215.873 25.9143 215.768 25.6368 215.819 25.1609C215.9 24.2101 216.157 23.2824 216.579 22.4247C216.998 21.5646 217.551 20.7751 218.218 20.0851C217.846 19.8019 217.133 19.5696 216.079 19.411C214.974 19.2509 213.858 19.1723 212.741 19.1759C212.13 19.1759 211.542 19.1929 210.983 19.2354C210.487 19.2664 209.993 19.325 209.504 19.411C209.243 19.4508 208.995 19.5477 208.777 19.6947C208.559 19.8417 208.377 20.0351 208.245 20.2607C207.929 20.7731 207.756 21.3597 207.745 21.9602C207.694 24.8701 207.654 27.7583 207.625 30.6247C207.625 31.38 207.625 32.1278 207.625 32.868C211.034 32.5848 214.806 32.3554 218.948 32.2421C218.991 31.7011 218.991 31.1969 219.02 30.6899Z" fill="#3C54D0"/>
<path d="M250.518 32.4772C251.504 31.4972 252.05 30.0687 252.156 28.1917C252.266 26.8105 252.04 25.4234 251.497 24.147C251.008 23.0501 250.261 22.0855 249.318 21.3343C248.336 20.5707 247.207 20.0128 246.001 19.6943C244.686 19.3337 243.328 19.1545 241.964 19.1618C239.774 19.1665 237.609 19.6248 235.608 20.5073C234.583 20.9745 233.66 21.6355 232.89 22.4532C232.108 23.2841 231.455 24.2252 230.951 25.246C230.422 26.3179 230.026 27.4498 229.772 28.6166C229.515 29.7791 229.394 30.9672 229.412 32.1572C235.448 32.2733 242.103 32.6302 249.398 33.3298C249.802 33.0876 250.177 32.8017 250.518 32.4772ZM246.44 27.1437C246.415 27.3133 246.338 27.4713 246.221 27.5969C246.172 27.6588 246.107 27.7063 246.033 27.7343C245.959 27.7622 245.879 27.7696 245.801 27.7555C244.889 27.5505 243.958 27.4385 243.023 27.4213C242.056 27.4185 241.094 27.5579 240.168 27.8348C240.099 27.8631 240.023 27.8687 239.951 27.8508C239.879 27.833 239.815 27.7926 239.768 27.7357C239.658 27.6076 239.588 27.4499 239.568 27.2825C239.542 27.101 239.563 26.9158 239.628 26.7443C239.666 26.6549 239.723 26.5748 239.796 26.5097C239.868 26.4446 239.954 26.3961 240.048 26.3676C240.966 26.0009 241.956 25.8497 242.943 25.9258C243.932 25.9863 244.914 26.1245 245.881 26.3393C245.98 26.3524 246.075 26.3881 246.158 26.4436C246.242 26.4991 246.311 26.573 246.36 26.6594C246.437 26.8088 246.465 26.9779 246.44 27.1437Z" fill="#3C54D0"/>
<path d="M14.6061 24.9088C14.5005 24.5151 14.6375 24.3423 15.1372 24.6256C15.4766 24.8627 15.85 25.0479 16.2449 25.175C19.5712 26.0928 21.7239 24.7445 22.7232 23.7333C24.2422 22.1953 27.3343 21.4504 29.2672 22.7505C29.6169 22.9949 29.8903 23.3319 30.0564 23.723C30.2225 24.1141 30.2745 24.5436 30.2066 24.9626C29.6355 28.7893 26.4463 31.0722 22.3235 31.0071C20.543 30.9639 18.8255 30.3447 17.4323 29.2439C16.0392 28.143 15.0468 26.6208 14.6061 24.9088Z" fill="#3C54D0"/>
<path d="M30.2012 21.4249C30.3069 21.8187 30.1698 21.9914 29.6702 21.7082C29.3291 21.4658 28.9526 21.2767 28.5538 21.1474C25.2276 20.2296 23.0748 21.5779 22.0755 22.5891C20.5594 24.1271 17.473 24.872 15.5401 23.5719C15.1904 23.3275 14.917 22.9905 14.7509 22.5994C14.5849 22.2083 14.5328 21.7788 14.6008 21.3598C15.1718 17.5331 18.3638 15.2502 22.4838 15.3153C24.266 15.3587 25.9849 15.9794 27.3783 17.0825C28.7717 18.1856 29.7631 19.7106 30.2012 21.4249Z" fill="#F93347"/>
<path d="M44.014 22.81C44.014 18.4964 42.7246 14.2796 40.3089 10.693C37.8933 7.10637 34.4597 4.31094 30.4426 2.66019C26.4254 1.00945 22.0051 0.57754 17.7405 1.41908C13.4759 2.26062 9.55865 4.33782 6.48405 7.38799C3.40946 10.4382 1.31564 14.3243 0.467359 18.555C-0.38092 22.7858 0.0544474 27.171 1.71841 31.1563C3.38236 35.1415 6.20018 38.5478 9.81552 40.9443C13.4309 43.3408 17.6813 44.6199 22.0295 44.6199H22.6233H22.7061H42.2296C42.7028 44.6199 43.1567 44.4334 43.4914 44.1014C43.826 43.7694 44.014 43.3191 44.014 42.8496V23.4756C44.0154 23.4492 44.0154 23.4227 44.014 23.3963C44.0112 23.198 44.014 23.0026 44.014 22.81ZM22.315 34.5363C20.0315 34.5369 17.799 33.8655 15.9002 32.6072C14.0013 31.3488 12.5214 29.56 11.6475 27.4671C10.7736 25.3741 10.5451 23.071 10.9909 20.8492C11.4367 18.6274 12.5367 16.5867 14.1518 14.9852C15.7669 13.3837 17.8245 12.2934 20.0643 11.8523C22.3042 11.4111 24.6256 11.639 26.7348 12.5069C28.8441 13.3749 30.6465 14.844 31.914 16.7284C33.1815 18.6128 33.8571 20.8278 33.8554 23.0932C33.8517 26.1279 32.6338 29.037 30.4694 31.1816C28.3051 33.3261 25.3711 34.5307 22.3121 34.5307L22.315 34.5363Z" fill="#F93347"/>
<mask id="mask1_19_4180" style="mask-type:luminance" maskUnits="userSpaceOnUse" x="0" y="1" width="45" height="44">
<path d="M22.0436 1C17.6955 1 13.445 2.27913 9.82968 4.67564C6.21434 7.07215 3.39652 10.4784 1.73257 14.4636C0.0686076 18.4489 -0.36676 22.8341 0.481519 27.0649C1.3298 31.2956 3.42362 35.1817 6.49821 38.2319C9.57281 41.2821 13.4901 43.3593 17.7547 44.2008C22.0192 45.0424 26.4396 44.6104 30.4568 42.9597C34.4739 41.309 37.9074 38.5135 40.3231 34.9269C42.7388 31.3403 44.0282 27.1235 44.0282 22.8099C44.0282 17.0256 41.712 11.4781 37.5891 7.38799C33.4661 3.29783 27.8743 1 22.0436 1ZM22.3291 34.5307C20.0451 34.5323 17.8119 33.8618 15.9122 32.6039C14.0125 31.3459 12.5316 29.5572 11.6571 27.464C10.7825 25.3708 10.5535 23.0673 10.9991 20.8449C11.4447 18.6226 12.5448 16.5813 14.1603 14.9795C15.7757 13.3777 17.8338 12.2873 20.0742 11.8463C22.3146 11.4054 24.6364 11.6337 26.7459 12.5024C28.8554 13.371 30.6578 14.841 31.9248 16.7263C33.1919 18.6115 33.8667 20.8273 33.8639 23.0932C33.8601 26.1279 32.6423 29.037 30.4779 31.1816C28.3135 33.3261 25.3796 34.5307 22.3206 34.5307H22.3291Z" fill="white"/>
</mask>
<g mask="url(#mask1_19_4180)">
<g opacity="0.2">
<path d="M43.8028 19.9774C43.3013 16.2051 41.8148 12.6283 39.4905 9.60161C37.1662 6.5749 34.085 4.20335 30.5521 2.72203C29.8624 2.43252 29.1582 2.17821 28.4422 1.9601C27.8398 1.77599 27.2259 1.61737 26.6092 1.48708C25.9925 1.35679 25.4129 1.26048 24.819 1.18401C24.2252 1.10753 23.5685 1.05372 22.9375 1.02539V21.8072H43.9713C43.937 21.1953 43.8809 20.5854 43.8028 19.9774ZM24.819 6.54586V3.26587C25.4243 3.35084 26.0239 3.46131 26.6178 3.60293C27.2374 3.74741 27.8492 3.92326 28.4508 4.12977C28.8886 4.27705 29.3206 4.44039 29.747 4.61978C31.8606 5.5079 33.8025 6.75386 35.4858 8.30198L34.418 9.36699C32.8729 7.95674 31.0936 6.82215 29.1588 6.01335C28.9247 5.91422 28.6877 5.82075 28.4508 5.73011C27.8502 5.5094 27.2384 5.3203 26.6178 5.16361V9.09224H24.819V6.54302V6.54586ZM35.2745 16.264H24.819V10.7521H26.6178V14.4173H34.1725C33.7216 13.7775 33.2204 13.1742 32.6735 12.613C32.6107 12.5478 32.5479 12.4827 32.4822 12.4204C32.0625 12.0018 31.6172 11.6092 31.1489 11.2449C30.8634 11.0183 30.5778 10.8059 30.2581 10.6019V12.613H28.4508V7.5967H28.4793C32.4222 9.25576 35.5716 12.3547 37.276 16.2527L35.2745 16.264ZM40.1654 19.9774H24.819V18.0825H39.76C39.5934 17.4663 39.3942 16.8593 39.1632 16.264C39.0919 16.0799 39.0176 15.8958 38.9377 15.7145C38.1494 13.8518 37.0521 12.1332 35.6914 10.6303L36.7564 9.56243C39.4115 12.4677 41.1288 16.0951 41.6872 19.9774H40.1654Z" fill="white"/>
<path d="M21.9866 44.6197C17.6383 44.62 13.3875 43.3411 9.77184 40.9446C6.15621 38.5481 3.33815 35.1417 1.67406 31.1563C0.00997203 27.1708 -0.425398 22.7853 0.423012 18.5544C1.27142 14.3235 3.3655 10.4372 6.44041 7.38701C8.73402 5.11141 11.5068 3.36752 14.5599 2.28043C17.613 1.19333 20.8708 0.78997 24.0996 1.09926C27.3283 1.40856 30.4481 2.42285 33.2352 4.06938C36.0222 5.71592 38.4074 7.9539 40.2197 10.6228C42.0321 13.2917 43.2266 16.3255 43.7177 19.5064C44.2088 22.6874 43.9842 25.9367 43.0602 29.0214C42.1361 32.1061 40.5354 34.9497 38.3728 37.3483C36.2103 39.7468 33.5395 41.6409 30.552 42.8947C27.8434 44.0369 24.9298 44.6236 21.9866 44.6197ZM21.9866 3.07034C17.397 3.07225 12.9491 4.64816 9.39666 7.53107C5.84419 10.414 3.40556 14.4266 2.49396 18.8891C1.58236 23.3516 2.25384 27.9895 4.39463 32.017C6.53542 36.0445 10.0139 39.214 14.2406 40.9885C19.0905 42.9649 24.5306 42.9624 29.3785 40.9816C34.2265 39.0007 38.0905 35.2017 40.1305 30.4102C42.1706 25.6186 42.2219 20.222 40.2732 15.3931C38.3246 10.5643 34.5335 6.69367 29.724 4.62253C27.2762 3.59464 24.6447 3.06674 21.9866 3.07034Z" fill="white"/>
<path d="M0.00195312 21.8072H21.0272V1.02539C20.3933 1.05372 19.7681 1.1047 19.1456 1.18401C18.5232 1.26332 17.9408 1.36245 17.344 1.48708C16.7473 1.61171 16.1163 1.77033 15.511 1.9601C14.7959 2.17776 14.0926 2.43208 13.404 2.72203C9.87012 4.20071 6.78823 6.57169 4.46498 9.59903C2.14174 12.6264 0.658142 16.2045 0.161841 19.9774C0.0818969 20.5864 0.0305045 21.1953 0.00195312 21.8072ZM19.1456 8.36429V9.08091H17.344V5.15795C16.7234 5.31464 16.1116 5.50373 15.511 5.72444C15.2741 5.81225 15.0371 5.90572 14.803 6.00769C12.8681 6.8189 11.089 7.95535 9.54381 9.36699L8.47885 8.30198C10.1612 6.75391 12.1021 5.50794 14.2148 4.61978C14.6431 4.44039 15.0752 4.27705 15.511 4.12977C16.1127 3.92363 16.7245 3.74779 17.344 3.60293C17.9379 3.46131 18.5403 3.35084 19.1456 3.26587V8.36429ZM6.68868 16.264C8.39309 12.3661 11.5424 9.26709 15.4854 7.60803H15.511V12.613H13.7066V10.6019C13.404 10.8059 13.107 11.0183 12.8158 11.2449C12.3474 11.6092 11.9021 12.0018 11.4825 12.4204L11.2912 12.613C10.7459 13.1758 10.2456 13.78 9.79507 14.4201H17.344V10.7521H19.1456V16.264H6.68868ZM2.26893 19.9774C2.83459 16.0995 4.55338 12.4772 7.20546 9.57376L8.28185 10.6303C6.91678 12.1375 5.81566 13.8608 5.02414 15.7287C4.94705 15.91 4.87281 16.0941 4.80144 16.2782C4.5708 16.8739 4.37069 17.4808 4.20186 18.0966H19.1456V19.9774H2.26893Z" fill="white"/>
<path d="M43.9713 23.7957H22.9375V44.5774C23.5694 44.551 24.1966 44.4981 24.819 44.4188C25.4243 44.3423 26.0239 44.2432 26.6178 44.1157C27.2116 43.9883 27.8483 43.8325 28.4508 43.6427C29.1671 43.4259 29.8714 43.1715 30.5607 42.8808C34.094 41.3997 37.1752 39.0273 39.4982 35.9993C41.8213 32.9712 43.3053 29.3929 43.8028 25.6198C43.8799 25.0164 43.9342 24.4103 43.9713 23.7957ZM24.8419 37.2272V36.5106H26.6406V40.4449C27.2612 40.2882 27.8731 40.0991 28.4736 39.8784C28.7106 39.7906 28.9476 39.6971 29.1817 39.5951C31.1165 38.7863 32.8957 37.6517 34.4408 36.2415L35.5087 37.3065C33.8253 38.8546 31.8835 40.1006 29.7698 40.9887C29.3416 41.1662 28.9095 41.3295 28.4736 41.4787C27.8721 41.6852 27.2603 41.8611 26.6406 42.0055C26.0467 42.1472 25.4472 42.2576 24.8419 42.3426V37.2442V37.2272ZM37.2988 29.3388C35.5966 33.2382 32.4466 36.3379 28.5022 37.9948H28.4736V33.0068H30.2666V35.0179C30.5721 34.8139 30.8691 34.6015 31.1574 34.3749C31.6258 34.0106 32.0711 33.618 32.4908 33.1994C32.5564 33.1371 32.6193 33.072 32.6821 33.0068C33.2291 32.4447 33.7303 31.8404 34.181 31.1997H26.6178V34.8649H24.819V29.3388H37.276H37.2988ZM41.6872 25.6198C41.1261 29.5006 39.4068 33.126 36.7506 36.029L35.6914 34.9612C37.0508 33.4625 38.148 31.7488 38.9377 29.8911C39.0176 29.7098 39.0919 29.5257 39.1632 29.3416C39.3942 28.7463 39.5934 28.1393 39.76 27.5232H24.819V25.6198H41.6872Z" fill="white"/>
<path d="M0.161841 25.6198C0.661613 29.3921 2.14646 32.9695 4.46922 35.9972C6.79197 39.0249 9.87197 41.3978 13.404 42.8808C14.0921 43.172 14.7954 43.4263 15.511 43.6427C16.1163 43.8315 16.7273 43.9892 17.344 44.1157C17.9408 44.2432 18.5403 44.3423 19.1456 44.4188C19.7509 44.4953 20.3933 44.5519 21.0272 44.5774V23.7957H0.00195312C0.0305045 24.4103 0.0818969 25.0164 0.161841 25.6198ZM19.1456 39.0569V42.3284C18.5403 42.2435 17.9379 42.133 17.344 41.9914C16.7245 41.8465 16.1127 41.6707 15.511 41.4645C15.0733 41.3173 14.6412 41.1539 14.2148 40.9745C12.1021 40.0864 10.1612 38.8404 8.47885 37.2923L9.54381 36.2273C11.0894 37.6369 12.8686 38.7715 14.803 39.581C15.0371 39.6801 15.2741 39.7736 15.511 39.8642C16.1116 40.0849 16.7234 40.274 17.344 40.4307V36.5106H19.1456V39.0598V39.0569ZM8.68727 29.3388H19.1456V34.8507H17.344V31.1855H9.79221C10.2422 31.8305 10.7424 32.4394 11.2883 33.0068L11.4796 33.1994C11.8993 33.618 12.3446 34.0106 12.8129 34.3749C13.0985 34.6015 13.4011 34.8139 13.7037 35.0179V33.0068H15.511V38.0203H15.4854C11.5409 36.3634 8.39087 33.2637 6.68868 29.3643L8.68727 29.3388ZM3.79928 25.6198H19.1456V27.5203H4.20186C4.37069 28.1361 4.5708 28.743 4.80144 29.3388C4.87281 29.5229 4.94705 29.707 5.02414 29.8883C5.81818 31.7472 6.91919 33.4617 8.28185 34.9612L7.21402 36.029C4.55781 33.1251 2.83593 29.5005 2.26893 25.6198H3.79928Z" fill="white"/>
</g>
</g>
</g>
</g>
<defs>
<clipPath id="clip0_19_4180">
<rect width="266" height="45" fill="white"/>
</clipPath>
<clipPath id="clip1_19_4180">
<rect width="266" height="46" fill="white" transform="translate(0 -1)"/>
</clipPath>
</defs>
</svg>
