<svg width="30" height="30" viewBox="0 0 30 30" fill="none" xmlns="http://www.w3.org/2000/svg">
<path d="M9.93143 16.4432C9.85938 16.1724 9.95285 16.0536 10.2936 16.2484C10.5252 16.4115 10.7799 16.5389 11.0492 16.6263C13.3179 17.2575 14.7863 16.3302 15.4679 15.6348C16.5039 14.577 18.6129 14.0646 19.9313 14.9588C20.1698 15.1269 20.3563 15.3587 20.4695 15.6277C20.5828 15.8967 20.6183 16.1921 20.572 16.4802C20.1825 19.1121 18.0072 20.6822 15.1952 20.6374C13.9808 20.6076 12.8093 20.1818 11.8591 19.4247C10.9089 18.6676 10.232 17.6206 9.93143 16.4432Z" fill="#3C54D0"/>
<path d="M20.568 14.0474C20.6401 14.3181 20.5466 14.437 20.2058 14.2422C19.9732 14.0755 19.7164 13.9454 19.4444 13.8565C17.1757 13.2253 15.7073 14.1526 15.0258 14.848C13.9917 15.9058 11.8866 16.4181 10.5682 15.524C10.3297 15.3559 10.1432 15.1241 10.0299 14.8551C9.91663 14.5861 9.88115 14.2907 9.92749 14.0026C10.317 11.3707 12.4942 9.80061 15.3042 9.84542C16.5198 9.87528 17.6922 10.3021 18.6426 11.0608C19.593 11.8195 20.2692 12.8683 20.568 14.0474Z" fill="#F93347"/>
<path d="M29.9898 15C29.9898 12.0333 29.1103 9.13319 27.4627 6.66645C25.815 4.19972 23.4731 2.27713 20.7332 1.14181C17.9932 0.00649926 14.9783 -0.290551 12.0695 0.288227C9.16081 0.867006 6.48898 2.29562 4.39191 4.3934C2.29483 6.49119 0.86671 9.16394 0.288129 12.0737C-0.290452 14.9834 0.00649704 17.9994 1.14142 20.7403C2.27635 23.4811 4.19828 25.8238 6.66418 27.472C9.13008 29.1203 12.0292 30 14.9949 30H15.3999H15.4564H28.7727C29.0955 30 29.405 29.8717 29.6333 29.6434C29.8615 29.4151 29.9898 29.1054 29.9898 28.7825V15.4578C29.9907 15.4396 29.9907 15.4214 29.9898 15.4033C29.9878 15.2669 29.9898 15.1325 29.9898 15ZM15.1896 23.0649C13.6321 23.0653 12.1095 22.6036 10.8143 21.7381C9.51919 20.8727 8.50975 19.6424 7.91371 18.203C7.31768 16.7635 7.16182 15.1796 7.46587 13.6515C7.76992 12.1234 8.5202 10.7199 9.62181 9.61843C10.7234 8.517 12.1268 7.76715 13.6545 7.46376C15.1823 7.16036 16.7656 7.31705 18.2043 7.91401C19.6429 8.51096 20.8723 9.52135 21.7368 10.8174C22.6013 12.1134 23.0621 13.6368 23.061 15.1948C23.0584 17.282 22.2277 19.2827 20.7515 20.7577C19.2752 22.2326 17.2741 23.061 15.1877 23.061L15.1896 23.0649Z" fill="#F93347"/>
<mask id="mask0_57_8312" style="mask-type:luminance" maskUnits="userSpaceOnUse" x="0" y="0" width="30" height="30">
<path d="M15.0051 0C12.0394 0 9.14033 0.879735 6.67443 2.52796C4.20854 4.17618 2.28661 6.51886 1.15168 9.25975C0.0167509 12.0006 -0.280198 15.0166 0.298383 17.9264C0.876964 20.8361 2.30509 23.5088 4.40216 25.6066C6.49923 27.7044 9.17106 29.133 12.0798 29.7118C14.9885 30.2906 18.0035 29.9935 20.7434 28.8582C23.4834 27.7229 25.8253 25.8003 27.4729 23.3335C29.1206 20.8668 30 17.9667 30 15C30 11.0218 28.4202 7.20644 25.6081 4.3934C22.796 1.58035 18.982 0 15.0051 0ZM15.1999 23.061C13.642 23.0622 12.1189 22.601 10.8231 21.7359C9.52738 20.8707 8.51734 19.6405 7.92082 18.2009C7.3243 16.7613 7.16812 15.177 7.47204 13.6485C7.77596 12.1201 8.52633 10.7162 9.62817 9.61453C10.73 8.51286 12.1338 7.76294 13.6619 7.45967C15.1899 7.1564 16.7736 7.31342 18.2124 7.91085C19.6512 8.50829 20.8806 9.51928 21.7448 10.8159C22.609 12.1125 23.0693 13.6364 23.0673 15.1948C23.0647 17.282 22.2341 19.2827 20.7579 20.7577C19.2816 22.2326 17.2805 23.061 15.194 23.061H15.1999Z" fill="white"/>
</mask>
<g mask="url(#mask0_57_8312)">
<g opacity="0.2">
<path d="M29.8463 13.0517C29.5042 10.4573 28.4903 7.99736 26.905 5.91571C25.3197 3.83406 23.218 2.20301 20.8084 1.18422C20.338 0.985102 19.8576 0.810198 19.3693 0.660191C18.9584 0.533568 18.5397 0.424477 18.1191 0.334866C17.6985 0.245256 17.3031 0.179022 16.8981 0.126425C16.493 0.0738275 16.0451 0.0368145 15.6147 0.017334V14.3102H29.9611C29.9378 13.8894 29.8995 13.4699 29.8463 13.0517ZM16.8981 3.81409V1.55824C17.3109 1.61668 17.7199 1.69266 18.1249 1.79006C18.5476 1.88943 18.9649 2.01037 19.3752 2.1524C19.6738 2.2537 19.9685 2.36603 20.2593 2.48941C21.7009 3.10022 23.0254 3.95714 24.1735 5.02188L23.4452 5.75435C22.3913 4.78444 21.1778 4.00411 19.8581 3.44785C19.6984 3.37967 19.5368 3.31539 19.3752 3.25305C18.9656 3.10125 18.5482 2.9712 18.1249 2.86344V5.56538H16.8981V3.81214V3.81409ZM24.0294 10.4979H16.8981V6.70694H18.1249V9.22772H23.2777C22.9702 8.78772 22.6284 8.37279 22.2553 7.98681C22.2125 7.94201 22.1697 7.8972 22.1249 7.85434C21.8386 7.56644 21.5349 7.29644 21.2154 7.0459C21.0207 6.89006 20.826 6.74396 20.6078 6.6037V7.98681H19.3752V4.53681H19.3946C22.0839 5.67785 24.232 7.8092 25.3945 10.4901L24.0294 10.4979ZM27.3653 13.0517H16.8981V11.7485H27.0888C26.9751 11.3248 26.8393 10.9073 26.6817 10.4979C26.6331 10.3712 26.5824 10.2446 26.5279 10.1199C25.9903 8.83882 25.2418 7.65687 24.3137 6.62318L25.0401 5.88876C26.8511 7.88688 28.0224 10.3817 28.4032 13.0517H27.3653Z" fill="white"/>
<path d="M14.9657 30.0001C11.9998 30.0003 9.10052 29.1207 6.63442 27.4725C4.16833 25.8242 2.24623 23.4815 1.11121 20.7405C-0.0238049 17.9994 -0.320755 14.9833 0.257915 12.0734C0.836585 9.16356 2.26488 6.49072 4.36217 4.39292C5.92656 2.82786 7.81778 1.62849 9.9002 0.880826C11.9826 0.133167 14.2046 -0.144251 16.4069 0.0684683C18.6091 0.281188 20.737 0.978774 22.6379 2.1112C24.5389 3.24362 26.1657 4.78281 27.4019 6.61839C28.638 8.45396 29.4528 10.5404 29.7877 12.7282C30.1227 14.9159 29.9695 17.1507 29.3392 19.2722C28.7089 21.3937 27.6171 23.3494 26.1421 24.9991C24.6672 26.6487 22.8455 27.9514 20.8079 28.8137C18.9604 29.5992 16.9731 30.0028 14.9657 30.0001ZM14.9657 1.42409C11.8353 1.42541 8.80154 2.50926 6.37852 4.49201C3.95551 6.47475 2.29221 9.23447 1.67044 12.3036C1.04866 15.3727 1.50666 18.5625 2.96682 21.3324C4.42698 24.1024 6.79951 26.2823 9.68244 27.5027C12.9903 28.8619 16.7008 28.8602 20.0075 27.4979C23.3141 26.1356 25.9496 23.5227 27.341 20.2273C28.7325 16.9319 28.7675 13.2203 27.4384 9.89921C26.1092 6.57815 23.5235 3.91608 20.2431 2.49163C18.5736 1.78469 16.7787 1.42162 14.9657 1.42409Z" fill="white"/>
<path d="M-0.0292969 14.3102H14.3113V0.017334C13.8789 0.0368145 13.4525 0.0718794 13.0279 0.126425C12.6034 0.18097 12.2061 0.249152 11.7991 0.334866C11.3921 0.420581 10.9618 0.529672 10.5489 0.660191C10.0611 0.809885 9.58142 0.984796 9.11174 1.18422C6.70143 2.20119 4.59939 3.83185 3.01478 5.91394C1.43017 7.99602 0.418266 10.4569 0.0797568 13.0517C0.02523 13.4706 -0.009823 13.8894 -0.0292969 14.3102ZM13.0279 5.06474V5.55759H11.7991V2.85954C11.3758 2.96731 10.9585 3.09736 10.5489 3.24915C10.3873 3.30954 10.2256 3.37383 10.066 3.44396C8.74628 4.00188 7.53277 4.78348 6.47887 5.75435L5.7525 5.02188C6.89994 3.95718 8.22377 3.10025 9.6648 2.48941C9.95691 2.36603 10.2516 2.2537 10.5489 2.1524C10.9593 2.01062 11.3766 1.88969 11.7991 1.79006C12.2042 1.69266 12.6151 1.61668 13.0279 1.55824V5.06474ZM4.53148 10.4979C5.694 7.81699 7.84206 5.68564 10.5314 4.54461H10.5489V7.98681H9.31816V6.6037C9.11174 6.74396 8.90921 6.89006 8.71058 7.0459C8.39113 7.29644 8.08741 7.56644 7.80115 7.85434L7.67067 7.98681C7.29874 8.37393 6.95756 8.78947 6.65024 9.22967H11.7991V6.70694H13.0279V10.4979H4.53148ZM1.51693 13.0517C1.90275 10.3847 3.07507 7.89346 4.88396 5.89655L5.61813 6.62318C4.68706 7.65979 3.93603 8.845 3.39616 10.1297C3.34358 10.2543 3.29295 10.381 3.24426 10.5076C3.08695 10.9173 2.95046 11.3347 2.83531 11.7582H13.0279V13.0517H1.51693Z" fill="white"/>
<path d="M29.9611 15.6777H15.6147V29.9706C16.0458 29.9524 16.4735 29.916 16.8981 29.8615C17.3109 29.8089 17.7199 29.7407 18.1249 29.6531C18.53 29.5654 18.9643 29.4583 19.3752 29.3277C19.8638 29.1786 20.3441 29.0037 20.8143 28.8037C23.2242 27.7851 25.3258 26.1535 26.9102 24.0709C28.4947 21.9883 29.5069 19.5273 29.8463 16.9323C29.8988 16.5173 29.9358 16.1005 29.9611 15.6777ZM16.9137 24.9154V24.4225H18.1405V27.1284C18.5638 27.0206 18.9811 26.8906 19.3907 26.7388C19.5524 26.6784 19.714 26.6141 19.8737 26.544C21.1933 25.9877 22.4069 25.2074 23.4608 24.2375L24.1891 24.9699C23.0409 26.0347 21.7165 26.8916 20.2748 27.5024C19.9827 27.6245 19.688 27.7368 19.3907 27.8394C18.9804 27.9815 18.5632 28.1024 18.1405 28.2018C17.7355 28.2992 17.3265 28.3751 16.9137 28.4336V24.9271V24.9154ZM25.4101 19.4901C24.2491 22.172 22.1006 24.3038 19.4102 25.4433H19.3907V22.0128H20.6137V23.3959C20.8221 23.2557 21.0246 23.1096 21.2213 22.9537C21.5407 22.7032 21.8444 22.4332 22.1307 22.1453C22.1755 22.1024 22.2183 22.0576 22.2612 22.0128C22.6343 21.6262 22.9761 21.2106 23.2836 20.7699H18.1249V23.2907H16.8981V19.4901H25.3945H25.4101ZM28.4032 16.9323C28.0206 19.6014 26.8479 22.0948 25.0362 24.0914L24.3137 23.357C25.2409 22.3262 25.9893 21.1476 26.5279 19.8699C26.5824 19.7453 26.6331 19.6186 26.6817 19.492C26.8393 19.0826 26.9751 18.6651 27.0888 18.2414H16.8981V16.9323H28.4032Z" fill="white"/>
<path d="M0.0797568 16.9323C0.420634 19.5268 1.4334 21.9871 3.01767 24.0694C4.60193 26.1518 6.7027 27.7838 9.11174 28.8037C9.58108 29.004 10.0608 29.1789 10.5489 29.3277C10.9618 29.4576 11.3785 29.566 11.7991 29.6531C12.2061 29.7407 12.6151 29.8089 13.0279 29.8615C13.4408 29.9141 13.8789 29.9531 14.3113 29.9706V15.6777H-0.0292969C-0.009823 16.1005 0.02523 16.5173 0.0797568 16.9323ZM13.0279 26.1738V28.4238C12.6151 28.3654 12.2042 28.2894 11.7991 28.192C11.3766 28.0924 10.9593 27.9715 10.5489 27.8297C10.2503 27.7284 9.95561 27.616 9.6648 27.4927C8.22377 26.8818 6.89994 26.0249 5.7525 24.9602L6.47887 24.2277C7.53307 25.1972 8.74656 25.9775 10.066 26.5342C10.2256 26.6024 10.3873 26.6667 10.5489 26.729C10.9585 26.8808 11.3758 27.0109 11.7991 27.1186V24.4225H13.0279V26.1758V26.1738ZM5.89466 19.4901H13.0279V23.281H11.7991V20.7602H6.64829C6.9552 21.2038 7.29639 21.6226 7.66873 22.0128L7.7992 22.1453C8.08546 22.4332 8.38918 22.7032 8.70863 22.9537C8.90337 23.1096 9.10979 23.2557 9.31622 23.3959V22.0128H10.5489V25.4608H10.5314C7.84104 24.3213 5.69249 22.1895 4.53148 19.5076L5.89466 19.4901ZM2.56073 16.9323H13.0279V18.2394H2.83531C2.95046 18.6629 3.08695 19.0804 3.24426 19.4901C3.29295 19.6167 3.34358 19.7433 3.39616 19.868C3.93775 21.1465 4.6887 22.3256 5.61813 23.357L4.8898 24.0914C3.07809 22.0941 1.90366 19.6013 1.51693 16.9323H2.56073Z" fill="white"/>
</g>
</g>
</svg>
